<?xml version="1.0" encoding="utf-8"?>
<!-- Generator: Adobe Illustrator 24.0.0, SVG Export Plug-In . SVG Version: 6.00 Build 0)  -->
<svg version="1.1" id="Capa_1" xmlns="http://www.w3.org/2000/svg" xmlns:xlink="http://www.w3.org/1999/xlink" x="0px" y="0px"
	 viewBox="0 0 1328 38" style="enable-background:new 0 0 1328 38;" xml:space="preserve">
<style type="text/css">
	.st0{fill:#10312B;}
</style>
<g>
	<polygon class="st0" points="0,14.3 0,22.8 1.8,22.8 1.8,20.7 6.1,20.7 6.1,18.6 10,18.6 10,16.4 13.8,16.4 13.8,14.3 	"/>
	<polygon class="st0" points="10.8,10.7 10.8,8.6 10.8,6.4 10.8,4.3 10.8,4.3 10.8,2.2 2.9,2.2 2.9,6.4 6.1,6.4 6.1,4.3 8.3,4.3 
		8.3,6.4 8.3,8.6 6.1,8.6 2.9,8.6 0.7,8.6 0.7,6.4 0.7,2.2 0.7,1 0.7,0 14,0 14,2.2 17.8,2.2 17.8,4.3 22.1,4.3 22.1,6.4 26.1,6.4 
		26.1,8.6 29.9,8.6 29.9,10.7 	"/>
	<polygon class="st0" points="29.9,14.3 29.9,16.4 29.9,18.6 29.9,20.7 29.9,20.7 29.9,22.8 22,22.8 22,18.6 25.2,18.6 25.2,20.7 
		27.4,20.7 27.4,18.6 27.4,16.4 25.2,16.4 22,16.4 19.8,16.4 19.8,18.6 19.8,22.8 19.8,24 19.8,25 33.1,25 33.1,22.8 36.9,22.8 
		36.9,20.7 41.2,20.7 41.2,18.6 45.2,18.6 45.2,16.4 49,16.4 49,14.3 	"/>
	<polygon class="st0" points="46,10.7 46,8.6 46,6.4 46,4.3 46,4.3 46,2.2 38,2.2 38,6.4 41.3,6.4 41.3,4.3 43.4,4.3 43.4,6.4 
		43.4,8.6 41.3,8.6 38,8.6 35.8,8.6 35.8,6.4 35.8,2.2 35.8,1 35.8,0 49.1,0 49.1,2.2 53,2.2 53,4.3 57.2,4.3 57.2,6.4 61.2,6.4 
		61.2,8.6 65,8.6 65,10.7 	"/>
	<polygon class="st0" points="65,14.3 65,16.4 65,18.6 65,20.7 65,20.7 65,22.8 57.1,22.8 57.1,18.6 60.3,18.6 60.3,20.7 62.5,20.7 
		62.5,18.6 62.5,16.4 60.3,16.4 57.1,16.4 54.9,16.4 54.9,18.6 54.9,22.8 54.9,24 54.9,25 68.2,25 68.2,22.8 72,22.8 72,20.7 
		76.3,20.7 76.3,18.6 80.3,18.6 80.3,16.4 84.1,16.4 84.1,14.3 	"/>
	<polygon class="st0" points="81.1,10.7 81.1,8.6 81.1,6.4 81.1,4.3 81.1,4.3 81.1,2.2 73.1,2.2 73.1,6.4 76.4,6.4 76.4,4.3 
		78.5,4.3 78.5,6.4 78.5,8.6 76.4,8.6 73.1,8.6 71,8.6 71,6.4 71,2.2 71,1 71,0 84.2,0 84.2,2.2 88.1,2.2 88.1,4.3 92.4,4.3 
		92.4,6.4 96.3,6.4 96.3,8.6 100.1,8.6 100.1,10.7 	"/>
	<polygon class="st0" points="100.2,14.3 100.2,16.4 100.2,18.6 100.2,20.7 100.2,20.7 100.2,22.8 92.2,22.8 92.2,18.6 95.5,18.6 
		95.5,20.7 97.6,20.7 97.6,18.6 97.6,16.4 95.5,16.4 92.2,16.4 90.1,16.4 90.1,18.6 90.1,22.8 90.1,24 90.1,25 103.3,25 103.3,22.8 
		107.2,22.8 107.2,20.7 111.5,20.7 111.5,18.6 115.4,18.6 115.4,16.4 119.2,16.4 119.2,14.3 	"/>
	<polygon class="st0" points="116.2,10.7 116.2,8.6 116.2,6.4 116.2,4.3 116.2,4.3 116.2,2.2 108.3,2.2 108.3,6.4 111.5,6.4 
		111.5,4.3 113.7,4.3 113.7,6.4 113.7,8.6 111.5,8.6 108.3,8.6 106.1,8.6 106.1,6.4 106.1,2.2 106.1,1 106.1,0 119.4,0 119.4,2.2 
		123.2,2.2 123.2,4.3 127.5,4.3 127.5,6.4 131.4,6.4 131.4,8.6 135.3,8.6 135.3,10.7 	"/>
	<polygon class="st0" points="135.3,14.3 135.3,16.4 135.3,18.6 135.3,20.7 135.3,20.7 135.3,22.8 127.3,22.8 127.3,18.6 
		130.6,18.6 130.6,20.7 132.8,20.7 132.8,18.6 132.8,16.4 130.6,16.4 127.3,16.4 125.2,16.4 125.2,18.6 125.2,22.8 125.2,24 
		125.2,25 138.4,25 138.4,22.8 142.3,22.8 142.3,20.7 146.6,20.7 146.6,18.6 150.5,18.6 150.5,16.4 154.3,16.4 154.3,14.3 	"/>
	<polygon class="st0" points="151.3,10.7 151.3,8.6 151.3,6.4 151.3,4.3 151.3,4.3 151.3,2.2 143.4,2.2 143.4,6.4 146.6,6.4 
		146.6,4.3 148.8,4.3 148.8,6.4 148.8,8.6 146.6,8.6 143.4,8.6 141.2,8.6 141.2,6.4 141.2,2.2 141.2,1 141.2,0 154.5,0 154.5,2.2 
		158.3,2.2 158.3,4.3 162.6,4.3 162.6,6.4 166.6,6.4 166.6,8.6 170.4,8.6 170.4,10.7 	"/>
	<polygon class="st0" points="170.4,14.3 170.4,16.4 170.4,18.6 170.4,20.7 170.4,20.7 170.4,22.8 162.5,22.8 162.5,18.6 
		165.7,18.6 165.7,20.7 167.9,20.7 167.9,18.6 167.9,16.4 165.7,16.4 162.5,16.4 160.3,16.4 160.3,18.6 160.3,22.8 160.3,24 
		160.3,25 173.6,25 173.6,22.8 177.4,22.8 177.4,20.7 181.7,20.7 181.7,18.6 185.7,18.6 185.7,16.4 189.5,16.4 189.5,14.3 	"/>
	<polygon class="st0" points="186.5,10.7 186.5,8.6 186.5,6.4 186.5,4.3 186.5,4.3 186.5,2.2 178.5,2.2 178.5,6.4 181.8,6.4 
		181.8,4.3 183.9,4.3 183.9,6.4 183.9,8.6 181.8,8.6 178.5,8.6 176.4,8.6 176.4,6.4 176.4,2.2 176.4,1 176.4,0 189.6,0 189.6,2.2 
		193.5,2.2 193.5,4.3 197.8,4.3 197.8,6.4 201.7,6.4 201.7,8.6 205.5,8.6 205.5,10.7 	"/>
	<polygon class="st0" points="205.5,14.3 205.5,16.4 205.5,18.6 205.5,20.7 205.5,20.7 205.5,22.8 197.6,22.8 197.6,18.6 
		200.9,18.6 200.9,20.7 203,20.7 203,18.6 203,16.4 200.9,16.4 197.6,16.4 195.4,16.4 195.4,18.6 195.4,22.8 195.4,24 195.4,25 
		208.7,25 208.7,22.8 212.6,22.8 212.6,20.7 216.8,20.7 216.8,18.6 220.8,18.6 220.8,16.4 224.6,16.4 224.6,14.3 	"/>
	<polygon class="st0" points="221.6,10.7 221.6,8.6 221.6,6.4 221.6,4.3 221.6,4.3 221.6,2.2 213.6,2.2 213.6,6.4 216.9,6.4 
		216.9,4.3 219,4.3 219,6.4 219,8.6 216.9,8.6 213.6,8.6 211.5,8.6 211.5,6.4 211.5,2.2 211.5,1 211.5,0 224.7,0 224.7,2.2 
		228.6,2.2 228.6,4.3 232.9,4.3 232.9,6.4 236.8,6.4 236.8,8.6 240.6,8.6 240.6,10.7 	"/>
	<polygon class="st0" points="240.7,14.3 240.7,16.4 240.7,18.6 240.7,20.7 240.7,20.7 240.7,22.8 232.7,22.8 232.7,18.6 236,18.6 
		236,20.7 238.1,20.7 238.1,18.6 238.1,16.4 236,16.4 232.7,16.4 230.6,16.4 230.6,18.6 230.6,22.8 230.6,24 230.6,25 243.8,25 
		243.8,22.8 247.7,22.8 247.7,20.7 252,20.7 252,18.6 255.9,18.6 255.9,16.4 259.7,16.4 259.7,14.3 	"/>
	<polygon class="st0" points="256.7,10.7 256.7,8.6 256.7,6.4 256.7,4.3 256.7,4.3 256.7,2.2 248.8,2.2 248.8,6.4 252,6.4 252,4.3 
		254.2,4.3 254.2,6.4 254.2,8.6 252,8.6 248.8,8.6 246.6,8.6 246.6,6.4 246.6,2.2 246.6,1 246.6,0 259.9,0 259.9,2.2 263.7,2.2 
		263.7,4.3 268,4.3 268,6.4 272,6.4 272,8.6 275.8,8.6 275.8,10.7 	"/>
	<polygon class="st0" points="275.8,14.3 275.8,16.4 275.8,18.6 275.8,20.7 275.8,20.7 275.8,22.8 267.9,22.8 267.9,18.6 
		271.1,18.6 271.1,20.7 273.3,20.7 273.3,18.6 273.3,16.4 271.1,16.4 267.9,16.4 265.7,16.4 265.7,18.6 265.7,22.8 265.7,24 
		265.7,25 279,25 279,22.8 282.8,22.8 282.8,20.7 287.1,20.7 287.1,18.6 291,18.6 291,16.4 294.9,16.4 294.9,14.3 	"/>
	<polygon class="st0" points="291.8,10.7 291.8,8.6 291.8,6.4 291.8,4.3 291.8,4.3 291.8,2.2 283.9,2.2 283.9,6.4 287.2,6.4 
		287.2,4.3 289.3,4.3 289.3,6.4 289.3,8.6 287.2,8.6 283.9,8.6 281.7,8.6 281.7,6.4 281.7,2.2 281.7,1 281.7,0 295,0 295,2.2 
		298.8,2.2 298.8,4.3 303.1,4.3 303.1,6.4 307.1,6.4 307.1,8.6 310.9,8.6 310.9,10.7 	"/>
	<polygon class="st0" points="310.9,14.3 310.9,16.4 310.9,18.6 310.9,20.7 310.9,20.7 310.9,22.8 303,22.8 303,18.6 306.2,18.6 
		306.2,20.7 308.4,20.7 308.4,18.6 308.4,16.4 306.2,16.4 303,16.4 300.8,16.4 300.8,18.6 300.8,22.8 300.8,24 300.8,25 314.1,25 
		314.1,22.8 317.9,22.8 317.9,20.7 322.2,20.7 322.2,18.6 326.2,18.6 326.2,16.4 330,16.4 330,14.3 	"/>
	<polygon class="st0" points="327,10.7 327,8.6 327,6.4 327,4.3 327,4.3 327,2.2 319,2.2 319,6.4 322.3,6.4 322.3,4.3 324.4,4.3 
		324.4,6.4 324.4,8.6 322.3,8.6 319,8.6 316.9,8.6 316.9,6.4 316.9,2.2 316.9,1 316.9,0 330.1,0 330.1,2.2 334,2.2 334,4.3 
		338.3,4.3 338.3,6.4 342.2,6.4 342.2,8.6 346,8.6 346,10.7 	"/>
	<polygon class="st0" points="346.1,14.3 346.1,16.4 346.1,18.6 346.1,20.7 346.1,20.7 346.1,22.8 338.1,22.8 338.1,18.6 
		341.4,18.6 341.4,20.7 343.5,20.7 343.5,18.6 343.5,16.4 341.4,16.4 338.1,16.4 336,16.4 336,18.6 336,22.8 336,24 336,25 
		349.2,25 349.2,22.8 353.1,22.8 353.1,20.7 357.4,20.7 357.4,18.6 361.3,18.6 361.3,16.4 365.1,16.4 365.1,14.3 	"/>
	<polygon class="st0" points="362.1,10.7 362.1,8.6 362.1,6.4 362.1,4.3 362.1,4.3 362.1,2.2 354.1,2.2 354.1,6.4 357.4,6.4 
		357.4,4.3 359.6,4.3 359.6,6.4 359.6,8.6 357.4,8.6 354.1,8.6 352,8.6 352,6.4 352,2.2 352,1 352,0 365.3,0 365.3,2.2 369.1,2.2 
		369.1,4.3 373.4,4.3 373.4,6.4 377.3,6.4 377.3,8.6 381.1,8.6 381.1,10.7 	"/>
	<polygon class="st0" points="381.2,14.3 381.2,16.4 381.2,18.6 381.2,20.7 381.2,20.7 381.2,22.8 373.2,22.8 373.2,18.6 
		376.5,18.6 376.5,20.7 378.6,20.7 378.6,18.6 378.6,16.4 376.5,16.4 373.2,16.4 371.1,16.4 371.1,18.6 371.1,22.8 371.1,24 
		371.1,25 384.3,25 384.3,22.8 388.2,22.8 388.2,20.7 392.5,20.7 392.5,18.6 396.4,18.6 396.4,16.4 400.2,16.4 400.2,14.3 	"/>
	<polygon class="st0" points="397.2,10.7 397.2,8.6 397.2,6.4 397.2,4.3 397.2,4.3 397.2,2.2 389.3,2.2 389.3,6.4 392.5,6.4 
		392.5,4.3 394.7,4.3 394.7,6.4 394.7,8.6 392.5,8.6 389.3,8.6 387.1,8.6 387.1,6.4 387.1,2.2 387.1,1 387.1,0 400.4,0 400.4,2.2 
		404.2,2.2 404.2,4.3 408.5,4.3 408.5,6.4 412.5,6.4 412.5,8.6 416.3,8.6 416.3,10.7 	"/>
	<polygon class="st0" points="416.3,14.3 416.3,16.4 416.3,18.6 416.3,20.7 416.3,20.7 416.3,22.8 408.4,22.8 408.4,18.6 
		411.6,18.6 411.6,20.7 413.8,20.7 413.8,18.6 413.8,16.4 411.6,16.4 408.4,16.4 406.2,16.4 406.2,18.6 406.2,22.8 406.2,24 
		406.2,25 419.5,25 419.5,22.8 423.3,22.8 423.3,20.7 427.6,20.7 427.6,18.6 431.6,18.6 431.6,16.4 435.4,16.4 435.4,14.3 	"/>
	<polygon class="st0" points="432.4,10.7 432.4,8.6 432.4,6.4 432.4,4.3 432.4,4.3 432.4,2.2 424.4,2.2 424.4,6.4 427.7,6.4 
		427.7,4.3 429.8,4.3 429.8,6.4 429.8,8.6 427.7,8.6 424.4,8.6 422.3,8.6 422.3,6.4 422.3,2.2 422.3,1 422.3,0 435.5,0 435.5,2.2 
		439.4,2.2 439.4,4.3 443.7,4.3 443.7,6.4 447.6,6.4 447.6,8.6 451.4,8.6 451.4,10.7 	"/>
	<polygon class="st0" points="451.4,14.3 451.4,16.4 451.4,18.6 451.4,20.7 451.4,20.7 451.4,22.8 443.5,22.8 443.5,18.6 
		446.7,18.6 446.7,20.7 448.9,20.7 448.9,18.6 448.9,16.4 446.7,16.4 443.5,16.4 441.3,16.4 441.3,18.6 441.3,22.8 441.3,24 
		441.3,25 454.6,25 454.6,22.8 458.4,22.8 458.4,20.7 462.7,20.7 462.7,18.6 466.7,18.6 466.7,16.4 470.5,16.4 470.5,14.3 	"/>
	<polygon class="st0" points="467.5,10.7 467.5,8.6 467.5,6.4 467.5,4.3 467.5,4.3 467.5,2.2 459.5,2.2 459.5,6.4 462.8,6.4 
		462.8,4.3 464.9,4.3 464.9,6.4 464.9,8.6 462.8,8.6 459.5,8.6 457.4,8.6 457.4,6.4 457.4,2.2 457.4,1 457.4,0 470.6,0 470.6,2.2 
		474.5,2.2 474.5,4.3 478.8,4.3 478.8,6.4 482.7,6.4 482.7,8.6 486.5,8.6 486.5,10.7 	"/>
	<polygon class="st0" points="486.6,14.3 486.6,16.4 486.6,18.6 486.6,20.7 486.6,20.7 486.6,22.8 478.6,22.8 478.6,18.6 
		481.9,18.6 481.9,20.7 484,20.7 484,18.6 484,16.4 481.9,16.4 478.6,16.4 476.5,16.4 476.5,18.6 476.5,22.8 476.5,24 476.5,25 
		489.7,25 489.7,22.8 493.6,22.8 493.6,20.7 497.9,20.7 497.9,18.6 501.8,18.6 501.8,16.4 505.6,16.4 505.6,14.3 	"/>
	<polygon class="st0" points="502.6,10.7 502.6,8.6 502.6,6.4 502.6,4.3 502.6,4.3 502.6,2.2 494.7,2.2 494.7,6.4 497.9,6.4 
		497.9,4.3 500.1,4.3 500.1,6.4 500.1,8.6 497.9,8.6 494.7,8.6 492.5,8.6 492.5,6.4 492.5,2.2 492.5,1 492.5,0 505.8,0 505.8,2.2 
		509.6,2.2 509.6,4.3 513.9,4.3 513.9,6.4 517.9,6.4 517.9,8.6 521.7,8.6 521.7,10.7 	"/>
	<polygon class="st0" points="521.7,14.3 521.7,16.4 521.7,18.6 521.7,20.7 521.7,20.7 521.7,22.8 513.7,22.8 513.7,18.6 517,18.6 
		517,20.7 519.2,20.7 519.2,18.6 519.2,16.4 517,16.4 513.7,16.4 511.6,16.4 511.6,18.6 511.6,22.8 511.6,24 511.6,25 524.9,25 
		524.9,22.8 528.7,22.8 528.7,20.7 533,20.7 533,18.6 536.9,18.6 536.9,16.4 540.7,16.4 540.7,14.3 	"/>
	<polygon class="st0" points="537.7,10.7 537.7,8.6 537.7,6.4 537.7,4.3 537.7,4.3 537.7,2.2 529.8,2.2 529.8,6.4 533,6.4 533,4.3 
		535.2,4.3 535.2,6.4 535.2,8.6 533,8.6 529.8,8.6 527.6,8.6 527.6,6.4 527.6,2.2 527.6,1 527.6,0 540.9,0 540.9,2.2 544.7,2.2 
		544.7,4.3 549,4.3 549,6.4 553,6.4 553,8.6 556.8,8.6 556.8,10.7 	"/>
	<polygon class="st0" points="556.8,14.3 556.8,16.4 556.8,18.6 556.8,20.7 556.8,20.7 556.8,22.8 548.9,22.8 548.9,18.6 
		552.1,18.6 552.1,20.7 554.3,20.7 554.3,18.6 554.3,16.4 552.1,16.4 548.9,16.4 546.7,16.4 546.7,18.6 546.7,22.8 546.7,24 
		546.7,25 560,25 560,22.8 563.8,22.8 563.8,20.7 568.1,20.7 568.1,18.6 572.1,18.6 572.1,16.4 575.9,16.4 575.9,14.3 	"/>
	<polygon class="st0" points="572.9,10.7 572.9,8.6 572.9,6.4 572.9,4.3 572.9,4.3 572.9,2.2 564.9,2.2 564.9,6.4 568.2,6.4 
		568.2,4.3 570.3,4.3 570.3,6.4 570.3,8.6 568.2,8.6 564.9,8.6 562.8,8.6 562.8,6.4 562.8,2.2 562.8,1 562.8,0 576,0 576,2.2 
		579.9,2.2 579.9,4.3 584.2,4.3 584.2,6.4 588.1,6.4 588.1,8.6 591.9,8.6 591.9,10.7 	"/>
	<polygon class="st0" points="592,14.3 592,16.4 592,18.6 592,20.7 592,20.7 592,22.8 584,22.8 584,18.6 587.3,18.6 587.3,20.7 
		589.4,20.7 589.4,18.6 589.4,16.4 587.3,16.4 584,16.4 581.8,16.4 581.8,18.6 581.8,22.8 581.8,24 581.8,25 595.1,25 595.1,22.8 
		599,22.8 599,20.7 603.2,20.7 603.2,18.6 607.2,18.6 607.2,16.4 611,16.4 611,14.3 	"/>
	<polygon class="st0" points="608,10.7 608,8.6 608,6.4 608,4.3 608,4.3 608,2.2 600,2.2 600,6.4 603.3,6.4 603.3,4.3 605.5,4.3 
		605.5,6.4 605.5,8.6 603.3,8.6 600,8.6 597.9,8.6 597.9,6.4 597.9,2.2 597.9,1 597.9,0 611.1,0 611.1,2.2 615,2.2 615,4.3 
		619.3,4.3 619.3,6.4 623.2,6.4 623.2,8.6 627,8.6 627,10.7 	"/>
	<polygon class="st0" points="627.1,14.3 627.1,16.4 627.1,18.6 627.1,20.7 627.1,20.7 627.1,22.8 619.1,22.8 619.1,18.6 
		622.4,18.6 622.4,20.7 624.5,20.7 624.5,18.6 624.5,16.4 622.4,16.4 619.1,16.4 617,16.4 617,18.6 617,22.8 617,24 617,25 
		630.2,25 630.2,22.8 634.1,22.8 634.1,20.7 638.4,20.7 638.4,18.6 642.3,18.6 642.3,16.4 646.1,16.4 646.1,14.3 	"/>
	<polygon class="st0" points="643.1,10.7 643.1,8.6 643.1,6.4 643.1,4.3 643.1,4.3 643.1,2.2 635.2,2.2 635.2,6.4 638.4,6.4 
		638.4,4.3 640.6,4.3 640.6,6.4 640.6,8.6 638.4,8.6 635.2,8.6 633,8.6 633,6.4 633,2.2 633,1 633,0 646.3,0 646.3,2.2 650.1,2.2 
		650.1,4.3 654.4,4.3 654.4,6.4 658.4,6.4 658.4,8.6 662.2,8.6 662.2,10.7 	"/>
	<polygon class="st0" points="662.2,14.3 662.2,16.4 662.2,18.6 662.2,20.7 662.2,20.7 662.2,22.8 654.3,22.8 654.3,18.6 
		657.5,18.6 657.5,20.7 659.7,20.7 659.7,18.6 659.7,16.4 657.5,16.4 654.3,16.4 652.1,16.4 652.1,18.6 652.1,22.8 652.1,24 
		652.1,25 665.4,25 665.4,22.8 669.2,22.8 669.2,20.7 673.5,20.7 673.5,18.6 677.4,18.6 677.4,16.4 681.3,16.4 681.3,14.3 	"/>
	<polygon class="st0" points="678.2,10.7 678.2,8.6 678.2,6.4 678.2,4.3 678.2,4.3 678.2,2.2 670.3,2.2 670.3,6.4 673.6,6.4 
		673.6,4.3 675.7,4.3 675.7,6.4 675.7,8.6 673.6,8.6 670.3,8.6 668.1,8.6 668.1,6.4 668.1,2.2 668.1,1 668.1,0 681.4,0 681.4,2.2 
		685.3,2.2 685.3,4.3 689.5,4.3 689.5,6.4 693.5,6.4 693.5,8.6 697.3,8.6 697.3,10.7 	"/>
	<polygon class="st0" points="697.3,14.3 697.3,16.4 697.3,18.6 697.3,20.7 697.3,20.7 697.3,22.8 689.4,22.8 689.4,18.6 
		692.6,18.6 692.6,20.7 694.8,20.7 694.8,18.6 694.8,16.4 692.6,16.4 689.4,16.4 687.2,16.4 687.2,18.6 687.2,22.8 687.2,24 
		687.2,25 700.5,25 700.5,22.8 704.3,22.8 704.3,20.7 708.6,20.7 708.6,18.6 712.6,18.6 712.6,16.4 716.4,16.4 716.4,14.3 	"/>
	<polygon class="st0" points="713.4,10.7 713.4,8.6 713.4,6.4 713.4,4.3 713.4,4.3 713.4,2.2 705.4,2.2 705.4,6.4 708.7,6.4 
		708.7,4.3 710.8,4.3 710.8,6.4 710.8,8.6 708.7,8.6 705.4,8.6 703.3,8.6 703.3,6.4 703.3,2.2 703.3,1 703.3,0 716.5,0 716.5,2.2 
		720.4,2.2 720.4,4.3 724.7,4.3 724.7,6.4 728.6,6.4 728.6,8.6 732.4,8.6 732.4,10.7 	"/>
	<polygon class="st0" points="732.5,14.3 732.5,16.4 732.5,18.6 732.5,20.7 732.5,20.7 732.5,22.8 724.5,22.8 724.5,18.6 
		727.8,18.6 727.8,20.7 729.9,20.7 729.9,18.6 729.9,16.4 727.8,16.4 724.5,16.4 722.4,16.4 722.4,18.6 722.4,22.8 722.4,24 
		722.4,25 735.6,25 735.6,22.8 739.5,22.8 739.5,20.7 743.8,20.7 743.8,18.6 747.7,18.6 747.7,16.4 751.5,16.4 751.5,14.3 	"/>
	<polygon class="st0" points="748.5,10.7 748.5,8.6 748.5,6.4 748.5,4.3 748.5,4.3 748.5,2.2 740.6,2.2 740.6,6.4 743.8,6.4 
		743.8,4.3 746,4.3 746,6.4 746,8.6 743.8,8.6 740.6,8.6 738.4,8.6 738.4,6.4 738.4,2.2 738.4,1 738.4,0 751.7,0 751.7,2.2 
		755.5,2.2 755.5,4.3 759.8,4.3 759.8,6.4 763.7,6.4 763.7,8.6 767.6,8.6 767.6,10.7 	"/>
	<polygon class="st0" points="767.6,14.3 767.6,16.4 767.6,18.6 767.6,20.7 767.6,20.7 767.6,22.8 759.6,22.8 759.6,18.6 
		762.9,18.6 762.9,20.7 765,20.7 765,18.6 765,16.4 762.9,16.4 759.6,16.4 757.5,16.4 757.5,18.6 757.5,22.8 757.5,24 757.5,25 
		770.7,25 770.7,22.8 774.6,22.8 774.6,20.7 778.9,20.7 778.9,18.6 782.8,18.6 782.8,16.4 786.6,16.4 786.6,14.3 	"/>
	<polygon class="st0" points="783.6,10.7 783.6,8.6 783.6,6.4 783.6,4.3 783.6,4.3 783.6,2.2 775.7,2.2 775.7,6.4 778.9,6.4 
		778.9,4.3 781.1,4.3 781.1,6.4 781.1,8.6 778.9,8.6 775.7,8.6 773.5,8.6 773.5,6.4 773.5,2.2 773.5,1 773.5,0 786.8,0 786.8,2.2 
		790.6,2.2 790.6,4.3 794.9,4.3 794.9,6.4 798.9,6.4 798.9,8.6 802.7,8.6 802.7,10.7 	"/>
	<polygon class="st0" points="802.7,14.3 802.7,16.4 802.7,18.6 802.7,20.7 802.7,20.7 802.7,22.8 794.8,22.8 794.8,18.6 798,18.6 
		798,20.7 800.2,20.7 800.2,18.6 800.2,16.4 798,16.4 794.8,16.4 792.6,16.4 792.6,18.6 792.6,22.8 792.6,24 792.6,25 805.9,25 
		805.9,22.8 809.7,22.8 809.7,20.7 814,20.7 814,18.6 818,18.6 818,16.4 821.8,16.4 821.8,14.3 	"/>
	<polygon class="st0" points="818.8,10.7 818.8,8.6 818.8,6.4 818.8,4.3 818.8,4.3 818.8,2.2 810.8,2.2 810.8,6.4 814.1,6.4 
		814.1,4.3 816.2,4.3 816.2,6.4 816.2,8.6 814.1,8.6 810.8,8.6 808.7,8.6 808.7,6.4 808.7,2.2 808.7,1 808.7,0 821.9,0 821.9,2.2 
		825.8,2.2 825.8,4.3 830.1,4.3 830.1,6.4 834,6.4 834,8.6 837.8,8.6 837.8,10.7 	"/>
	<polygon class="st0" points="10.8,38.4 10.8,36.3 10.8,34.1 10.8,32 10.8,32 10.8,29.9 2.9,29.9 2.9,34.1 6.1,34.1 6.1,32 8.3,32 
		8.3,34.1 8.3,36.3 6.1,36.3 2.9,36.3 0.7,36.3 0.7,34.1 0.7,29.9 0.7,28.7 0.7,27.7 14,27.7 14,29.9 17.8,29.9 17.8,32 22.1,32 
		22.1,34.1 26.1,34.1 26.1,36.3 29.9,36.3 29.9,38.4 	"/>
	<polygon class="st0" points="46,38.4 46,36.3 46,34.1 46,32 46,32 46,29.9 38,29.9 38,34.1 41.3,34.1 41.3,32 43.4,32 43.4,34.1 
		43.4,36.3 41.3,36.3 38,36.3 35.8,36.3 35.8,34.1 35.8,29.9 35.8,28.7 35.8,27.7 49.1,27.7 49.1,29.9 53,29.9 53,32 57.2,32 
		57.2,34.1 61.2,34.1 61.2,36.3 65,36.3 65,38.4 	"/>
	<polygon class="st0" points="81.1,38.4 81.1,36.3 81.1,34.1 81.1,32 81.1,32 81.1,29.9 73.1,29.9 73.1,34.1 76.4,34.1 76.4,32 
		78.5,32 78.5,34.1 78.5,36.3 76.4,36.3 73.1,36.3 71,36.3 71,34.1 71,29.9 71,28.7 71,27.7 84.2,27.7 84.2,29.9 88.1,29.9 88.1,32 
		92.4,32 92.4,34.1 96.3,34.1 96.3,36.3 100.1,36.3 100.1,38.4 	"/>
	<polygon class="st0" points="116.2,38.4 116.2,36.3 116.2,34.1 116.2,32 116.2,32 116.2,29.9 108.3,29.9 108.3,34.1 111.5,34.1 
		111.5,32 113.7,32 113.7,34.1 113.7,36.3 111.5,36.3 108.3,36.3 106.1,36.3 106.1,34.1 106.1,29.9 106.1,28.7 106.1,27.7 
		119.4,27.7 119.4,29.9 123.2,29.9 123.2,32 127.5,32 127.5,34.1 131.4,34.1 131.4,36.3 135.3,36.3 135.3,38.4 	"/>
	<polygon class="st0" points="151.3,38.4 151.3,36.3 151.3,34.1 151.3,32 151.3,32 151.3,29.9 143.4,29.9 143.4,34.1 146.6,34.1 
		146.6,32 148.8,32 148.8,34.1 148.8,36.3 146.6,36.3 143.4,36.3 141.2,36.3 141.2,34.1 141.2,29.9 141.2,28.7 141.2,27.7 
		154.5,27.7 154.5,29.9 158.3,29.9 158.3,32 162.6,32 162.6,34.1 166.6,34.1 166.6,36.3 170.4,36.3 170.4,38.4 	"/>
	<polygon class="st0" points="186.5,38.4 186.5,36.3 186.5,34.1 186.5,32 186.5,32 186.5,29.9 178.5,29.9 178.5,34.1 181.8,34.1 
		181.8,32 183.9,32 183.9,34.1 183.9,36.3 181.8,36.3 178.5,36.3 176.4,36.3 176.4,34.1 176.4,29.9 176.4,28.7 176.4,27.7 
		189.6,27.7 189.6,29.9 193.5,29.9 193.5,32 197.8,32 197.8,34.1 201.7,34.1 201.7,36.3 205.5,36.3 205.5,38.4 	"/>
	<polygon class="st0" points="221.6,38.4 221.6,36.3 221.6,34.1 221.6,32 221.6,32 221.6,29.9 213.6,29.9 213.6,34.1 216.9,34.1 
		216.9,32 219,32 219,34.1 219,36.3 216.9,36.3 213.6,36.3 211.5,36.3 211.5,34.1 211.5,29.9 211.5,28.7 211.5,27.7 224.7,27.7 
		224.7,29.9 228.6,29.9 228.6,32 232.9,32 232.9,34.1 236.8,34.1 236.8,36.3 240.6,36.3 240.6,38.4 	"/>
	<polygon class="st0" points="256.7,38.4 256.7,36.3 256.7,34.1 256.7,32 256.7,32 256.7,29.9 248.8,29.9 248.8,34.1 252,34.1 
		252,32 254.2,32 254.2,34.1 254.2,36.3 252,36.3 248.8,36.3 246.6,36.3 246.6,34.1 246.6,29.9 246.6,28.7 246.6,27.7 259.9,27.7 
		259.9,29.9 263.7,29.9 263.7,32 268,32 268,34.1 272,34.1 272,36.3 275.8,36.3 275.8,38.4 	"/>
	<polygon class="st0" points="291.8,38.4 291.8,36.3 291.8,34.1 291.8,32 291.8,32 291.8,29.9 283.9,29.9 283.9,34.1 287.2,34.1 
		287.2,32 289.3,32 289.3,34.1 289.3,36.3 287.2,36.3 283.9,36.3 281.7,36.3 281.7,34.1 281.7,29.9 281.7,28.7 281.7,27.7 295,27.7 
		295,29.9 298.8,29.9 298.8,32 303.1,32 303.1,34.1 307.1,34.1 307.1,36.3 310.9,36.3 310.9,38.4 	"/>
	<polygon class="st0" points="327,38.4 327,36.3 327,34.1 327,32 327,32 327,29.9 319,29.9 319,34.1 322.3,34.1 322.3,32 324.4,32 
		324.4,34.1 324.4,36.3 322.3,36.3 319,36.3 316.9,36.3 316.9,34.1 316.9,29.9 316.9,28.7 316.9,27.7 330.1,27.7 330.1,29.9 
		334,29.9 334,32 338.3,32 338.3,34.1 342.2,34.1 342.2,36.3 346,36.3 346,38.4 	"/>
	<polygon class="st0" points="362.1,38.4 362.1,36.3 362.1,34.1 362.1,32 362.1,32 362.1,29.9 354.1,29.9 354.1,34.1 357.4,34.1 
		357.4,32 359.6,32 359.6,34.1 359.6,36.3 357.4,36.3 354.1,36.3 352,36.3 352,34.1 352,29.9 352,28.7 352,27.7 365.3,27.7 
		365.3,29.9 369.1,29.9 369.1,32 373.4,32 373.4,34.1 377.3,34.1 377.3,36.3 381.1,36.3 381.1,38.4 	"/>
	<polygon class="st0" points="397.2,38.4 397.2,36.3 397.2,34.1 397.2,32 397.2,32 397.2,29.9 389.3,29.9 389.3,34.1 392.5,34.1 
		392.5,32 394.7,32 394.7,34.1 394.7,36.3 392.5,36.3 389.3,36.3 387.1,36.3 387.1,34.1 387.1,29.9 387.1,28.7 387.1,27.7 
		400.4,27.7 400.4,29.9 404.2,29.9 404.2,32 408.5,32 408.5,34.1 412.5,34.1 412.5,36.3 416.3,36.3 416.3,38.4 	"/>
	<polygon class="st0" points="432.4,38.4 432.4,36.3 432.4,34.1 432.4,32 432.4,32 432.4,29.9 424.4,29.9 424.4,34.1 427.7,34.1 
		427.7,32 429.8,32 429.8,34.1 429.8,36.3 427.7,36.3 424.4,36.3 422.3,36.3 422.3,34.1 422.3,29.9 422.3,28.7 422.3,27.7 
		435.5,27.7 435.5,29.9 439.4,29.9 439.4,32 443.7,32 443.7,34.1 447.6,34.1 447.6,36.3 451.4,36.3 451.4,38.4 	"/>
	<polygon class="st0" points="467.5,38.4 467.5,36.3 467.5,34.1 467.5,32 467.5,32 467.5,29.9 459.5,29.9 459.5,34.1 462.8,34.1 
		462.8,32 464.9,32 464.9,34.1 464.9,36.3 462.8,36.3 459.5,36.3 457.4,36.3 457.4,34.1 457.4,29.9 457.4,28.7 457.4,27.7 
		470.6,27.7 470.6,29.9 474.5,29.9 474.5,32 478.8,32 478.8,34.1 482.7,34.1 482.7,36.3 486.5,36.3 486.5,38.4 	"/>
	<polygon class="st0" points="502.6,38.4 502.6,36.3 502.6,34.1 502.6,32 502.6,32 502.6,29.9 494.7,29.9 494.7,34.1 497.9,34.1 
		497.9,32 500.1,32 500.1,34.1 500.1,36.3 497.9,36.3 494.7,36.3 492.5,36.3 492.5,34.1 492.5,29.9 492.5,28.7 492.5,27.7 
		505.8,27.7 505.8,29.9 509.6,29.9 509.6,32 513.9,32 513.9,34.1 517.9,34.1 517.9,36.3 521.7,36.3 521.7,38.4 	"/>
	<polygon class="st0" points="537.7,38.4 537.7,36.3 537.7,34.1 537.7,32 537.7,32 537.7,29.9 529.8,29.9 529.8,34.1 533,34.1 
		533,32 535.2,32 535.2,34.1 535.2,36.3 533,36.3 529.8,36.3 527.6,36.3 527.6,34.1 527.6,29.9 527.6,28.7 527.6,27.7 540.9,27.7 
		540.9,29.9 544.7,29.9 544.7,32 549,32 549,34.1 553,34.1 553,36.3 556.8,36.3 556.8,38.4 	"/>
	<polygon class="st0" points="572.9,38.4 572.9,36.3 572.9,34.1 572.9,32 572.9,32 572.9,29.9 564.9,29.9 564.9,34.1 568.2,34.1 
		568.2,32 570.3,32 570.3,34.1 570.3,36.3 568.2,36.3 564.9,36.3 562.8,36.3 562.8,34.1 562.8,29.9 562.8,28.7 562.8,27.7 576,27.7 
		576,29.9 579.9,29.9 579.9,32 584.2,32 584.2,34.1 588.1,34.1 588.1,36.3 591.9,36.3 591.9,38.4 	"/>
	<polygon class="st0" points="608,38.4 608,36.3 608,34.1 608,32 608,32 608,29.9 600,29.9 600,34.1 603.3,34.1 603.3,32 605.5,32 
		605.5,34.1 605.5,36.3 603.3,36.3 600,36.3 597.9,36.3 597.9,34.1 597.9,29.9 597.9,28.7 597.9,27.7 611.1,27.7 611.1,29.9 
		615,29.9 615,32 619.3,32 619.3,34.1 623.2,34.1 623.2,36.3 627,36.3 627,38.4 	"/>
	<polygon class="st0" points="643.1,38.4 643.1,36.3 643.1,34.1 643.1,32 643.1,32 643.1,29.9 635.2,29.9 635.2,34.1 638.4,34.1 
		638.4,32 640.6,32 640.6,34.1 640.6,36.3 638.4,36.3 635.2,36.3 633,36.3 633,34.1 633,29.9 633,28.7 633,27.7 646.3,27.7 
		646.3,29.9 650.1,29.9 650.1,32 654.4,32 654.4,34.1 658.4,34.1 658.4,36.3 662.2,36.3 662.2,38.4 	"/>
	<polygon class="st0" points="678.2,38.4 678.2,36.3 678.2,34.1 678.2,32 678.2,32 678.2,29.9 670.3,29.9 670.3,34.1 673.6,34.1 
		673.6,32 675.7,32 675.7,34.1 675.7,36.3 673.6,36.3 670.3,36.3 668.1,36.3 668.1,34.1 668.1,29.9 668.1,28.7 668.1,27.7 
		681.4,27.7 681.4,29.9 685.3,29.9 685.3,32 689.5,32 689.5,34.1 693.5,34.1 693.5,36.3 697.3,36.3 697.3,38.4 	"/>
	<polygon class="st0" points="713.4,38.4 713.4,36.3 713.4,34.1 713.4,32 713.4,32 713.4,29.9 705.4,29.9 705.4,34.1 708.7,34.1 
		708.7,32 710.8,32 710.8,34.1 710.8,36.3 708.7,36.3 705.4,36.3 703.3,36.3 703.3,34.1 703.3,29.9 703.3,28.7 703.3,27.7 
		716.5,27.7 716.5,29.9 720.4,29.9 720.4,32 724.7,32 724.7,34.1 728.6,34.1 728.6,36.3 732.4,36.3 732.4,38.4 	"/>
	<polygon class="st0" points="748.5,38.4 748.5,36.3 748.5,34.1 748.5,32 748.5,32 748.5,29.9 740.6,29.9 740.6,34.1 743.8,34.1 
		743.8,32 746,32 746,34.1 746,36.3 743.8,36.3 740.6,36.3 738.4,36.3 738.4,34.1 738.4,29.9 738.4,28.7 738.4,27.7 751.7,27.7 
		751.7,29.9 755.5,29.9 755.5,32 759.8,32 759.8,34.1 763.7,34.1 763.7,36.3 767.6,36.3 767.6,38.4 	"/>
	<polygon class="st0" points="783.6,38.4 783.6,36.3 783.6,34.1 783.6,32 783.6,32 783.6,29.9 775.7,29.9 775.7,34.1 778.9,34.1 
		778.9,32 781.1,32 781.1,34.1 781.1,36.3 778.9,36.3 775.7,36.3 773.5,36.3 773.5,34.1 773.5,29.9 773.5,28.7 773.5,27.7 
		786.8,27.7 786.8,29.9 790.6,29.9 790.6,32 794.9,32 794.9,34.1 798.9,34.1 798.9,36.3 802.7,36.3 802.7,38.4 	"/>
	<polygon class="st0" points="818.8,38.4 818.8,36.3 818.8,34.1 818.8,32 818.8,32 818.8,29.9 810.8,29.9 810.8,34.1 814.1,34.1 
		814.1,32 816.2,32 816.2,34.1 816.2,36.3 814.1,36.3 810.8,36.3 808.7,36.3 808.7,34.1 808.7,29.9 808.7,28.7 808.7,27.7 
		821.9,27.7 821.9,29.9 825.8,29.9 825.8,32 830.1,32 830.1,34.1 834,34.1 834,36.3 837.8,36.3 837.8,38.4 	"/>
	<polygon class="st0" points="837.8,14.3 837.8,16.4 837.8,18.6 837.8,20.7 837.8,20.7 837.8,22.8 829.9,22.8 829.9,18.6 
		833.2,18.6 833.2,20.7 835.3,20.7 835.3,18.6 835.3,16.4 833.2,16.4 829.9,16.4 827.7,16.4 827.7,18.6 827.7,22.8 827.7,24 
		827.7,25 841,25 841,22.8 844.9,22.8 844.9,20.7 849.1,20.7 849.1,18.6 853.1,18.6 853.1,16.4 856.9,16.4 856.9,14.3 	"/>
	<polygon class="st0" points="853.9,10.7 853.9,8.6 853.9,6.4 853.9,4.3 853.9,4.3 853.9,2.2 845.9,2.2 845.9,6.4 849.2,6.4 
		849.2,4.3 851.3,4.3 851.3,6.4 851.3,8.6 849.2,8.6 845.9,8.6 843.8,8.6 843.8,6.4 843.8,2.2 843.8,1 843.8,0 857,0 857,2.2 
		860.9,2.2 860.9,4.3 865.2,4.3 865.2,6.4 869.1,6.4 869.1,8.6 872.9,8.6 872.9,10.7 	"/>
	<polygon class="st0" points="873,14.3 873,16.4 873,18.6 873,20.7 873,20.7 873,22.8 865,22.8 865,18.6 868.3,18.6 868.3,20.7 
		870.4,20.7 870.4,18.6 870.4,16.4 868.3,16.4 865,16.4 862.9,16.4 862.9,18.6 862.9,22.8 862.9,24 862.9,25 876.1,25 876.1,22.8 
		880,22.8 880,20.7 884.3,20.7 884.3,18.6 888.2,18.6 888.2,16.4 892,16.4 892,14.3 	"/>
	<polygon class="st0" points="889,10.7 889,8.6 889,6.4 889,4.3 889,4.3 889,2.2 881.1,2.2 881.1,6.4 884.3,6.4 884.3,4.3 
		886.5,4.3 886.5,6.4 886.5,8.6 884.3,8.6 881.1,8.6 878.9,8.6 878.9,6.4 878.9,2.2 878.9,1 878.9,0 892.2,0 892.2,2.2 896,2.2 
		896,4.3 900.3,4.3 900.3,6.4 904.3,6.4 904.3,8.6 908.1,8.6 908.1,10.7 	"/>
	<polygon class="st0" points="908.1,14.3 908.1,16.4 908.1,18.6 908.1,20.7 908.1,20.7 908.1,22.8 900.1,22.8 900.1,18.6 
		903.4,18.6 903.4,20.7 905.6,20.7 905.6,18.6 905.6,16.4 903.4,16.4 900.1,16.4 898,16.4 898,18.6 898,22.8 898,24 898,25 
		911.3,25 911.3,22.8 915.1,22.8 915.1,20.7 919.4,20.7 919.4,18.6 923.3,18.6 923.3,16.4 927.1,16.4 927.1,14.3 	"/>
	<polygon class="st0" points="924.1,10.7 924.1,8.6 924.1,6.4 924.1,4.3 924.1,4.3 924.1,2.2 916.2,2.2 916.2,6.4 919.4,6.4 
		919.4,4.3 921.6,4.3 921.6,6.4 921.6,8.6 919.4,8.6 916.2,8.6 914,8.6 914,6.4 914,2.2 914,1 914,0 927.3,0 927.3,2.2 931.1,2.2 
		931.1,4.3 935.4,4.3 935.4,6.4 939.4,6.4 939.4,8.6 943.2,8.6 943.2,10.7 	"/>
	<polygon class="st0" points="943.2,14.3 943.2,16.4 943.2,18.6 943.2,20.7 943.2,20.7 943.2,22.8 935.3,22.8 935.3,18.6 
		938.5,18.6 938.5,20.7 940.7,20.7 940.7,18.6 940.7,16.4 938.5,16.4 935.3,16.4 933.1,16.4 933.1,18.6 933.1,22.8 933.1,24 
		933.1,25 946.4,25 946.4,22.8 950.2,22.8 950.2,20.7 954.5,20.7 954.5,18.6 958.5,18.6 958.5,16.4 962.3,16.4 962.3,14.3 	"/>
	<polygon class="st0" points="959.3,10.7 959.3,8.6 959.3,6.4 959.3,4.3 959.3,4.3 959.3,2.2 951.3,2.2 951.3,6.4 954.6,6.4 
		954.6,4.3 956.7,4.3 956.7,6.4 956.7,8.6 954.6,8.6 951.3,8.6 949.2,8.6 949.2,6.4 949.2,2.2 949.2,1 949.2,0 962.4,0 962.4,2.2 
		966.3,2.2 966.3,4.3 970.6,4.3 970.6,6.4 974.5,6.4 974.5,8.6 978.3,8.6 978.3,10.7 	"/>
	<polygon class="st0" points="978.4,14.3 978.4,16.4 978.4,18.6 978.4,20.7 978.4,20.7 978.4,22.8 970.4,22.8 970.4,18.6 
		973.7,18.6 973.7,20.7 975.8,20.7 975.8,18.6 975.8,16.4 973.7,16.4 970.4,16.4 968.3,16.4 968.3,18.6 968.3,22.8 968.3,24 
		968.3,25 981.5,25 981.5,22.8 985.4,22.8 985.4,20.7 989.7,20.7 989.7,18.6 993.6,18.6 993.6,16.4 997.4,16.4 997.4,14.3 	"/>
	<polygon class="st0" points="994.4,10.7 994.4,8.6 994.4,6.4 994.4,4.3 994.4,4.3 994.4,2.2 986.4,2.2 986.4,6.4 989.7,6.4 
		989.7,4.3 991.9,4.3 991.9,6.4 991.9,8.6 989.7,8.6 986.4,8.6 984.3,8.6 984.3,6.4 984.3,2.2 984.3,1 984.3,0 997.6,0 997.6,2.2 
		1001.4,2.2 1001.4,4.3 1005.7,4.3 1005.7,6.4 1009.6,6.4 1009.6,8.6 1013.4,8.6 1013.4,10.7 	"/>
	<polygon class="st0" points="1013.5,14.3 1013.5,16.4 1013.5,18.6 1013.5,20.7 1013.5,20.7 1013.5,22.8 1005.5,22.8 1005.5,18.6 
		1008.8,18.6 1008.8,20.7 1010.9,20.7 1010.9,18.6 1010.9,16.4 1008.8,16.4 1005.5,16.4 1003.4,16.4 1003.4,18.6 1003.4,22.8 
		1003.4,24 1003.4,25 1016.6,25 1016.6,22.8 1020.5,22.8 1020.5,20.7 1024.8,20.7 1024.8,18.6 1028.7,18.6 1028.7,16.4 1032.5,16.4 
		1032.5,14.3 	"/>
	<polygon class="st0" points="1029.5,10.7 1029.5,8.6 1029.5,6.4 1029.5,4.3 1029.5,4.3 1029.5,2.2 1021.6,2.2 1021.6,6.4 
		1024.8,6.4 1024.8,4.3 1027,4.3 1027,6.4 1027,8.6 1024.8,8.6 1021.6,8.6 1019.4,8.6 1019.4,6.4 1019.4,2.2 1019.4,1 1019.4,0 
		1032.7,0 1032.7,2.2 1036.5,2.2 1036.5,4.3 1040.8,4.3 1040.8,6.4 1044.8,6.4 1044.8,8.6 1048.6,8.6 1048.6,10.7 	"/>
	<polygon class="st0" points="1048.6,14.3 1048.6,16.4 1048.6,18.6 1048.6,20.7 1048.6,20.7 1048.6,22.8 1040.7,22.8 1040.7,18.6 
		1043.9,18.6 1043.9,20.7 1046.1,20.7 1046.1,18.6 1046.1,16.4 1043.9,16.4 1040.7,16.4 1038.5,16.4 1038.5,18.6 1038.5,22.8 
		1038.5,24 1038.5,25 1051.8,25 1051.8,22.8 1055.6,22.8 1055.6,20.7 1059.9,20.7 1059.9,18.6 1063.9,18.6 1063.9,16.4 1067.7,16.4 
		1067.7,14.3 	"/>
	<polygon class="st0" points="1064.7,10.7 1064.7,8.6 1064.7,6.4 1064.7,4.3 1064.7,4.3 1064.7,2.2 1056.7,2.2 1056.7,6.4 1060,6.4 
		1060,4.3 1062.1,4.3 1062.1,6.4 1062.1,8.6 1060,8.6 1056.7,8.6 1054.5,8.6 1054.5,6.4 1054.5,2.2 1054.5,1 1054.5,0 1067.8,0 
		1067.8,2.2 1071.7,2.2 1071.7,4.3 1075.9,4.3 1075.9,6.4 1079.9,6.4 1079.9,8.6 1083.7,8.6 1083.7,10.7 	"/>
	<polygon class="st0" points="1083.7,14.3 1083.7,16.4 1083.7,18.6 1083.7,20.7 1083.7,20.7 1083.7,22.8 1075.8,22.8 1075.8,18.6 
		1079,18.6 1079,20.7 1081.2,20.7 1081.2,18.6 1081.2,16.4 1079,16.4 1075.8,16.4 1073.6,16.4 1073.6,18.6 1073.6,22.8 1073.6,24 
		1073.6,25 1086.9,25 1086.9,22.8 1090.7,22.8 1090.7,20.7 1095,20.7 1095,18.6 1099,18.6 1099,16.4 1102.8,16.4 1102.8,14.3 	"/>
	<polygon class="st0" points="1099.8,10.7 1099.8,8.6 1099.8,6.4 1099.8,4.3 1099.8,4.3 1099.8,2.2 1091.8,2.2 1091.8,6.4 
		1095.1,6.4 1095.1,4.3 1097.2,4.3 1097.2,6.4 1097.2,8.6 1095.1,8.6 1091.8,8.6 1089.7,8.6 1089.7,6.4 1089.7,2.2 1089.7,1 
		1089.7,0 1102.9,0 1102.9,2.2 1106.8,2.2 1106.8,4.3 1111.1,4.3 1111.1,6.4 1115,6.4 1115,8.6 1118.8,8.6 1118.8,10.7 	"/>
	<polygon class="st0" points="1118.9,14.3 1118.9,16.4 1118.9,18.6 1118.9,20.7 1118.9,20.7 1118.9,22.8 1110.9,22.8 1110.9,18.6 
		1114.2,18.6 1114.2,20.7 1116.3,20.7 1116.3,18.6 1116.3,16.4 1114.2,16.4 1110.9,16.4 1108.8,16.4 1108.8,18.6 1108.8,22.8 
		1108.8,24 1108.8,25 1122,25 1122,22.8 1125.9,22.8 1125.9,20.7 1130.2,20.7 1130.2,18.6 1134.1,18.6 1134.1,16.4 1137.9,16.4 
		1137.9,14.3 	"/>
	<polygon class="st0" points="1134.9,10.7 1134.9,8.6 1134.9,6.4 1134.9,4.3 1134.9,4.3 1134.9,2.2 1127,2.2 1127,6.4 1130.2,6.4 
		1130.2,4.3 1132.4,4.3 1132.4,6.4 1132.4,8.6 1130.2,8.6 1127,8.6 1124.8,8.6 1124.8,6.4 1124.8,2.2 1124.8,1 1124.8,0 1138.1,0 
		1138.1,2.2 1141.9,2.2 1141.9,4.3 1146.2,4.3 1146.2,6.4 1150.1,6.4 1150.1,8.6 1154,8.6 1154,10.7 	"/>
	<polygon class="st0" points="1154,14.3 1154,16.4 1154,18.6 1154,20.7 1154,20.7 1154,22.8 1146,22.8 1146,18.6 1149.3,18.6 
		1149.3,20.7 1151.5,20.7 1151.5,18.6 1151.5,16.4 1149.3,16.4 1146,16.4 1143.9,16.4 1143.9,18.6 1143.9,22.8 1143.9,24 1143.9,25 
		1157.2,25 1157.2,22.8 1161,22.8 1161,20.7 1165.3,20.7 1165.3,18.6 1169.2,18.6 1169.2,16.4 1173,16.4 1173,14.3 	"/>
	<polygon class="st0" points="1170,10.7 1170,8.6 1170,6.4 1170,4.3 1170,4.3 1170,2.2 1162.1,2.2 1162.1,6.4 1165.3,6.4 
		1165.3,4.3 1167.5,4.3 1167.5,6.4 1167.5,8.6 1165.3,8.6 1162.1,8.6 1159.9,8.6 1159.9,6.4 1159.9,2.2 1159.9,1 1159.9,0 1173.2,0 
		1173.2,2.2 1177,2.2 1177,4.3 1181.3,4.3 1181.3,6.4 1185.3,6.4 1185.3,8.6 1189.1,8.6 1189.1,10.7 	"/>
	<polygon class="st0" points="1189.1,14.3 1189.1,16.4 1189.1,18.6 1189.1,20.7 1189.1,20.7 1189.1,22.8 1181.2,22.8 1181.2,18.6 
		1184.4,18.6 1184.4,20.7 1186.6,20.7 1186.6,18.6 1186.6,16.4 1184.4,16.4 1181.2,16.4 1179,16.4 1179,18.6 1179,22.8 1179,24 
		1179,25 1192.3,25 1192.3,22.8 1196.1,22.8 1196.1,20.7 1200.4,20.7 1200.4,18.6 1204.4,18.6 1204.4,16.4 1208.2,16.4 1208.2,14.3 
			"/>
	<polygon class="st0" points="1205.2,10.7 1205.2,8.6 1205.2,6.4 1205.2,4.3 1205.2,4.3 1205.2,2.2 1197.2,2.2 1197.2,6.4 
		1200.5,6.4 1200.5,4.3 1202.6,4.3 1202.6,6.4 1202.6,8.6 1200.5,8.6 1197.2,8.6 1195.1,8.6 1195.1,6.4 1195.1,2.2 1195.1,1 
		1195.1,0 1208.3,0 1208.3,2.2 1212.2,2.2 1212.2,4.3 1216.5,4.3 1216.5,6.4 1220.4,6.4 1220.4,8.6 1224.2,8.6 1224.2,10.7 	"/>
	<polygon class="st0" points="1224.3,14.3 1224.3,16.4 1224.3,18.6 1224.3,20.7 1224.3,20.7 1224.3,22.8 1216.3,22.8 1216.3,18.6 
		1219.6,18.6 1219.6,20.7 1221.7,20.7 1221.7,18.6 1221.7,16.4 1219.6,16.4 1216.3,16.4 1214.1,16.4 1214.1,18.6 1214.1,22.8 
		1214.1,24 1214.1,25 1227.4,25 1227.4,22.8 1231.3,22.8 1231.3,20.7 1235.5,20.7 1235.5,18.6 1239.5,18.6 1239.5,16.4 1243.3,16.4 
		1243.3,14.3 	"/>
	<polygon class="st0" points="1240.3,10.7 1240.3,8.6 1240.3,6.4 1240.3,4.3 1240.3,4.3 1240.3,2.2 1232.3,2.2 1232.3,6.4 
		1235.6,6.4 1235.6,4.3 1237.7,4.3 1237.7,6.4 1237.7,8.6 1235.6,8.6 1232.3,8.6 1230.2,8.6 1230.2,6.4 1230.2,2.2 1230.2,1 
		1230.2,0 1243.4,0 1243.4,2.2 1247.3,2.2 1247.3,4.3 1251.6,4.3 1251.6,6.4 1255.5,6.4 1255.5,8.6 1259.3,8.6 1259.3,10.7 	"/>
	<polygon class="st0" points="1259.4,14.3 1259.4,16.4 1259.4,18.6 1259.4,20.7 1259.4,20.7 1259.4,22.8 1251.4,22.8 1251.4,18.6 
		1254.7,18.6 1254.7,20.7 1256.8,20.7 1256.8,18.6 1256.8,16.4 1254.7,16.4 1251.4,16.4 1249.3,16.4 1249.3,18.6 1249.3,22.8 
		1249.3,24 1249.3,25 1262.5,25 1262.5,22.8 1266.4,22.8 1266.4,20.7 1270.7,20.7 1270.7,18.6 1274.6,18.6 1274.6,16.4 1278.4,16.4 
		1278.4,14.3 	"/>
	<polygon class="st0" points="1275.4,10.7 1275.4,8.6 1275.4,6.4 1275.4,4.3 1275.4,4.3 1275.4,2.2 1267.5,2.2 1267.5,6.4 
		1270.7,6.4 1270.7,4.3 1272.9,4.3 1272.9,6.4 1272.9,8.6 1270.7,8.6 1267.5,8.6 1265.3,8.6 1265.3,6.4 1265.3,2.2 1265.3,1 
		1265.3,0 1278.6,0 1278.6,2.2 1282.4,2.2 1282.4,4.3 1286.7,4.3 1286.7,6.4 1290.7,6.4 1290.7,8.6 1294.5,8.6 1294.5,10.7 	"/>
	<polygon class="st0" points="1294.5,14.3 1294.5,16.4 1294.5,18.6 1294.5,20.7 1294.5,20.7 1294.5,22.8 1286.6,22.8 1286.6,18.6 
		1289.8,18.6 1289.8,20.7 1292,20.7 1292,18.6 1292,16.4 1289.8,16.4 1286.6,16.4 1284.4,16.4 1284.4,18.6 1284.4,22.8 1284.4,24 
		1284.4,25 1297.7,25 1297.7,22.8 1301.5,22.8 1301.5,20.7 1305.8,20.7 1305.8,18.6 1309.7,18.6 1309.7,16.4 1313.6,16.4 
		1313.6,14.3 	"/>
	<polygon class="st0" points="1300.4,0 1300.4,1 1300.4,2.2 1300.4,6.4 1300.4,8.6 1302.6,8.6 1305.9,8.6 1308,8.6 1308,6.4 
		1308,4.3 1305.9,4.3 1305.9,6.4 1302.6,6.4 1302.6,2.2 1310.5,2.2 1310.5,4.3 1310.5,4.3 1310.5,6.4 1310.5,8.6 1310.5,10.7 
		1328,10.7 1328,8.6 1325.8,8.6 1325.8,6.4 1321.8,6.4 1321.8,4.3 1317.6,4.3 1317.6,2.2 1313.7,2.2 1313.7,0 	"/>
	<polygon class="st0" points="1324.9,16.4 1321.7,16.4 1319.5,16.4 1319.5,18.6 1319.5,22.8 1319.5,24 1319.5,25 1328,25 1328,22.8 
		1321.7,22.8 1321.7,18.6 1324.9,18.6 1324.9,20.7 1327.1,20.7 1327.1,18.6 1327.1,16.4 	"/>
	<polygon class="st0" points="853.9,38.4 853.9,36.3 853.9,34.1 853.9,32 853.9,32 853.9,29.9 845.9,29.9 845.9,34.1 849.2,34.1 
		849.2,32 851.3,32 851.3,34.1 851.3,36.3 849.2,36.3 845.9,36.3 843.8,36.3 843.8,34.1 843.8,29.9 843.8,28.7 843.8,27.7 857,27.7 
		857,29.9 860.9,29.9 860.9,32 865.2,32 865.2,34.1 869.1,34.1 869.1,36.3 872.9,36.3 872.9,38.4 	"/>
	<polygon class="st0" points="889,38.4 889,36.3 889,34.1 889,32 889,32 889,29.9 881.1,29.9 881.1,34.1 884.3,34.1 884.3,32 
		886.5,32 886.5,34.1 886.5,36.3 884.3,36.3 881.1,36.3 878.9,36.3 878.9,34.1 878.9,29.9 878.9,28.7 878.9,27.7 892.2,27.7 
		892.2,29.9 896,29.9 896,32 900.3,32 900.3,34.1 904.3,34.1 904.3,36.3 908.1,36.3 908.1,38.4 	"/>
	<polygon class="st0" points="924.1,38.4 924.1,36.3 924.1,34.1 924.1,32 924.1,32 924.1,29.9 916.2,29.9 916.2,34.1 919.4,34.1 
		919.4,32 921.6,32 921.6,34.1 921.6,36.3 919.4,36.3 916.2,36.3 914,36.3 914,34.1 914,29.9 914,28.7 914,27.7 927.3,27.7 
		927.3,29.9 931.1,29.9 931.1,32 935.4,32 935.4,34.1 939.4,34.1 939.4,36.3 943.2,36.3 943.2,38.4 	"/>
	<polygon class="st0" points="959.3,38.4 959.3,36.3 959.3,34.1 959.3,32 959.3,32 959.3,29.9 951.3,29.9 951.3,34.1 954.6,34.1 
		954.6,32 956.7,32 956.7,34.1 956.7,36.3 954.6,36.3 951.3,36.3 949.2,36.3 949.2,34.1 949.2,29.9 949.2,28.7 949.2,27.7 
		962.4,27.7 962.4,29.9 966.3,29.9 966.3,32 970.6,32 970.6,34.1 974.5,34.1 974.5,36.3 978.3,36.3 978.3,38.4 	"/>
	<polygon class="st0" points="994.4,38.4 994.4,36.3 994.4,34.1 994.4,32 994.4,32 994.4,29.9 986.4,29.9 986.4,34.1 989.7,34.1 
		989.7,32 991.9,32 991.9,34.1 991.9,36.3 989.7,36.3 986.4,36.3 984.3,36.3 984.3,34.1 984.3,29.9 984.3,28.7 984.3,27.7 
		997.6,27.7 997.6,29.9 1001.4,29.9 1001.4,32 1005.7,32 1005.7,34.1 1009.6,34.1 1009.6,36.3 1013.4,36.3 1013.4,38.4 	"/>
	<polygon class="st0" points="1029.5,38.4 1029.5,36.3 1029.5,34.1 1029.5,32 1029.5,32 1029.5,29.9 1021.6,29.9 1021.6,34.1 
		1024.8,34.1 1024.8,32 1027,32 1027,34.1 1027,36.3 1024.8,36.3 1021.6,36.3 1019.4,36.3 1019.4,34.1 1019.4,29.9 1019.4,28.7 
		1019.4,27.7 1032.7,27.7 1032.7,29.9 1036.5,29.9 1036.5,32 1040.8,32 1040.8,34.1 1044.8,34.1 1044.8,36.3 1048.6,36.3 
		1048.6,38.4 	"/>
	<polygon class="st0" points="1064.7,38.4 1064.7,36.3 1064.7,34.1 1064.7,32 1064.7,32 1064.7,29.9 1056.7,29.9 1056.7,34.1 
		1060,34.1 1060,32 1062.1,32 1062.1,34.1 1062.1,36.3 1060,36.3 1056.7,36.3 1054.5,36.3 1054.5,34.1 1054.5,29.9 1054.5,28.7 
		1054.5,27.7 1067.8,27.7 1067.8,29.9 1071.7,29.9 1071.7,32 1075.9,32 1075.9,34.1 1079.9,34.1 1079.9,36.3 1083.7,36.3 
		1083.7,38.4 	"/>
	<polygon class="st0" points="1099.8,38.4 1099.8,36.3 1099.8,34.1 1099.8,32 1099.8,32 1099.8,29.9 1091.8,29.9 1091.8,34.1 
		1095.1,34.1 1095.1,32 1097.2,32 1097.2,34.1 1097.2,36.3 1095.1,36.3 1091.8,36.3 1089.7,36.3 1089.7,34.1 1089.7,29.9 
		1089.7,28.7 1089.7,27.7 1102.9,27.7 1102.9,29.9 1106.8,29.9 1106.8,32 1111.1,32 1111.1,34.1 1115,34.1 1115,36.3 1118.8,36.3 
		1118.8,38.4 	"/>
	<polygon class="st0" points="1134.9,38.4 1134.9,36.3 1134.9,34.1 1134.9,32 1134.9,32 1134.9,29.9 1127,29.9 1127,34.1 
		1130.2,34.1 1130.2,32 1132.4,32 1132.4,34.1 1132.4,36.3 1130.2,36.3 1127,36.3 1124.8,36.3 1124.8,34.1 1124.8,29.9 1124.8,28.7 
		1124.8,27.7 1138.1,27.7 1138.1,29.9 1141.9,29.9 1141.9,32 1146.2,32 1146.2,34.1 1150.1,34.1 1150.1,36.3 1154,36.3 1154,38.4 	
		"/>
	<polygon class="st0" points="1170,38.4 1170,36.3 1170,34.1 1170,32 1170,32 1170,29.9 1162.1,29.9 1162.1,34.1 1165.3,34.1 
		1165.3,32 1167.5,32 1167.5,34.1 1167.5,36.3 1165.3,36.3 1162.1,36.3 1159.9,36.3 1159.9,34.1 1159.9,29.9 1159.9,28.7 
		1159.9,27.7 1173.2,27.7 1173.2,29.9 1177,29.9 1177,32 1181.3,32 1181.3,34.1 1185.3,34.1 1185.3,36.3 1189.1,36.3 1189.1,38.4 	
		"/>
	<polygon class="st0" points="1205.2,38.4 1205.2,36.3 1205.2,34.1 1205.2,32 1205.2,32 1205.2,29.9 1197.2,29.9 1197.2,34.1 
		1200.5,34.1 1200.5,32 1202.6,32 1202.6,34.1 1202.6,36.3 1200.5,36.3 1197.2,36.3 1195.1,36.3 1195.1,34.1 1195.1,29.9 
		1195.1,28.7 1195.1,27.7 1208.3,27.7 1208.3,29.9 1212.2,29.9 1212.2,32 1216.5,32 1216.5,34.1 1220.4,34.1 1220.4,36.3 
		1224.2,36.3 1224.2,38.4 	"/>
	<polygon class="st0" points="1240.3,38.4 1240.3,36.3 1240.3,34.1 1240.3,32 1240.3,32 1240.3,29.9 1232.3,29.9 1232.3,34.1 
		1235.6,34.1 1235.6,32 1237.7,32 1237.7,34.1 1237.7,36.3 1235.6,36.3 1232.3,36.3 1230.2,36.3 1230.2,34.1 1230.2,29.9 
		1230.2,28.7 1230.2,27.7 1243.4,27.7 1243.4,29.9 1247.3,29.9 1247.3,32 1251.6,32 1251.6,34.1 1255.5,34.1 1255.5,36.3 
		1259.3,36.3 1259.3,38.4 	"/>
	<polygon class="st0" points="1275.4,38.4 1275.4,36.3 1275.4,34.1 1275.4,32 1275.4,32 1275.4,29.9 1267.5,29.9 1267.5,34.1 
		1270.7,34.1 1270.7,32 1272.9,32 1272.9,34.1 1272.9,36.3 1270.7,36.3 1267.5,36.3 1265.3,36.3 1265.3,34.1 1265.3,29.9 
		1265.3,28.7 1265.3,27.7 1278.6,27.7 1278.6,29.9 1282.4,29.9 1282.4,32 1286.7,32 1286.7,34.1 1290.7,34.1 1290.7,36.3 
		1294.5,36.3 1294.5,38.4 	"/>
	<polygon class="st0" points="1300.4,27.7 1300.4,28.7 1300.4,29.9 1300.4,34.1 1300.4,36.3 1302.6,36.3 1305.9,36.3 1308,36.3 
		1308,34.1 1308,32 1305.9,32 1305.9,34.1 1302.6,34.1 1302.6,29.9 1310.5,29.9 1310.5,32 1310.5,32 1310.5,34.1 1310.5,36.3 
		1310.5,38.4 1328,38.4 1328,36.3 1325.8,36.3 1325.8,34.1 1321.8,34.1 1321.8,32 1317.6,32 1317.6,29.9 1313.7,29.9 1313.7,27.7 	
		"/>
</g>
</svg>
