<?xml version="1.0" encoding="utf-8"?>
<!-- Generator: Adobe Illustrator 24.0.0, SVG Export Plug-In . SVG Version: 6.00 Build 0)  -->
<svg version="1.1" id="Capa_1" xmlns="http://www.w3.org/2000/svg" xmlns:xlink="http://www.w3.org/1999/xlink" x="0px" y="0px"
	 viewBox="0 0 760 135" style="enable-background:new 0 0 760 135;" xml:space="preserve">
<style type="text/css">
	.st0{fill:#FFFFFF;}
	.st1{clip-path:url(#XMLID_2_);fill:#FFFFFF;}
</style>
<g>
	<rect id="XMLID_231_" x="560.4" y="17.5" class="st0" width="1.5" height="98.8"/>
	<path id="XMLID_230_" class="st0" d="M178.3,74.1c0.7,1.1,1.7,1.6,3,1.6c1.9,0,3-1.8,3-1.8l30.8-39.5c2.5-2.7,5.1-0.5,5.1-0.5
		c2.4,2.5,0.6,4.9,0.6,4.9l-6.9,8.8l0,0c-0.6,0.6-1,1.4-1,2.4c0,0.8,0.3,1.6,0.8,2.2v0l6.9,8.8l21.9-27.8l-8.7-11.1l-1.6-2.1
		c-1.4-2-4.6-2.5-4.6-2.5h-13.1c-3.5,0-5.4,2.4-5.4,2.4l-36.6,47L178.3,74.1z"/>
	<path id="XMLID_229_" class="st0" d="M176.7,50l-8.8-11.2c-1.8-2.9,0.8-4.9,0.8-4.9c3.3-1.9,5.2,1,5.2,1l7.3,9.3l8.6-11.1
		l-9.9-12.7c-2.4-3.4-6-2.9-6-2.9h-11.8c-3.8,0-5.4,2.4-5.4,2.4l-10.5,13.3L168.1,61L176.7,50z"/>
	<path id="XMLID_228_" class="st0" d="M210.5,59.6c0,0-1-1.6-3-1.5c-2,0-2.8,1.4-2.8,1.4l-31.1,40c-2.5,2.8-5.2,0.5-5.2,0.5
		c-2.4-2.5-0.4-4.9-0.4-4.9l7-9l0,0c0.6-0.6,1-1.4,1-2.4c0-0.8-0.3-1.6-0.8-2.2l0,0l-6.9-8.8l-21.9,28.1l12.2,15.5l19.2,0l38.6-49.4
		L210.5,59.6z"/>
	<path id="XMLID_227_" class="st0" d="M212.1,83.7l8.8,11.4c2,2.8-0.5,4.9-0.5,4.9c-3.4,2.3-5.5-1.1-5.5-1.1l-7.4-9.4l-8.6,11.1
		l12.4,15.8l19.1,0l12.2-15.7l-21.9-28L212.1,83.7z"/>
	<path id="XMLID_224_" class="st0" d="M242.5,58.2c-4.9,0-8.9,3.9-8.9,8.7c0,4.8,4,8.8,8.9,8.8c4.9,0,8.9-3.9,8.9-8.8
		C251.3,62.1,247.3,58.2,242.5,58.2 M242.5,71.7c-2.6,0-4.7-2.1-4.7-4.7c0-2.6,2.1-4.7,4.7-4.7c2.6,0,4.7,2.1,4.7,4.7
		C247.1,69.5,245,71.7,242.5,71.7"/>
	<path id="XMLID_221_" class="st0" d="M194.4,17.5c4.9,0,8.9-3.9,8.9-8.8c0-4.8-4-8.7-8.9-8.7c-4.9,0-8.9,3.9-8.9,8.7
		C185.5,13.6,189.5,17.5,194.4,17.5 M194.4,4c2.6,0,4.7,2.1,4.7,4.7c0,2.6-2.1,4.7-4.7,4.7c-2.6,0-4.7-2.1-4.7-4.7
		C189.7,6.2,191.8,4,194.4,4"/>
	<path id="XMLID_218_" class="st0" d="M155,66.9c0-4.8-4-8.7-8.9-8.7c-4.9,0-8.9,3.9-8.9,8.7c0,4.8,4,8.8,8.9,8.8
		C151,75.7,155,71.7,155,66.9 M141.5,66.9c0-2.6,2.1-4.7,4.7-4.7c2.6,0,4.7,2.1,4.7,4.7c0,2.6-2.1,4.7-4.7,4.7
		C143.5,71.6,141.5,69.5,141.5,66.9"/>
	<path id="XMLID_215_" class="st0" d="M194.4,116.4c-4.9,0-8.9,3.9-8.9,8.7c0,4.8,4,8.7,8.9,8.7c4.9,0,8.9-3.9,8.9-8.7
		C203.2,120.3,199.3,116.4,194.4,116.4 M194.4,129.8c-2.6,0-4.7-2.1-4.7-4.7c0-2.6,2.1-4.7,4.7-4.7c2.6,0,4.7,2.1,4.7,4.7
		C199,127.7,196.9,129.8,194.4,129.8"/>
	<path id="XMLID_212_" class="st0" d="M99.4,11.2v65.4c0,7.9-2.5,15.3-7.4,21.8c-4,5.3-9.6,10.1-16.7,14.3
		c-10.8,6.4-21.9,9.3-24.3,9.9c-2.5-0.6-13.4-3.5-24.2-9.9c-7.1-4.2-12.8-9-16.8-14.3C5,91.9,2.5,84.6,2.5,76.6V11.2H99.4
		 M101.8,8.7H0v67.9c0,37.3,50.9,48.5,50.9,48.5h0.1c0,0,50.9-11.2,50.9-48.5V8.7z"/>
	<path id="XMLID_211_" class="st0" d="M63.3,30.4v-6.2h-6.4V30h-2.5v-5.8h-6.6V30h-2.5v-5.8h-6.5v6.2l3.2,5.5
		c0.1,0.2,0.2,0.4,0.2,0.6l0,28.6h3.1l0-10.3c0-2.4,2.8-4.6,5.8-4.6c3,0,5.8,2.2,5.8,4.6l0,10.3h3.2l0-10.8c0,0,0-0.1,0-0.2v-5.4
		c0,0,0-0.1,0-0.1l0-3.9v0V43l0-6.5c0-0.2,0.1-0.4,0.2-0.6L63.3,30.4z"/>
	<path id="XMLID_210_" class="st0" d="M39.6,65.8l0-9.5L38.4,57c-0.4,0.3-0.9,0.2-1.4,0L35.7,56c0,0,0,0.1,0,0.1l0,3.6
		c0,0.4-0.2,0.7-0.5,1c0.1,0,0.3,0.1,0.4,0.2c1.7,1.3,1.8,3.3,1.4,4.8H39.6z"/>
	<path id="XMLID_209_" class="st0" d="M50.9,52.7c-1.9,0-3.3,1.4-3.3,2.1l0,10.3h6.5l0-10.3C54.2,54.1,52.8,52.7,50.9,52.7"/>
	<path id="XMLID_208_" class="st0" d="M12.7,65.8c-0.4-0.8-0.6-1.7-0.8-2.9c-0.3-2-0.3-3.8-0.2-3.9c0-0.5,0.4-1,0.9-1.1l2.7-0.8
		l-3.1-2.2c-0.3-0.2-0.5-0.6-0.5-1v-3.5c0-0.5,0.3-0.9,0.7-1.1l1.2-0.6v-1.2L12.5,47c-0.5-0.2-0.8-0.6-0.8-1.2l0-4.2
		c0-0.7,0.6-1.2,1.2-1.3l3.9,0c-0.1-1-0.1-2.4,0.2-3.6c0.3-1.6,1.2-3.3,1.7-4l-0.2-1.4c-0.1-0.4,0.1-0.7,0.3-1
		c0.2-0.3,0.6-0.4,0.9-0.4h2.1c0.2,0,0.5,0.1,0.7,0.2l5.1,3.2h2.3c0.3,0,0.7,0.1,0.9,0.4c0.2,0.2,0.4,0.6,0.3,0.9l-0.2,4
		c0,0.3-0.2,0.6-0.4,0.9l1.6,0c0.3,0,0.7,0.1,0.9,0.4l0.7,0.7l0.5-0.4l0.9-1.9c0.2-0.4,0.6-0.7,1.1-0.7h3.3v-0.7l-3.2-5.5
		c-0.1-0.2-0.2-0.4-0.2-0.6v-7.8c0-0.7,0.6-1.3,1.3-1.3h7.8h2.5h6.6h2.5h7.7c0.7,0,1.3,0.6,1.3,1.3v7.8c0,0.2-0.1,0.4-0.2,0.6
		l-3.2,5.5v0.7h3.3c0.5,0,0.9,0.3,1.1,0.7l0.9,1.9l0.5,0.4l0.7-0.7c0.2-0.2,0.6-0.4,0.9-0.4l1.6,0C71.1,39.3,71,39,71,38.6l-0.2-4
		c0-0.3,0.1-0.7,0.3-0.9c0.2-0.2,0.6-0.4,0.9-0.4h2.3l5.1-3.2c0.2-0.1,0.4-0.2,0.7-0.2h2.1c0.4,0,0.7,0.2,0.9,0.4
		c0.2,0.3,0.3,0.6,0.3,1l-0.2,1.4c0.4,0.8,1.3,2.5,1.6,4c0.2,1.2,0.2,2.6,0.2,3.6l3.9,0c0.7,0,1.2,0.6,1.2,1.3l0,4.2
		c0,0.5-0.3,1-0.8,1.2l-1.1,0.4v1.2l1.2,0.6c0.4,0.2,0.7,0.6,0.7,1.1v3.5c0,0.4-0.2,0.8-0.5,1L86.6,57l2.7,0.8
		c0.5,0.2,0.9,0.6,0.9,1.1c0,0.1,0.1,1.9-0.2,3.9c-0.2,1.1-0.4,2.1-0.8,2.9h4.6c0,0,0,0,0.1,0V17.4H8.2v48.4H12.7z"/>
	<path id="XMLID_207_" class="st0" d="M66.3,60.9c0.1-0.1,0.3-0.2,0.4-0.2c-0.3-0.2-0.5-0.6-0.5-1l0-3.6c0,0,0-0.1,0-0.1l-1.4,0.9
		c-0.4,0.3-0.9,0.3-1.4,0l-1.1-0.6l0,9.4h2.5C64.5,64.2,64.6,62.3,66.3,60.9"/>
	<path id="XMLID_206_" class="st0" d="M82.9,91.6c-0.7,0-1.3-0.6-1.3-1.3v-8.2c0-0.6-0.4-1.4-0.9-1.9c-0.5-0.5-1.3-1-2.6-1
		c-1.9,0-3.1,1.5-3.2,3v8.1c0,0.3-0.1,0.7-0.4,0.9c-0.2,0.2-0.6,0.4-0.9,0.4h-7.4c-0.7,0-1.3-0.6-1.3-1.3v-8.2
		c0-0.6-0.4-1.4-0.9-1.9c-0.5-0.5-1.3-1-2.6-1c-0.8,0-1.6,0.3-2.2,0.9l6.1,31.2c8.6-3.8,18.8-10,24.3-19.7H82.9z"/>
	<path id="XMLID_205_" class="st0" d="M63,112.1l-8.6-43.9h-7l-8.6,43.9c0,0.1,0,0.1,0,0.2c6,2.4,10.8,3.7,12.2,4.1
		c1.4-0.4,6.2-1.7,12.1-4.1C63.1,112.3,63,112.2,63,112.1"/>
	<path id="XMLID_204_" class="st0" d="M42.6,80.1c-0.6-0.5-1.3-0.8-2.1-0.8h-0.1c-1.2,0-2,0.5-2.5,1c-0.6,0.6-0.9,1.3-0.9,1.9v8.2
		c0,0.7-0.6,1.3-1.3,1.3h-7.4c-0.3,0-0.7-0.1-0.9-0.4C27.1,91,27,90.7,27,90.4v-8.1c-0.2-1.5-1.3-3-3.2-3h-0.1c-1.2,0-2,0.5-2.5,1
		c-0.6,0.6-0.9,1.3-0.9,1.9v8.2c0,0.7-0.6,1.3-1.3,1.3h-6.8c5.5,9.6,15.7,15.9,24.3,19.7L42.6,80.1z"/>
	<path id="XMLID_203_" class="st0" d="M93.7,68.3H57l1.8,9.2c0.8-0.4,1.7-0.7,2.7-0.7c1.6,0,3.2,0.6,4.4,1.7c1.1,1,1.7,2.4,1.7,3.7
		v6.9h4.9v-6.9c0,0,0-0.1,0-0.1c0.3-3,2.7-5.3,5.7-5.3c1.7,0,3.2,0.6,4.4,1.7c1.1,1,1.7,2.4,1.7,3.7v6.9H91c1.7-3.8,2.7-8,2.7-12.7
		L93.7,68.3C93.7,68.3,93.7,68.3,93.7,68.3"/>
	<path id="XMLID_202_" class="st0" d="M17.7,89.1v-6.9c0-1.3,0.6-2.7,1.7-3.7c1.2-1.1,2.7-1.7,4.4-1.7c3,0,5.4,2.3,5.7,5.3
		c0,0,0,0.1,0,0.1v6.9h4.9v-6.9c0-1.3,0.6-2.7,1.7-3.7c1.2-1.1,2.7-1.7,4.4-1.7c0.9,0,1.8,0.2,2.6,0.7l1.8-9.2H8.2v8.1
		c0,4.8,1,9,2.7,12.7H17.7z"/>
	<path id="XMLID_201_" class="st0" d="M20.7,63.2h2c0.2,0.3,0.2,0.5,0.3,0.8c0,0.2,0,0.3,0,0.5c0,0.4-0.1,0.9-0.2,1.2h-7.1
		c-1-0.7-1.5-3.5-1.6-5.8l3.1-1c0.5-0.2,0.9-0.6,0.9-1.2v-1.2c0-0.4-0.2-0.8-0.5-1l-3.5-2.4v-2.1l1.2-0.6c0.4-0.2,0.7-0.6,0.7-1.1
		v-2.8c0-0.5-0.3-1-0.8-1.2L14.2,45l0-2.1l3.3,0l1.6,2.6l0,3.6L18,52.4c-0.1,0.4-0.1,0.8,0.2,1.1c0.2,0.3,0.6,0.5,1,0.5h0.9
		c0.6,0,1.1-0.4,1.2-1.1c0.1-0.6,0.4-2.2,0.7-2.9c0.2-0.6,1.1-1.8,1.7-2.4c0.4-0.5,0.4-1.2,0-1.6l-4.3-4.9c-0.1-0.7-0.2-2.5,0-3.8
		c0.3-1.4,1.2-3.1,1.6-3.6c0.2-0.2,0.2-0.5,0.2-0.8l-0.1-0.4h0.3l5.1,3.2c0.2,0.1,0.4,0.2,0.7,0.2h1.4l-0.1,1.9l-1.6,0.6
		c-0.5,0.2-0.8,0.7-0.8,1.2l0,1.3c0,0.7,0.6,1.2,1.2,1.2l4.3,0l1.1,1.2c0.4,0.5,1.2,0.5,1.7,0.1c0,0,2-1.6,2-1.7l0.7-1.5h2.5V43
		l0,1.6c0,0-4.6,1.6-4.9,1.8c-0.3,0.2-0.5,1.6-0.4,1.9c0.1,0.3,0,0.5,0.5,0.8c0,0,1.3,1,1.7,1.2l1.3-1.3l1.8,0.1l0,4.2l-1.7,1
		l-5.3-3.6c-0.5-0.4-1.3-0.3-1.7,0.3l-0.8,1.1c-0.4,0.5-0.3,1.2,0.1,1.7l3,2.8l0,2.3l-3,1.3c-0.5,0.2-0.7,0.6-0.7,1.1v0.5
		c0,0.7,0.6,1.3,1.3,1.3h3.6c0.6,0.8,0.4,1.9,0.1,2.6H26c-0.3-0.3-0.4-0.8-0.5-1.4c0-0.2,0-0.3,0-0.5c0-0.8,0.1-1.6,0.2-2.1l1.9-2.5
		c0.2-0.2,0.2-0.5,0.3-0.7l0.1-1.2c0-0.4-0.2-0.8-0.5-1.1c-0.3-0.2-0.8-0.3-1.2-0.1l-3.1,1.3c-0.4,0.2-0.7,0.5-0.8,1l-0.2,1.3
		l-1.8,0.6c-0.5,0.2-0.9,0.6-0.9,1.2v0.5C19.4,62.6,20,63.2,20.7,63.2"/>
	<path id="XMLID_200_" class="st0" d="M81.2,63.2h-2c-0.2,0.3-0.2,0.5-0.3,0.8c0,0.2,0,0.3,0,0.5c0,0.4,0.1,0.9,0.2,1.2h7.1
		c1-0.7,1.5-3.5,1.6-5.8l-3.1-1c-0.5-0.2-0.9-0.6-0.9-1.2v-1.2c0-0.4,0.2-0.8,0.5-1l3.5-2.4v-2.1l-1.2-0.6c-0.4-0.2-0.7-0.6-0.7-1.1
		v-2.8c0-0.5,0.3-1,0.8-1.2l1.1-0.4l0-2.1l-3.3,0l-1.6,2.6l0,3.6l1.1,3.4c0.1,0.4,0.1,0.8-0.2,1.1c-0.2,0.3-0.6,0.5-1,0.5h-0.9
		c-0.6,0-1.1-0.4-1.2-1.1c-0.1-0.6-0.4-2.2-0.7-2.9c-0.2-0.6-1.1-1.8-1.7-2.4c-0.4-0.5-0.4-1.2,0-1.6l4.3-4.9c0.1-0.7,0.2-2.5,0-3.8
		c-0.3-1.4-1.2-3.1-1.6-3.6c-0.2-0.2-0.2-0.5-0.2-0.8l0.1-0.4h-0.3l-5.1,3.2c-0.2,0.1-0.4,0.2-0.7,0.2h-1.4l0.1,1.9l1.6,0.6
		c0.5,0.2,0.8,0.7,0.8,1.2l0,1.3c0,0.7-0.6,1.2-1.2,1.2l-4.3,0l-1.1,1.2c-0.4,0.5-1.2,0.5-1.7,0.1c0,0-2-1.6-2-1.7l-0.7-1.5h-2.5V43
		v1.6c0,0,4.6,1.6,4.9,1.8c0.3,0.2,0.5,1.6,0.4,1.9c-0.1,0.3,0,0.5-0.5,0.8c0,0-1.3,1-1.7,1.2l-1.3-1.3l-1.8,0.1l0,4.2l1.7,1
		l5.3-3.6c0.5-0.4,1.3-0.3,1.7,0.3l0.8,1.1c0.4,0.5,0.3,1.2-0.1,1.7l-3,2.8l0,2.3l3,1.3c0.5,0.2,0.7,0.6,0.7,1.1v0.5
		c0,0.7-0.6,1.3-1.3,1.3h-3.6c-0.6,0.8-0.4,1.9-0.1,2.6h8.4c0.3-0.3,0.4-0.8,0.5-1.4c0-0.2,0-0.3,0-0.5c0-0.8-0.1-1.6-0.2-2.1
		l-1.9-2.5c-0.2-0.2-0.3-0.5-0.3-0.7l-0.1-1.2c0-0.4,0.2-0.8,0.5-1.1c0.4-0.2,0.8-0.3,1.2-0.1l3.1,1.3c0.4,0.2,0.7,0.5,0.8,1
		l0.2,1.3l1.8,0.6c0.5,0.2,0.9,0.6,0.9,1.2v0.5C82.4,62.6,81.9,63.2,81.2,63.2"/>
	<path id="XMLID_199_" class="st0" d="M278.1,52.1L278.1,52.1c0-4.8,3.5-9,8.7-9c2.9,0,4.7,0.8,6.5,2.3l-1.3,1.5
		c-1.3-1.2-2.8-2-5.3-2c-3.8,0-6.6,3.2-6.6,7.1v0c0,4.1,2.7,7.2,6.9,7.2c2,0,3.8-0.8,5-1.7v-4.3h-5.3v-1.8h7.2v6.9
		c-1.6,1.4-4,2.7-7,2.7C281.5,61,278.1,57,278.1,52.1"/>
	<path id="XMLID_196_" class="st0" d="M300.3,52.1L300.3,52.1c0-4.8,3.6-9,8.9-9c5.3,0,8.8,4.1,8.8,8.9v0c0,4.8-3.6,9-8.9,9
		C303.9,61,300.3,56.9,300.3,52.1 M316,52.1L316,52.1c0-4-2.9-7.2-6.8-7.2c-4,0-6.8,3.2-6.8,7.1v0c0,3.9,2.9,7.2,6.8,7.2
		C313.2,59.2,316,56,316,52.1"/>
	<path id="XMLID_192_" class="st0" d="M325,43.4h7.4c2,0,3.5,0.6,4.5,1.5c0.7,0.7,1.1,1.7,1.1,2.8v0.1c0,2.3-1.4,3.4-2.8,4
		c2.1,0.6,3.7,1.8,3.7,4.2V56c0,3-2.5,4.7-6.3,4.7H325V43.4z M336.1,47.9c0-1.7-1.4-2.8-3.8-2.8H327v6h5.1
		C334.5,51.1,336.1,50,336.1,47.9L336.1,47.9z M332.5,52.8H327v6.1h5.8c2.6,0,4.3-1.2,4.3-3.1v0C337.1,53.9,335.5,52.8,332.5,52.8"
		/>
	<rect id="XMLID_191_" x="346.1" y="43.4" class="st0" width="2" height="17.3"/>
	<polygon id="XMLID_190_" class="st0" points="355.9,43.4 368.5,43.4 368.5,45.1 357.9,45.1 357.9,51.1 367.4,51.1 367.4,52.8 
		357.9,52.8 357.9,58.9 368.6,58.9 368.6,60.7 355.9,60.7 	"/>
	<path id="XMLID_187_" class="st0" d="M375.1,43.4h7.5c2.1,0,3.8,0.6,4.9,1.7c0.8,0.8,1.3,2.1,1.3,3.4v0.1c0,2.9-2,4.6-4.7,5.1
		l5.3,7.1H387l-5-6.7h-5v6.7h-2V43.4z M382.4,52.2c2.6,0,4.5-1.3,4.5-3.6v-0.1c0-2.1-1.6-3.4-4.4-3.4h-5.4v7H382.4z"/>
	<polygon id="XMLID_186_" class="st0" points="395.9,43.4 397.7,43.4 408.7,57.3 408.7,43.4 410.6,43.4 410.6,60.7 409,60.7 
		397.8,46.5 397.8,60.7 395.9,60.7 	"/>
	<path id="XMLID_183_" class="st0" d="M417.6,52.1L417.6,52.1c0-4.8,3.6-9,8.9-9c5.3,0,8.8,4.1,8.8,8.9v0c0,4.8-3.6,9-8.9,9
		C421.1,61,417.6,56.9,417.6,52.1 M433.2,52.1L433.2,52.1c0-4-2.9-7.2-6.8-7.2c-4,0-6.8,3.2-6.8,7.1v0c0,3.9,2.9,7.2,6.8,7.2
		C430.4,59.2,433.2,56,433.2,52.1"/>
	<path id="XMLID_180_" class="st0" d="M451.3,43.4h6c5.5,0,9.2,3.7,9.2,8.6v0c0,4.9-3.8,8.7-9.2,8.7h-6V43.4z M453.3,45.2v13.7h4.1
		c4.4,0,7.2-3,7.2-6.8v0c0-3.8-2.8-6.9-7.2-6.9H453.3z"/>
	<polygon id="XMLID_179_" class="st0" points="472.8,43.4 485.3,43.4 485.3,45.1 474.7,45.1 474.7,51.1 484.2,51.1 484.2,52.8 
		474.7,52.8 474.7,58.9 485.4,58.9 485.4,60.7 472.8,60.7 	"/>
	<polygon id="XMLID_178_" class="st0" points="501,43.4 503,43.4 503,58.9 512.8,58.9 512.8,60.7 501,60.7 	"/>
	<path id="XMLID_175_" class="st0" d="M524.8,43.2h1.8l7.9,17.5h-2.1l-2-4.6h-9.4l-2.1,4.6h-2L524.8,43.2z M529.6,54.3l-3.9-8.8
		l-4,8.8H529.6z"/>
	<path id="XMLID_174_" class="st0" d="M277.8,81.8L277.8,81.8c0-5,3.7-9,9-9c3.3,0,5.2,1.1,6.8,2.7l-2.4,2.8c-1.3-1.2-2.7-2-4.4-2
		c-2.9,0-5,2.4-5,5.4v0.1c0,3,2.1,5.5,5,5.5c2,0,3.2-0.8,4.6-2l2.4,2.5c-1.8,1.9-3.8,3.1-7.1,3.1C281.5,90.7,277.8,86.8,277.8,81.8"
		/>
	<rect id="XMLID_173_" x="296.9" y="73.1" class="st0" width="3.8" height="17.4"/>
	<path id="XMLID_172_" class="st0" d="M305.1,83v-9.9h3.8v9.8c0,2.8,1.4,4.3,3.7,4.3c2.3,0,3.7-1.4,3.7-4.2v-9.9h3.8v9.8
		c0,5.3-2.9,7.8-7.6,7.8C308,90.7,305.1,88.1,305.1,83"/>
	<path id="XMLID_169_" class="st0" d="M324.6,73.1h6.8c5.5,0,9.2,3.7,9.2,8.6v0c0,4.9-3.8,8.7-9.2,8.7h-6.8V73.1z M331.4,87
		c3.1,0,5.2-2.1,5.2-5.2v-0.1c0-3.1-2.1-5.2-5.2-5.2h-2.9V87H331.4z"/>
	<path id="XMLID_166_" class="st0" d="M349,73h3.5l7.4,17.5h-4l-1.6-3.9h-7.3l-1.6,3.9h-3.9L349,73z M353.1,83.2l-2.3-5.6l-2.3,5.6
		H353.1z"/>
	<path id="XMLID_163_" class="st0" d="M362.8,73.1h6.8c5.5,0,9.2,3.7,9.2,8.6v0c0,4.9-3.8,8.7-9.2,8.7h-6.8V73.1z M369.5,87
		c3.1,0,5.2-2.1,5.2-5.2v-0.1c0-3.1-2.1-5.2-5.2-5.2h-2.9V87H369.5z"/>
	<path id="XMLID_160_" class="st0" d="M389.8,73.1h6.8c5.5,0,9.2,3.7,9.2,8.6v0c0,4.9-3.8,8.7-9.2,8.7h-6.8V73.1z M396.6,87
		c3.1,0,5.2-2.1,5.2-5.2v-0.1c0-3.1-2.1-5.2-5.2-5.2h-2.9V87H396.6z"/>
	<polygon id="XMLID_159_" class="st0" points="409.4,73.1 422.5,73.1 422.5,76.5 413.2,76.5 413.2,80 421.4,80 421.4,83.4 
		413.2,83.4 413.2,87.1 422.7,87.1 422.7,90.5 409.4,90.5 	"/>
	<polygon id="XMLID_158_" class="st0" points="433.7,73.1 437.9,73.1 442.4,80.4 447,73.1 451.1,73.1 451.1,90.5 447.3,90.5 
		447.3,79.1 442.4,86.5 442.3,86.5 437.5,79.2 437.5,90.5 433.7,90.5 	"/>
	<path id="XMLID_155_" class="st0" d="M455.6,73.1h13.1v3.4h-9.3V80h8.2v3.4h-8.2v3.6h9.4v3.4h-13.2V73.1z M462.9,67.3l3.2,1.4
		l-3.2,3h-2.9L462.9,67.3z"/>
	<polygon id="XMLID_154_" class="st0" points="477.4,81.6 471.6,73.1 476,73.1 479.7,78.7 483.3,73.1 487.7,73.1 481.9,81.6 
		487.9,90.5 483.5,90.5 479.6,84.5 475.7,90.5 471.3,90.5 	"/>
	<rect id="XMLID_153_" x="490.8" y="73.1" class="st0" width="3.8" height="17.4"/>
	<path id="XMLID_152_" class="st0" d="M498.4,81.8L498.4,81.8c0-5,3.7-9,9-9c3.3,0,5.2,1.1,6.8,2.7l-2.4,2.8c-1.3-1.2-2.7-2-4.4-2
		c-2.9,0-5,2.4-5,5.4v0.1c0,3,2.1,5.5,5,5.5c2,0,3.2-0.8,4.6-2l2.4,2.5c-1.8,1.9-3.8,3.1-7.1,3.1C502.1,90.7,498.4,86.8,498.4,81.8"
		/>
	<path id="XMLID_149_" class="st0" d="M516.2,81.8L516.2,81.8c0-5,3.9-9,9.2-9c5.4,0,9.2,4,9.2,8.9v0.1c0,4.9-3.9,9-9.2,9
		C520,90.7,516.2,86.8,516.2,81.8 M530.6,81.8L530.6,81.8c0-3-2.2-5.5-5.3-5.5c-3.1,0-5.2,2.4-5.2,5.4v0.1c0,3,2.2,5.5,5.3,5.5
		C528.5,87.2,530.6,84.8,530.6,81.8"/>
	<g>
		<path id="XMLID_148_" class="st0" d="M694.2,78.6c-0.5,1.2-1.3,2.2-2.3,3c-1,0.8-2.1,1.4-3.5,1.8c-1.4,0.4-2.9,0.6-4.5,0.6
			c-2.3,0-4.6-0.4-6.8-1.2c-2.2-0.8-4.3-2-6.1-3.7l4-4.7c1.4,1.1,2.8,2,4.3,2.7c1.5,0.7,3.1,1,4.8,1c1.4,0,2.5-0.3,3.2-0.8
			c0.8-0.5,1.2-1.2,1.2-2.1v-0.1c0-0.4-0.1-0.8-0.2-1.2c-0.2-0.3-0.5-0.6-0.9-0.9c-0.5-0.3-1.1-0.6-1.9-0.9
			c-0.8-0.3-1.8-0.6-3.1-0.9c-1.5-0.4-2.9-0.8-4.2-1.3c-1.3-0.5-2.3-1-3.2-1.7c-0.9-0.7-1.5-1.5-2-2.5c-0.5-1-0.7-2.3-0.7-3.8v-0.1
			c0-1.4,0.3-2.6,0.8-3.8c0.5-1.1,1.2-2.1,2.2-2.9c0.9-0.8,2.1-1.4,3.4-1.9c1.3-0.4,2.7-0.7,4.3-0.7c2.2,0,4.3,0.3,6.2,1
			c1.9,0.7,3.6,1.6,5.2,2.9l-3.5,5c-1.4-0.9-2.7-1.7-4-2.2c-1.3-0.5-2.6-0.8-3.9-0.8c-1.3,0-2.3,0.3-2.9,0.8c-0.7,0.5-1,1.1-1,1.9
			v0.1c0,0.5,0.1,0.9,0.3,1.3c0.2,0.4,0.5,0.7,1,1c0.5,0.3,1.2,0.6,2,0.8c0.9,0.3,1.9,0.6,3.3,0.9c1.5,0.4,2.9,0.9,4.1,1.4
			c1.2,0.5,2.2,1.1,3.1,1.8c0.8,0.7,1.5,1.5,1.9,2.5c0.4,1,0.6,2.1,0.6,3.4v0.1C695,76,694.7,77.4,694.2,78.6"/>
		<path id="XMLID_147_" class="st0" d="M723.9,78.6c-0.5,1.2-1.3,2.2-2.3,3c-1,0.8-2.1,1.4-3.5,1.8c-1.4,0.4-2.9,0.6-4.5,0.6
			c-2.3,0-4.6-0.4-6.8-1.2c-2.2-0.8-4.3-2-6.1-3.7l4-4.7c1.4,1.1,2.8,2,4.3,2.7c1.5,0.7,3.1,1,4.8,1c1.4,0,2.5-0.3,3.2-0.8
			c0.8-0.5,1.2-1.2,1.2-2.1v-0.1c0-0.4-0.1-0.8-0.2-1.2c-0.2-0.3-0.5-0.6-0.9-0.9c-0.5-0.3-1.1-0.6-1.9-0.9
			c-0.8-0.3-1.8-0.6-3.1-0.9c-1.5-0.4-2.9-0.8-4.2-1.3c-1.3-0.5-2.3-1-3.2-1.7c-0.9-0.7-1.5-1.5-2-2.5c-0.5-1-0.7-2.3-0.7-3.8v-0.1
			c0-1.4,0.3-2.6,0.8-3.8c0.5-1.1,1.2-2.1,2.2-2.9c0.9-0.8,2.1-1.4,3.4-1.9c1.3-0.4,2.7-0.7,4.3-0.7c2.2,0,4.3,0.3,6.2,1
			c1.9,0.7,3.6,1.6,5.2,2.9l-3.5,5c-1.4-0.9-2.7-1.7-4-2.2c-1.3-0.5-2.6-0.8-3.9-0.8c-1.3,0-2.3,0.3-2.9,0.8c-0.7,0.5-1,1.1-1,1.9
			v0.1c0,0.5,0.1,0.9,0.3,1.3c0.2,0.4,0.5,0.7,1,1c0.5,0.3,1.2,0.6,2,0.8c0.9,0.3,1.9,0.6,3.3,0.9c1.5,0.4,2.9,0.9,4.1,1.4
			c1.2,0.5,2.2,1.1,3.1,1.8c0.8,0.7,1.5,1.5,1.9,2.5c0.4,1,0.6,2.1,0.6,3.4v0.1C724.7,76,724.4,77.4,723.9,78.6"/>
		<path id="XMLID_146_" class="st0" d="M756.5,80.9c-0.8,0.7-1.8,1.2-2.8,1.7c-1,0.5-2.1,0.8-3.3,1.1c-1.2,0.2-2.5,0.4-4,0.4
			c-2.2,0-4.3-0.4-6.2-1.2c-1.9-0.8-3.6-1.9-5-3.3c-1.4-1.4-2.5-3.1-3.3-5c-0.8-1.9-1.2-4-1.2-6.1v-0.1c0-2.2,0.4-4.2,1.2-6.1
			c0.8-1.9,1.9-3.6,3.3-5c1.4-1.4,3.1-2.6,5-3.4c1.9-0.8,4.1-1.2,6.4-1.2c1.4,0,2.7,0.1,3.9,0.3c1.2,0.2,2.2,0.6,3.2,1
			c1,0.4,1.8,0.9,2.7,1.5c0.8,0.6,1.6,1.2,2.3,1.9l-4.3,4.9c-1.2-1.1-2.4-1.9-3.6-2.5c-1.2-0.6-2.6-0.9-4.2-0.9
			c-1.3,0-2.5,0.2-3.5,0.7c-1.1,0.5-2,1.2-2.8,2c-0.8,0.9-1.4,1.9-1.8,3c-0.4,1.1-0.7,2.4-0.7,3.7v0.1c0,1.3,0.2,2.5,0.7,3.7
			c0.4,1.2,1,2.2,1.8,3c0.8,0.9,1.7,1.6,2.8,2.1c1.1,0.5,2.3,0.8,3.6,0.8c1.7,0,3.2-0.3,4.4-1c1.2-0.6,2.4-1.5,3.6-2.6l4.3,4.3
			C758.1,79.5,757.3,80.2,756.5,80.9"/>
		<polygon id="XMLID_145_" class="st0" points="648.5,93.4 641.5,85.6 641.5,85.6 		"/>
		<path id="XMLID_78_" class="st0" d="M660.5,67.8c0-1.2-0.8-2.2-1.8-2.6c0.3-0.7,0.3-1.6-0.1-2.2c-0.4-0.7-1-1.2-1.8-1.3
			c0.1-0.4,0.1-0.8,0-1.2c-0.2-0.9-0.9-1.5-1.8-1.7c0.1-0.5,0.1-1.1-0.1-1.6c-0.3-0.7-0.8-1.2-1.5-1.5c0.2-0.6,0.2-1.2-0.1-1.8
			c-0.3-0.6-0.7-1-1.3-1.2c0.2-0.6,0.1-1.2-0.1-1.8c-0.3-0.6-0.7-1-1.2-1.3c0.4-0.8,0.2-1.8-0.3-2.5c-0.3-0.3-0.6-0.6-0.9-0.7
			c0.5-1,0.2-2.2-0.5-3c-0.2-0.2-0.5-0.4-0.8-0.6c0.4-0.5,0.5-1.2,0.4-1.9c-0.1-0.7-0.4-1.2-1-1.6c-0.3-0.2-0.6-0.4-1-0.4l0.4-0.5
			c0,0,0,0,0-0.1c0.4-0.6,0.5-1.4,0.3-2.1c-0.2-0.7-0.6-1.3-1.2-1.7c-0.5-0.3-1.2-0.5-1.8-0.4c-0.6,0.1-1.2,0.4-1.6,0.9
			c0.2-1.3-0.6-2.6-1.7-3c-1-0.4-2.2-0.2-3,0.6c-0.2-0.2-0.4-0.4-0.7-0.4c-0.6-0.2-1.3-0.1-1.8,0.2c-0.2-0.2-0.4-0.3-0.6-0.4
			c-0.5-0.2-1.1-0.2-1.5,0.1c-0.2-0.3-0.5-0.5-0.9-0.6c-0.3-0.1-0.7-0.1-1,0c-0.5-0.7-1.3-0.9-2.1-0.7c-0.5-0.9-1.5-1.3-2.4-1
			c-0.4-1.2-1.4-2-2.6-2.1c-0.2,0-0.4,0-0.6,0c-1.2,0.1-2.2,1-2.6,2.1c-0.9-0.3-2,0.1-2.5,1c-0.8-0.2-1.6,0.1-2.1,0.7
			c-0.3-0.1-0.7-0.1-1,0c-0.3,0.1-0.6,0.3-0.9,0.6c-0.5-0.2-1-0.3-1.5-0.1c-0.2,0.1-0.4,0.2-0.6,0.4c-0.5-0.4-1.2-0.5-1.8-0.2
			c-0.3,0.1-0.5,0.2-0.7,0.4c-0.8-0.8-1.9-1-3-0.6c-1.2,0.5-1.9,1.7-1.7,3c-0.4-0.5-1-0.8-1.6-0.9c-0.6-0.1-1.3,0-1.8,0.4
			c-0.6,0.4-1,1-1.2,1.7c-0.2,0.7,0,1.5,0.3,2.1c0,0,0,0,0,0.1l0.4,0.5c-0.3,0.1-0.7,0.2-1,0.4c-0.5,0.4-0.9,1-1,1.6
			c-0.1,0.7,0.1,1.3,0.4,1.9c-0.3,0.1-0.6,0.3-0.8,0.6c-0.8,0.8-1,2-0.5,3c-0.4,0.1-0.7,0.4-0.9,0.7c-0.6,0.7-0.7,1.7-0.3,2.5
			c-0.5,0.3-1,0.7-1.2,1.3c-0.3,0.6-0.3,1.2-0.1,1.8c-0.6,0.2-1,0.6-1.3,1.2c-0.3,0.6-0.3,1.2-0.1,1.8c-0.7,0.2-1.2,0.8-1.5,1.5
			c-0.2,0.5-0.2,1.1-0.1,1.6c-0.9,0.2-1.6,0.8-1.8,1.7c-0.1,0.4-0.1,0.8,0,1.2c-0.8,0.1-1.4,0.6-1.8,1.3c-0.4,0.7-0.4,1.5-0.1,2.2
			c-1.1,0.4-1.8,1.4-1.8,2.6c0,1.2,0.8,2.2,1.8,2.6c-0.3,0.7-0.3,1.6,0.1,2.2c0.4,0.7,1,1.2,1.8,1.3c-0.1,0.4-0.1,0.8,0,1.2
			c0.2,0.9,0.9,1.5,1.8,1.7c-0.1,0.5-0.1,1.1,0.1,1.6c0.3,0.7,0.8,1.2,1.5,1.5c-0.2,0.6-0.2,1.2,0.1,1.8c0.3,0.6,0.7,1,1.3,1.2
			c-0.2,0.6-0.1,1.2,0.1,1.8c0.3,0.6,0.7,1,1.2,1.3c-0.4,0.8-0.2,1.8,0.3,2.5c0.3,0.3,0.6,0.6,0.9,0.7c-0.5,1-0.2,2.2,0.5,3
			c0.2,0.2,0.5,0.4,0.8,0.6c-0.4,0.5-0.5,1.2-0.4,1.9c0.1,0.7,0.4,1.2,1,1.6c0.3,0.2,0.6,0.4,1,0.4l-0.4,0.5c0,0,0,0,0,0.1
			c-0.4,0.6-0.5,1.4-0.3,2.1c0.2,0.7,0.6,1.3,1.2,1.7c0.5,0.3,1.2,0.5,1.8,0.4c0.6-0.1,1.2-0.4,1.6-0.9c-0.2,1.3,0.6,2.6,1.7,3
			c1,0.4,2.2,0.2,3-0.6c0.2,0.2,0.4,0.4,0.7,0.4c0.6,0.2,1.3,0.1,1.8-0.2c0.2,0.2,0.4,0.3,0.6,0.4c0.5,0.2,1.1,0.2,1.5-0.1
			c0.2,0.3,0.5,0.5,0.9,0.6c0.3,0.1,0.7,0.1,1,0c0.5,0.7,1.3,0.9,2.1,0.7c0.5,0.9,1.5,1.3,2.5,1c0.4,1.2,1.4,2,2.6,2.1
			c0.2,0,0.4,0,0.6,0c1.2-0.1,2.2-1,2.6-2.1c0.9,0.3,2-0.1,2.4-1c0.8,0.2,1.6-0.1,2.1-0.7c0.3,0.1,0.7,0.1,1,0
			c0.3-0.1,0.6-0.3,0.9-0.6c0.5,0.2,1,0.3,1.5,0.1c0.2-0.1,0.4-0.2,0.6-0.4c0.5,0.4,1.2,0.5,1.8,0.2c0.3-0.1,0.5-0.2,0.7-0.4
			c0.8,0.8,1.9,1,3,0.6c1.2-0.5,1.9-1.7,1.7-3c0.4,0.5,1,0.8,1.6,0.9c0.6,0.1,1.3,0,1.8-0.4c0.6-0.4,1-1,1.2-1.7
			c0.2-0.7,0-1.5-0.3-2.1c0,0,0,0,0-0.1l-0.4-0.5c0.3-0.1,0.7-0.2,1-0.4c0.5-0.4,0.9-1,1-1.6c0.1-0.7-0.1-1.3-0.4-1.9
			c0.3-0.1,0.6-0.3,0.8-0.6c0.8-0.8,1-2,0.5-3c0.4-0.1,0.7-0.4,0.9-0.7c0.6-0.7,0.7-1.7,0.3-2.5c0.5-0.3,1-0.7,1.2-1.3
			c0.3-0.6,0.3-1.2,0.1-1.8c0.6-0.2,1-0.6,1.3-1.2c0.3-0.6,0.3-1.2,0.1-1.8c0.7-0.2,1.2-0.8,1.5-1.5c0.2-0.5,0.2-1.1,0.1-1.6
			c0.9-0.2,1.6-0.8,1.8-1.7c0.1-0.4,0.1-0.8,0-1.2c0.8-0.1,1.4-0.6,1.8-1.3c0.4-0.7,0.4-1.5,0.1-2.2C659.8,70.1,660.5,69,660.5,67.8
			z M656.2,62.9c0.3-0.1,0.6,0,0.9,0.2c0.3,0.2,0.5,0.5,0.6,0.8c0.1,0.3,0,0.7-0.1,1c-0.2,0.3-0.4,0.5-0.7,0.6l-9.4,0.8l-0.3-1.9
			L656.2,62.9z M655,60.1c0.3,0.1,0.5,0.4,0.6,0.7c0.1,0.3,0,0.7-0.1,0.9c-0.2,0.3-0.4,0.5-0.8,0.5l-7.6,1.4l-0.3-1.8l7.4-1.9
			C654.4,59.9,654.8,59.9,655,60.1z M653.1,57c0.3,0.1,0.5,0.4,0.6,0.7c0.1,0.3,0.1,0.7,0,1c-0.1,0.3-0.4,0.5-0.7,0.7l-6.6,2
			l-0.6-1.9l6.3-2.4C652.5,56.8,652.9,56.8,653.1,57z M644.8,76.8c-3.5,8.8-11.7,14.5-20.9,14.5c-6,0-11.7-2.4-16-6.9
			c-4.3-4.4-6.6-10.3-6.6-16.6c0-9.5,5.5-18,14-21.7c8.5-3.6,18.2-1.6,24.6,5.1C646.4,58,648.3,68,644.8,76.8z M651.6,53.9
			c0.3,0.1,0.5,0.3,0.6,0.6c0.1,0.3,0.1,0.6,0,0.8c-0.1,0.3-0.3,0.5-0.6,0.6l-6.1,2.6l-0.7-1.6l5.9-3
			C651.1,53.8,651.4,53.8,651.6,53.9z M650.7,51.4c0.2,0.3,0.2,0.7,0.1,1c-0.1,0.3-0.3,0.6-0.6,0.8l-5.7,3.2l-1-1.8l5.5-3.7
			c0.3-0.2,0.7-0.2,1-0.1C650.3,50.8,650.6,51.1,650.7,51.4z M649.4,48c0.2,0.2,0.3,0.6,0.2,0.9c0,0.3-0.2,0.6-0.5,0.8l-6,4.4
			l-1-1.4l5.6-4.7c0.2-0.2,0.5-0.3,0.8-0.3C648.9,47.6,649.2,47.7,649.4,48z M648,44.4c0.3,0.3,0.4,0.7,0.4,1c0,0.4-0.2,0.8-0.5,1
			c-2,1.9-4.1,3.8-6.2,5.6c-0.4-0.5-0.9-1-1.3-1.5l5.7-6c0.2-0.3,0.6-0.5,1-0.5C647.4,44,647.7,44.1,648,44.4z M646.8,40.4
			c0.3,0.2,0.4,0.5,0.5,0.9c0,0.3,0,0.7-0.2,1l-7,7.8h0l-0.7-0.6l-0.6-0.5l6.3-8.3c0.2-0.3,0.5-0.5,0.8-0.5
			C646.1,40.1,646.5,40.2,646.8,40.4z M643.4,36.2c0.1-0.1,0.1-0.2,0.2-0.2c0,0,0.1-0.1,0.1-0.1c0.2-0.2,0.4-0.3,0.6-0.3
			c0.4-0.1,0.8,0,1.1,0.2c0.1,0.1,0.2,0.2,0.3,0.3c0.1,0.1,0.2,0.2,0.2,0.4c0,0.1,0.1,0.2,0.1,0.3c0.1,0.4,0,0.8-0.2,1.1
			c-0.1,0.1-0.1,0.2-0.2,0.3c0,0-0.1,0.1-0.1,0.1c-1.3,2-6.9,9.4-7.6,10.3l-1.4-0.9L643.4,36.2z M638.4,34.2
			c0.2-0.4,0.5-0.8,0.9-0.9c0.1,0,0.2-0.1,0.3-0.1c0,0,0,0,0,0c0,0,0.1,0,0.1,0c0,0,0,0,0,0c0,0,0.1,0,0.1,0c0,0,0,0,0.1,0
			c0,0,0.1,0,0.1,0c0,0,0,0,0.1,0c0,0,0.1,0,0.1,0c0,0,0,0,0,0c0.1,0,0.2,0.1,0.4,0.1c0.4,0.2,0.7,0.5,0.9,0.9
			c0.2,0.4,0.1,0.9-0.1,1.3l-0.1,0.2l-6,11c-0.6-0.3-1.2-0.7-1.9-1L638.4,34.2z M635.9,34c0-0.2,0.2-0.4,0.4-0.5
			c0.2-0.1,0.4-0.1,0.6-0.1c0.2,0.1,0.4,0.2,0.5,0.5c0.1,0.2,0.1,0.5-0.1,0.7l-4.4,10.9c-0.3-0.1-0.6-0.3-0.9-0.4L635.9,34z
			 M633.5,33.8c0.1-0.2,0.2-0.4,0.4-0.5c0.2-0.1,0.4-0.1,0.6,0c0.2,0.1,0.4,0.2,0.4,0.4c0.1,0.2,0.1,0.4,0,0.6l-3.5,10.5
			c-0.3-0.1-0.6-0.2-1-0.3L633.5,33.8z M631.7,32.9c0.1-0.1,0.3-0.1,0.5-0.1c0.2,0,0.3,0.2,0.4,0.3c0.1,0.2,0.1,0.4,0,0.5l-2.8,10.7
			c-0.3-0.1-0.5-0.1-0.8-0.2c0,0,2.2-9.9,2.4-10.8C631.4,33.1,631.5,33,631.7,32.9z M629.1,32.7c0.1-0.2,0.2-0.4,0.4-0.5
			c0.2-0.1,0.4-0.1,0.6-0.1c0.2,0,0.4,0.2,0.5,0.3c0.1,0.2,0.2,0.4,0.1,0.6l-2.2,11c-0.4-0.1-0.7-0.1-1.1-0.2L629.1,32.7z M627,31.2
			c0.2-0.1,0.4-0.2,0.7-0.1c0.2,0,0.4,0.2,0.6,0.4c0.1,0.2,0.2,0.4,0.2,0.7l-1.5,11.6c-0.4-0.1-0.8-0.1-1.2-0.1l0.9-11.8
			C626.7,31.6,626.8,31.4,627,31.2z M622.5,29.7c0.3-0.4,0.8-0.6,1.2-0.6c0.1,0,0.2,0,0.3,0c0.5,0,0.9,0.3,1.3,0.7
			c0.3,0.4,0.5,0.9,0.5,1.4l-0.7,12.5c-0.4,0-0.8,0-1.2,0c-0.4,0-0.8,0-1.2,0c0,0-0.6-10.3-0.6-12.6C622,30.5,622.2,30,622.5,29.7z
			 M619.6,31.5c0.1-0.2,0.3-0.3,0.6-0.4c0.2,0,0.5,0,0.7,0.1c0.2,0.1,0.3,0.3,0.4,0.6l0.9,11.8c-0.4,0-0.8,0.1-1.2,0.1l-1.4-11.6
			C619.4,31.9,619.5,31.7,619.6,31.5z M617.3,32.4c0.1-0.2,0.3-0.3,0.5-0.3c0.2,0,0.4,0,0.6,0.1c0.2,0.1,0.3,0.3,0.4,0.5l1.6,11.1
			c-0.4,0.1-0.7,0.1-1.1,0.2l-2.1-11C617.2,32.8,617.2,32.6,617.3,32.4z M615.3,33.1c0.1-0.2,0.2-0.3,0.4-0.3c0.2,0,0.4,0,0.5,0.1
			c0.1,0.1,0.3,0.3,0.3,0.4c0.2,0.9,2.3,10.8,2.3,10.8c-0.3,0.1-0.5,0.1-0.8,0.2l-2.7-10.7C615.2,33.5,615.2,33.3,615.3,33.1z
			 M613.4,33.3c0.2-0.1,0.4-0.1,0.6,0c0.2,0.1,0.3,0.3,0.4,0.5l3,10.7c-0.3,0.1-0.6,0.2-1,0.3L613,34.3c-0.1-0.2-0.1-0.4,0-0.6
			C613,33.5,613.2,33.3,613.4,33.3z M610.5,33.9c0.1-0.2,0.2-0.4,0.5-0.5c0.2-0.1,0.4-0.1,0.6,0.1c0.2,0.1,0.3,0.3,0.4,0.5l4,11
			c-0.3,0.1-0.6,0.2-0.9,0.4l-4.4-10.9C610.5,34.3,610.4,34.1,610.5,33.9z M606.4,34.7c0-0.2,0-0.3,0.1-0.5c0.1-0.2,0.1-0.3,0.2-0.4
			c0.2-0.2,0.4-0.4,0.7-0.5c0.1-0.1,0.3-0.1,0.4-0.1c0,0,0,0,0,0c0,0,0.1,0,0.1,0c0,0,0.1,0,0.1,0l0,0c0.2,0,0.4,0.1,0.6,0.1
			c0.4,0.2,0.7,0.5,0.9,0.9l5,11.4c-0.6,0.3-1.3,0.6-1.9,1l-6.1-11.1c-0.1-0.2-0.2-0.4-0.2-0.7C606.4,34.8,606.4,34.8,606.4,34.7
			C606.4,34.7,606.4,34.7,606.4,34.7z M601.8,36.6c0.1-0.4,0.3-0.7,0.6-0.9c0.3-0.2,0.7-0.3,1.1-0.2c0.4,0.1,0.7,0.3,0.9,0.7
			l6.9,11.4l-1.4,0.9c-1.5-2-6.5-8.6-7.9-10.7C601.8,37.4,601.7,37,601.8,36.6z M601.1,40.4c0.3-0.2,0.6-0.3,0.9-0.2
			c0.3,0.1,0.6,0.2,0.8,0.5l6.3,8.3l-1.2,1.1l-7-7.8c-0.2-0.3-0.3-0.6-0.2-1C600.7,40.9,600.8,40.6,601.1,40.4z M599.8,44.4
			c0.3-0.3,0.6-0.4,1-0.4c0.4,0,0.7,0.2,1,0.5l5.7,6c-0.4,0.5-0.9,1-1.3,1.5c-2.1-1.8-4.2-3.7-6.2-5.6c-0.3-0.2-0.5-0.6-0.5-1
			C599.4,45,599.6,44.7,599.8,44.4z M598.5,48c0.2-0.2,0.5-0.4,0.8-0.4c0.3,0,0.6,0.1,0.8,0.3l5.6,4.7l-1,1.4l-6-4.4
			c-0.2-0.2-0.4-0.5-0.5-0.8C598.2,48.5,598.3,48.2,598.5,48z M597.1,51.4c0.2-0.3,0.4-0.5,0.8-0.6c0.3-0.1,0.7-0.1,1,0.1l5.5,3.7
			l-1,1.8l-5.7-3.2c-0.3-0.2-0.5-0.5-0.6-0.8C596.9,52,596.9,51.7,597.1,51.4z M595.6,54.5c0.1-0.3,0.3-0.5,0.6-0.6
			c0.3-0.1,0.6-0.1,0.8,0.1l5.9,3l-0.7,1.6l-6.1-2.6c-0.3-0.1-0.5-0.3-0.6-0.6C595.5,55,595.5,54.7,595.6,54.5z M594.1,57.6
			c0.1-0.3,0.3-0.6,0.6-0.7c0.3-0.1,0.6-0.1,0.9,0l6.3,2.4l-0.6,1.9l-6.6-2c-0.3-0.1-0.5-0.4-0.7-0.7C594,58.3,594,58,594.1,57.6z
			 M592.2,60.8c0.1-0.3,0.3-0.6,0.6-0.7c0.3-0.1,0.6-0.2,0.9,0l7.4,1.9l-0.3,1.8l-7.6-1.4c-0.3-0.1-0.6-0.2-0.8-0.5
			C592.2,61.5,592.2,61.1,592.2,60.8z M590.2,63.9c0.1-0.3,0.3-0.6,0.6-0.8c0.3-0.2,0.6-0.2,0.9-0.2l9,1.4l-0.3,1.9l-9.4-0.8
			c-0.3-0.1-0.6-0.3-0.7-0.6C590.2,64.6,590.1,64.2,590.2,63.9z M589.9,69.3c-0.4,0-0.7-0.2-1-0.5c-0.2-0.3-0.4-0.6-0.4-1
			c0-0.4,0.1-0.7,0.4-1c0.2-0.3,0.6-0.5,1-0.5l10.6,0.5l0,1l0,1L589.9,69.3z M591.7,72.7c-0.3,0.1-0.6,0-0.9-0.2
			c-0.3-0.2-0.5-0.5-0.6-0.8c-0.1-0.3,0-0.7,0.1-1c0.2-0.3,0.4-0.5,0.7-0.6l9.4-0.8l0.3,1.9L591.7,72.7z M592.8,75.6
			c-0.3-0.1-0.5-0.4-0.6-0.7c-0.1-0.3,0-0.7,0.1-0.9c0.2-0.3,0.4-0.5,0.8-0.5l7.6-1.4l0.3,1.8l-7.4,1.9
			C593.4,75.7,593.1,75.7,592.8,75.6z M594.7,78.7c-0.3-0.1-0.5-0.4-0.6-0.7c-0.1-0.3-0.1-0.7,0-1c0.1-0.3,0.4-0.5,0.7-0.7l6.6-2
			l0.6,1.9l-6.3,2.4C595.3,78.9,595,78.9,594.7,78.7z M596.2,81.8c-0.3-0.1-0.5-0.3-0.6-0.6c-0.1-0.3-0.1-0.6,0-0.8
			c0.1-0.3,0.3-0.5,0.6-0.6l6.1-2.6l0.7,1.6l-5.9,3C596.8,81.9,596.5,81.9,596.2,81.8z M597.1,84.3c-0.2-0.3-0.2-0.7-0.1-1
			c0.1-0.3,0.3-0.6,0.6-0.8l5.7-3.2l1,1.8l-5.5,3.7c-0.3,0.2-0.7,0.2-1,0.1C597.6,84.9,597.3,84.6,597.1,84.3z M598.5,87.7
			c-0.2-0.2-0.3-0.6-0.2-0.9c0-0.3,0.2-0.6,0.5-0.8l6-4.4l1,1.4l-5.6,4.7c-0.2,0.2-0.5,0.3-0.8,0.3C598.9,88.1,598.7,88,598.5,87.7z
			 M599.8,91.3c-0.3-0.3-0.4-0.7-0.4-1c0-0.4,0.2-0.8,0.5-1c2-1.9,4.1-3.8,6.2-5.6c0.4,0.5,0.9,1,1.3,1.5l-5.7,6
			c-0.2,0.3-0.6,0.5-1,0.5C600.5,91.7,600.1,91.6,599.8,91.3z M601.1,95.2c-0.3-0.2-0.4-0.5-0.5-0.9c0-0.3,0-0.7,0.2-1l7-7.8
			l1.2,1.1l-6.3,8.3c-0.2,0.3-0.5,0.5-0.8,0.5C601.7,95.5,601.4,95.5,601.1,95.2z M604.4,99.5c-0.2,0.3-0.5,0.6-0.9,0.7
			c-0.4,0.1-0.8,0-1.1-0.2c-0.3-0.2-0.6-0.6-0.6-0.9c-0.1-0.4,0-0.8,0.2-1.1c1.4-2.1,6.4-8.7,7.9-10.7l1.4,0.9L604.4,99.5z
			 M609.5,101.5c-0.2,0.4-0.5,0.8-0.9,0.9c-0.2,0.1-0.4,0.1-0.6,0.1c0,0,0,0,0,0c0,0-0.1,0-0.1,0c0,0-0.1,0-0.1,0c0,0,0,0,0,0
			c-0.2,0-0.3,0-0.5-0.1c-0.3-0.1-0.5-0.3-0.7-0.5c-0.1-0.1-0.2-0.3-0.2-0.4c-0.1-0.2-0.1-0.3-0.1-0.5c0,0,0,0,0,0c0,0,0-0.1,0-0.1
			c0-0.2,0.1-0.5,0.2-0.7l6.1-11.1c0.6,0.3,1.2,0.7,1.9,1L609.5,101.5z M612,101.7c0,0.2-0.2,0.4-0.4,0.5c-0.2,0.1-0.4,0.1-0.6,0.1
			c-0.2-0.1-0.4-0.2-0.5-0.5c-0.1-0.2-0.1-0.5,0.1-0.7l4.4-10.9c0.3,0.1,0.6,0.3,0.9,0.4L612,101.7z M614.4,101.9
			c-0.1,0.2-0.2,0.4-0.4,0.5c-0.2,0.1-0.4,0.1-0.6,0c-0.2-0.1-0.4-0.2-0.4-0.4c-0.1-0.2-0.1-0.4,0-0.6l3.5-10.5
			c0.3,0.1,0.6,0.2,1,0.3L614.4,101.9z M616.2,102.8c-0.2,0.1-0.3,0.1-0.5,0.1c-0.2,0-0.3-0.2-0.4-0.3c-0.1-0.2-0.1-0.4,0-0.5
			l2.7-10.7c0.3,0.1,0.5,0.1,0.8,0.2c0,0-2.1,9.9-2.3,10.8C616.5,102.5,616.4,102.7,616.2,102.8z M618.8,103
			c-0.1,0.2-0.2,0.4-0.4,0.5c-0.2,0.1-0.4,0.1-0.6,0.1c-0.2,0-0.4-0.2-0.5-0.3c-0.1-0.2-0.2-0.4-0.1-0.6l2.1-11
			c0.4,0.1,0.7,0.1,1.1,0.2L618.8,103z M621.2,103.9c0,0.2-0.2,0.5-0.4,0.6c-0.2,0.1-0.4,0.2-0.7,0.1c-0.2,0-0.4-0.2-0.6-0.4
			c-0.1-0.2-0.2-0.4-0.2-0.7l1.4-11.6c0.4,0.1,0.8,0.1,1.2,0.1L621.2,103.9z M625.4,106c-0.3,0.4-0.8,0.6-1.3,0.7
			c-0.1,0-0.2,0-0.3,0c-0.5,0-0.9-0.3-1.2-0.6c-0.3-0.4-0.5-0.9-0.5-1.3c0.1-2.3,0.6-12.6,0.6-12.6c0.4,0,0.8,0,1.2,0
			c0.4,0,0.8,0,1.2,0l0.7,12.5C625.9,105.1,625.7,105.6,625.4,106z M628.2,104.2c-0.1,0.2-0.3,0.3-0.6,0.4c-0.2,0-0.5,0-0.7-0.1
			c-0.2-0.1-0.3-0.3-0.4-0.6L625.7,92c0.4,0,0.8-0.1,1.2-0.1l1.5,11.6C628.4,103.8,628.4,104,628.2,104.2z M630.5,103.2
			c-0.1,0.2-0.3,0.3-0.5,0.3c-0.2,0-0.4,0-0.6-0.1c-0.2-0.1-0.3-0.3-0.4-0.5l-1.6-11.1c0.4-0.1,0.7-0.1,1.1-0.2l2.2,11
			C630.7,102.8,630.6,103.1,630.5,103.2z M632.6,102.5c-0.1,0.2-0.2,0.3-0.4,0.3c-0.2,0-0.4,0-0.5-0.1c-0.1-0.1-0.3-0.3-0.3-0.4
			c-0.2-1-2.4-10.8-2.4-10.8c0.3-0.1,0.5-0.1,0.8-0.2l2.8,10.7C632.7,102.2,632.6,102.4,632.6,102.5z M634.5,102.4
			c-0.2,0.1-0.4,0.1-0.6,0c-0.2-0.1-0.3-0.3-0.4-0.5l-3-10.7c0.3-0.1,0.6-0.2,1-0.3l3.5,10.5c0.1,0.2,0.1,0.4,0,0.6
			C634.8,102.2,634.7,102.3,634.5,102.4z M637.3,101.8c-0.1,0.2-0.2,0.4-0.5,0.5c-0.2,0.1-0.4,0.1-0.6-0.1c-0.2-0.1-0.3-0.3-0.4-0.5
			l-4-11c0.3-0.1,0.6-0.2,0.9-0.4l4.4,10.9C637.4,101.4,637.4,101.6,637.3,101.8z M641.4,101.5c-0.2,0.4-0.5,0.8-0.9,0.9
			c-0.1,0-0.2,0.1-0.4,0.1c0,0,0,0,0,0c0,0-0.1,0-0.1,0c0,0,0,0-0.1,0c0,0-0.1,0-0.1,0c0,0,0,0-0.1,0c0,0-0.1,0-0.1,0l0,0
			c0,0-0.1,0-0.1,0c0,0,0,0,0,0c-0.1,0-0.2,0-0.3-0.1c-0.4-0.2-0.7-0.5-0.9-0.9l-5-11.4c0.6-0.3,1.3-0.6,1.9-1l6,11l0.1,0.2
			C641.6,100.6,641.6,101.1,641.4,101.5z M646.1,99.1c0,0.1-0.1,0.2-0.1,0.3c-0.1,0.1-0.1,0.3-0.2,0.4c-0.1,0.1-0.2,0.2-0.3,0.3
			c-0.3,0.2-0.7,0.3-1.1,0.2c-0.2-0.1-0.5-0.2-0.6-0.3c0,0-0.1-0.1-0.1-0.1c-0.1-0.1-0.1-0.2-0.2-0.2l-6.9-11.4l1.4-0.9
			c0.7,0.9,6.3,8.3,7.6,10.3c0,0,0.1,0.1,0.1,0.1c0.1,0.1,0.2,0.2,0.2,0.3C646.1,98.3,646.2,98.7,646.1,99.1z M646.8,95.2
			c-0.3,0.2-0.6,0.3-0.9,0.2c-0.3-0.1-0.6-0.2-0.8-0.5l-6.3-8.3l0.6-0.5l0.7-0.6l7,7.8c0.2,0.3,0.3,0.6,0.2,1
			C647.2,94.7,647,95,646.8,95.2z M648,91.3c-0.3,0.3-0.6,0.4-1,0.4c-0.4,0-0.7-0.2-1-0.5l-5.7-6c0.4-0.5,0.9-1,1.3-1.5
			c2.1,1.8,4.2,3.7,6.2,5.6c0.3,0.2,0.5,0.6,0.5,1C648.4,90.6,648.3,91,648,91.3z M649.4,87.7c-0.2,0.2-0.5,0.4-0.8,0.4
			c-0.3,0-0.6-0.1-0.8-0.3l-5.6-4.7l1-1.4l6,4.4c0.2,0.2,0.4,0.5,0.5,0.8C649.7,87.2,649.6,87.5,649.4,87.7z M650.7,84.3
			c-0.2,0.3-0.4,0.5-0.8,0.6c-0.3,0.1-0.7,0.1-1-0.1l-5.5-3.7l1-1.8l5.7,3.2c0.3,0.2,0.5,0.5,0.6,0.8C651,83.6,650.9,84,650.7,84.3z
			 M652.2,81.2c-0.1,0.3-0.3,0.5-0.6,0.6c-0.3,0.1-0.6,0.1-0.8-0.1l-5.9-3l0.7-1.6l6.1,2.6c0.3,0.1,0.5,0.3,0.6,0.6
			C652.4,80.6,652.4,81,652.2,81.2z M653.8,78c-0.1,0.3-0.3,0.6-0.6,0.7c-0.3,0.1-0.6,0.1-0.9,0l-6.3-2.4l0.6-1.9l6.6,2
			c0.3,0.1,0.5,0.4,0.7,0.7C653.9,77.4,653.9,77.7,653.8,78z M655.6,74.9c-0.1,0.3-0.3,0.6-0.6,0.7c-0.3,0.1-0.6,0.2-0.9,0l-7.4-1.9
			l0.3-1.8l7.6,1.4c0.3,0.1,0.6,0.2,0.8,0.5C655.7,74.2,655.7,74.5,655.6,74.9z M657.6,71.8c-0.1,0.3-0.3,0.6-0.6,0.8
			c-0.3,0.2-0.6,0.2-0.9,0.2l-9-1.4l0.3-1.9l9.4,0.8c0.3,0.1,0.6,0.3,0.7,0.6C657.7,71.1,657.7,71.4,657.6,71.8z M659,68.8
			c-0.2,0.3-0.6,0.5-1,0.5l-10.6-0.5l0-1l0-1l10.6-0.5c0.4,0,0.7,0.2,1,0.5c0.2,0.3,0.4,0.6,0.4,1C659.3,68.2,659.2,68.5,659,68.8z"
			/>
		<g id="XMLID_64_">
			<defs>
				<path id="XMLID_65_" d="M617.5,51.8c-6.2,2.7-10.3,9-10.3,16c0,4.6,1.8,9,4.9,12.3c3.1,3.3,7.4,5.1,11.8,5.1
					c6.8,0,12.8-4.2,15.4-10.7c2.6-6.5,1.2-13.9-3.6-18.9c-3.2-3.3-7.5-5.1-11.8-5.1C621.7,50.5,619.6,50.9,617.5,51.8"/>
			</defs>
			<clipPath id="XMLID_2_">
				<use xlink:href="#XMLID_65_"  style="overflow:visible;"/>
			</clipPath>
			<path id="XMLID_77_" class="st1" d="M627.9,58.8v-2.1h-2.1v1.9H625v-1.9h-2.2v1.9H622v-1.9h-2.2v2.1l1.1,1.8
				c0,0.1,0.1,0.1,0.1,0.2l0,9.5h1l0-3.4c0-0.8,0.9-1.5,1.9-1.5c1,0,1.9,0.7,1.9,1.5l0,3.4h1.1l0-3.6c0,0,0,0,0-0.1v-1.8
				c0,0,0,0,0,0l0-1.3v0v-0.6l0-2.2c0-0.1,0-0.1,0.1-0.2L627.9,58.8z"/>
			<path id="XMLID_76_" class="st1" d="M620.1,70.5l0-3.1l-0.4,0.2c-0.1,0.1-0.3,0.1-0.4,0l-0.5-0.3c0,0,0,0,0,0l0,1.2
				c0,0.1-0.1,0.2-0.2,0.3c0,0,0.1,0,0.1,0.1c0.6,0.4,0.6,1.1,0.5,1.6H620.1z"/>
			<path id="XMLID_75_" class="st1" d="M623.8,66.2c-0.6,0-1.1,0.5-1.1,0.7l0,3.4h2.2l0-3.4C624.9,66.6,624.5,66.2,623.8,66.2"/>
			<path id="XMLID_74_" class="st1" d="M611.2,70.5c-0.1-0.3-0.2-0.6-0.3-1c-0.1-0.7-0.1-1.3-0.1-1.3c0-0.2,0.1-0.3,0.3-0.4l0.9-0.3
				l-1-0.7c-0.1-0.1-0.2-0.2-0.2-0.3v-1.2c0-0.2,0.1-0.3,0.2-0.4l0.4-0.2v-0.4l-0.4-0.1c-0.2-0.1-0.3-0.2-0.3-0.4l0-1.4
				c0-0.2,0.2-0.4,0.4-0.4l1.3,0c0-0.3,0-0.8,0.1-1.2c0.1-0.5,0.4-1.1,0.5-1.3l-0.1-0.5c0-0.1,0-0.2,0.1-0.3
				c0.1-0.1,0.2-0.1,0.3-0.1h0.7c0.1,0,0.2,0,0.2,0.1l1.7,1.1h0.8c0.1,0,0.2,0,0.3,0.1c0.1,0.1,0.1,0.2,0.1,0.3l-0.1,1.3
				c0,0.1-0.1,0.2-0.1,0.3l0.5,0c0.1,0,0.2,0,0.3,0.1l0.2,0.2l0.2-0.1l0.3-0.6c0.1-0.1,0.2-0.2,0.4-0.2h1.1v-0.2l-1.1-1.8
				c0-0.1-0.1-0.1-0.1-0.2v-2.6c0-0.2,0.2-0.4,0.4-0.4h2.6h0.8h2.2h0.8h2.5c0.2,0,0.4,0.2,0.4,0.4v2.6c0,0.1,0,0.1-0.1,0.2l-1.1,1.8
				v0.2h1.1c0.2,0,0.3,0.1,0.4,0.2l0.3,0.6l0.2,0.1l0.2-0.2c0.1-0.1,0.2-0.1,0.3-0.1l0.5,0c-0.1-0.1-0.1-0.2-0.1-0.3l-0.1-1.3
				c0-0.1,0-0.2,0.1-0.3c0.1-0.1,0.2-0.1,0.3-0.1h0.8l1.7-1.1c0.1,0,0.1-0.1,0.2-0.1h0.7c0.1,0,0.2,0.1,0.3,0.1
				c0.1,0.1,0.1,0.2,0.1,0.3l-0.1,0.5c0.1,0.3,0.4,0.8,0.5,1.3c0.1,0.4,0.1,0.8,0.1,1.2l1.3,0c0.2,0,0.4,0.2,0.4,0.4l0,1.4
				c0,0.2-0.1,0.3-0.3,0.4l-0.4,0.1v0.4l0.4,0.2c0.1,0.1,0.2,0.2,0.2,0.4v1.2c0,0.1-0.1,0.3-0.2,0.3l-1,0.7l0.9,0.3
				c0.2,0.1,0.3,0.2,0.3,0.4c0,0,0,0.6-0.1,1.3c-0.1,0.4-0.1,0.7-0.3,1h1.5c0,0,2.6,0,2.6,0l0-24.3l-34.1,0v24.3L611.2,70.5z"/>
			<path id="XMLID_73_" class="st1" d="M629,68.9c0,0,0.1-0.1,0.1-0.1c-0.1-0.1-0.2-0.2-0.2-0.3l0-1.2c0,0,0,0,0,0l-0.5,0.3
				c-0.1,0.1-0.3,0.1-0.4,0l-0.4-0.2l0,3.1h0.8C628.4,70,628.4,69.3,629,68.9"/>
			<path id="XMLID_72_" class="st1" d="M634.5,79.1c-0.2,0-0.4-0.2-0.4-0.4v-2.7c0-0.2-0.1-0.5-0.3-0.6c-0.2-0.2-0.4-0.3-0.9-0.3
				c-0.6,0-1,0.5-1.1,1v2.7c0,0.1,0,0.2-0.1,0.3c-0.1,0.1-0.2,0.1-0.3,0.1h-2.5c-0.2,0-0.4-0.2-0.4-0.4v-2.7c0-0.2-0.1-0.5-0.3-0.6
				c-0.2-0.2-0.4-0.3-0.9-0.3c-0.3,0-0.5,0.1-0.7,0.3l2,10.4c2.9-1.3,9.6-3.3,11.4-6.5H634.5z"/>
			<path id="XMLID_71_" class="st1" d="M627.9,85.9L625,71.3h-2.3l-2.9,14.6c0,0,0,0,0,0.1c2,0.8,3.6,1.2,4,1.4
				C624.3,87.2,625.9,86.7,627.9,85.9C627.9,85.9,627.9,85.9,627.9,85.9"/>
			<path id="XMLID_70_" class="st1" d="M621.1,75.2c-0.2-0.2-0.4-0.3-0.7-0.3h0c-0.4,0-0.7,0.2-0.8,0.3c-0.2,0.2-0.3,0.4-0.3,0.6
				v2.7c0,0.2-0.2,0.4-0.4,0.4h-2.5c-0.1,0-0.2,0-0.3-0.1c-0.1-0.1-0.1-0.2-0.1-0.3V76c-0.1-0.5-0.4-1-1.1-1h0
				c-0.4,0-0.7,0.2-0.8,0.3c-0.2,0.2-0.3,0.4-0.3,0.6v2.7c0,0.2-0.2,0.4-0.4,0.4h-5.1c1.8,3.2,8.1,5.3,10.9,6.5L621.1,75.2z"/>
			<path id="XMLID_69_" class="st1" d="M638,71.3h-12.2l0.6,3.1c0.3-0.1,0.6-0.2,0.9-0.2c0.5,0,1.1,0.2,1.5,0.6
				c0.3,0.3,0.6,0.8,0.6,1.2v2.3h1.6v-2.3c0,0,0,0,0,0c0.1-1,0.9-1.7,1.9-1.8c0.6,0,1.1,0.2,1.5,0.6c0.3,0.3,0.6,0.8,0.6,1.2v2.3
				h5.1c0.6-1.2,0.9-6.9,0.9-6.9C640.9,71.3,638.1,71.3,638,71.3"/>
			<path id="XMLID_68_" class="st1" d="M612.8,78.2v-2.3c0-0.4,0.2-0.9,0.6-1.2c0.4-0.4,0.9-0.6,1.4-0.6c1,0,1.8,0.8,1.9,1.8
				c0,0,0,0,0,0v2.3h1.6v-2.3c0-0.4,0.2-0.9,0.6-1.2c0.4-0.4,0.9-0.6,1.5-0.6c0.3,0,0.6,0.1,0.9,0.2l0.6-3h-14.5
				c0,0,0.2,5.7,0.8,6.9H612.8z"/>
			<path id="XMLID_67_" class="st1" d="M613.8,69.6h0.7c0.1,0.1,0.1,0.2,0.1,0.3c0,0.1,0,0.1,0,0.2c0,0.1,0,0.3-0.1,0.4h-2.4
				c-0.3-0.2-0.5-1.2-0.5-1.9l1-0.3c0.2-0.1,0.3-0.2,0.3-0.4v-0.4c0-0.1-0.1-0.3-0.2-0.3l-1.1-0.8v-0.7l0.4-0.2
				c0.1-0.1,0.2-0.2,0.2-0.4v-0.9c0-0.2-0.1-0.3-0.3-0.4l-0.4-0.1l0-0.7l1.1,0l0.5,0.8l0,1.2l-0.4,1.1c0,0.1,0,0.3,0.1,0.4
				c0.1,0.1,0.2,0.2,0.3,0.2h0.3c0.2,0,0.4-0.1,0.4-0.3c0-0.2,0.1-0.7,0.2-1c0.1-0.2,0.4-0.6,0.6-0.8c0.1-0.2,0.1-0.4,0-0.5
				l-1.4-1.6c0-0.2-0.1-0.8,0-1.2c0.1-0.5,0.4-1,0.5-1.2c0.1-0.1,0.1-0.2,0.1-0.3l0-0.1h0.1l1.7,1.1c0.1,0,0.1,0.1,0.2,0.1h0.5
				l0,0.6l-0.5,0.2c-0.2,0.1-0.3,0.2-0.3,0.4l0,0.4c0,0.2,0.2,0.4,0.4,0.4l1.4,0l0.4,0.4c0.1,0.2,0.4,0.2,0.6,0c0,0,0.6-0.5,0.7-0.6
				l0.2-0.5h0.8v1l0,0.5c0,0-1.5,0.5-1.6,0.6c-0.1,0.1-0.2,0.5-0.1,0.6c0,0.1,0,0.2,0.2,0.3c0,0,0.4,0.3,0.6,0.4l0.4-0.4l0.6,0
				l0,1.4l-0.6,0.3l-1.7-1.2c-0.2-0.1-0.4-0.1-0.6,0.1l-0.3,0.3c-0.1,0.2-0.1,0.4,0,0.6l1,0.9l0,0.8l-1,0.4
				c-0.2,0.1-0.2,0.2-0.2,0.4v0.2c0,0.2,0.2,0.4,0.4,0.4h1.2c0.2,0.3,0.1,0.6,0,0.9h-2.8c-0.1-0.1-0.1-0.3-0.2-0.5
				c0-0.1,0-0.1,0-0.2c0-0.3,0-0.5,0.1-0.7l0.6-0.8c0.1-0.1,0.1-0.1,0.1-0.2l0-0.4c0-0.1-0.1-0.3-0.2-0.4c-0.1-0.1-0.3-0.1-0.4,0
				l-1,0.4c-0.1,0.1-0.2,0.2-0.3,0.3l-0.1,0.4l-0.6,0.2c-0.2,0.1-0.3,0.2-0.3,0.4v0.2C613.4,69.4,613.6,69.6,613.8,69.6"/>
			<path id="XMLID_66_" class="st1" d="M633.9,69.6h-0.7c-0.1,0.1-0.1,0.2-0.1,0.3c0,0.1,0,0.1,0,0.2c0,0.1,0,0.3,0.1,0.4h2.4
				c0.3-0.2,0.5-1.2,0.5-1.9l-1-0.3c-0.2-0.1-0.3-0.2-0.3-0.4v-0.4c0-0.1,0.1-0.3,0.2-0.3l1.1-0.8v-0.7l-0.4-0.2
				c-0.1-0.1-0.2-0.2-0.2-0.4v-0.9c0-0.2,0.1-0.3,0.3-0.4l0.4-0.1v-0.7l-1.1,0l-0.5,0.8l0,1.2l0.4,1.1c0,0.1,0,0.3-0.1,0.4
				c-0.1,0.1-0.2,0.2-0.3,0.2h-0.3c-0.2,0-0.4-0.1-0.4-0.3c0-0.2-0.1-0.7-0.2-1c-0.1-0.2-0.4-0.6-0.6-0.8c-0.1-0.2-0.1-0.4,0-0.5
				l1.4-1.6c0-0.2,0.1-0.8,0-1.2c-0.1-0.5-0.4-1-0.5-1.2c-0.1-0.1-0.1-0.2-0.1-0.3l0-0.1h-0.1l-1.7,1.1c-0.1,0-0.1,0.1-0.2,0.1h-0.5
				l0,0.6l0.5,0.2c0.2,0.1,0.3,0.2,0.3,0.4l0,0.4c0,0.2-0.2,0.4-0.4,0.4l-1.4,0l-0.4,0.4c-0.1,0.2-0.4,0.2-0.6,0
				c0,0-0.6-0.5-0.7-0.6l-0.2-0.5h-0.8v1v0.5c0,0,1.5,0.5,1.6,0.6c0.1,0.1,0.2,0.5,0.1,0.6c0,0.1,0,0.2-0.2,0.3c0,0-0.4,0.3-0.6,0.4
				l-0.4-0.4l-0.6,0l0,1.4l0.6,0.3l1.7-1.2c0.2-0.1,0.4-0.1,0.6,0.1l0.3,0.3c0.1,0.2,0.1,0.4,0,0.6l-1,0.9l0,0.8l1,0.4
				c0.1,0.1,0.2,0.2,0.2,0.4v0.2c0,0.2-0.2,0.4-0.4,0.4h-1.2c-0.2,0.3-0.1,0.6,0,0.9h2.8c0.1-0.1,0.1-0.3,0.2-0.5c0-0.1,0-0.1,0-0.2
				c0-0.3,0-0.5-0.1-0.7l-0.6-0.8c-0.1-0.1-0.1-0.1-0.1-0.2l0-0.4c0-0.1,0.1-0.3,0.2-0.4c0.1-0.1,0.3-0.1,0.4,0l1,0.4
				c0.1,0.1,0.2,0.2,0.3,0.3l0.1,0.4l0.6,0.2c0.2,0.1,0.3,0.2,0.3,0.4v0.2C634.3,69.4,634.1,69.6,633.9,69.6"/>
		</g>
		<path id="XMLID_63_" class="st0" d="M611.3,82.6L611.3,82.6c0.6-0.6,1.4-0.6,2,0c0.4,0.4,0.5,0.8,0.4,1.2l-0.7-0.1
			c0-0.3,0-0.5-0.2-0.7c-0.3-0.3-0.7-0.2-1,0.1l0,0c-0.3,0.3-0.3,0.7,0,1c0.2,0.2,0.4,0.2,0.7,0.2l0.1,0.7c-0.4,0.1-0.9,0-1.3-0.4
			C610.7,84.1,610.7,83.2,611.3,82.6"/>
		
			<rect id="XMLID_62_" x="612.7" y="84.7" transform="matrix(0.5789 -0.8154 0.8154 0.5789 189.2455 536.5514)" class="st0" width="2.8" height="0.8"/>
		<path id="XMLID_61_" class="st0" d="M615,85.9l0.7-1.4l0.7,0.3l-0.7,1.4c-0.2,0.4-0.1,0.6,0.2,0.8c0.3,0.1,0.5,0.1,0.7-0.3
			l0.7-1.4l0.7,0.3l-0.7,1.4c-0.4,0.8-1,0.9-1.7,0.6C614.9,87.3,614.6,86.7,615,85.9"/>
		<path id="XMLID_58_" class="st0" d="M618.5,85.9l1,0.3c1,0.3,1.4,0.9,1.2,1.7l0,0c-0.2,0.8-0.9,1.2-1.9,0.9l-1-0.3L618.5,85.9z
			 M619.1,88.1c0.4,0.1,0.8,0,0.9-0.5l0,0c0.1-0.4-0.1-0.8-0.6-0.9l-0.3-0.1l-0.4,1.4L619.1,88.1z"/>
		<path id="XMLID_55_" class="st0" d="M622.3,86.6l0.7,0.1l1,2.9l-0.8-0.1l-0.2-0.5l-1.1-0.1l-0.2,0.5l-0.8-0.1L622.3,86.6z
			 M622.9,88.3l-0.3-0.8l-0.4,0.8L622.9,88.3z"/>
		<path id="XMLID_52_" class="st0" d="M624.6,86.7l1.1-0.1c1-0.1,1.6,0.4,1.7,1.2l0,0c0.1,0.8-0.4,1.4-1.4,1.6l-1,0.1L624.6,86.7z
			 M626,88.7c0.5-0.1,0.7-0.3,0.7-0.8l0,0c-0.1-0.4-0.4-0.7-0.8-0.6l-0.3,0l0.2,1.4L626,88.7z"/>
		<path id="XMLID_49_" class="st0" d="M628.4,86l0.7-0.2l2,2.3l-0.8,0.3l-0.3-0.4l-1,0.3l0,0.5l-0.8,0.3L628.4,86z M629.6,87.4
			l-0.5-0.6l0,0.8L629.6,87.4z"/>
		<polygon id="XMLID_48_" class="st0" points="630.6,85.3 631.2,84.9 632.9,85.6 632.2,84.3 632.8,83.9 634.2,86.3 633.7,86.7 
			631.9,86 632.6,87.3 632,87.6 		"/>
		<path id="XMLID_45_" class="st0" d="M634,82.9l0.5-0.5l2.8,1.2l-0.6,0.6l-0.5-0.2l-0.8,0.7l0.2,0.5l-0.6,0.6L634,82.9z
			 M635.6,83.7l-0.8-0.4l0.3,0.8L635.6,83.7z"/>
		<path id="XMLID_44_" class="st0" d="M611.8,53.1l0-0.7c0.3,0,0.7-0.1,0.9-0.3c0.2-0.1,0.2-0.2,0.1-0.3l0,0
			c-0.1-0.1-0.2-0.1-0.5,0.1c-0.5,0.2-1,0.4-1.4-0.1l0,0c-0.3-0.4-0.2-0.9,0.3-1.3c0.4-0.3,0.7-0.4,1.1-0.4l0,0.7
			c-0.3,0-0.6,0.1-0.8,0.2c-0.1,0.1-0.2,0.2-0.1,0.3l0,0c0.1,0.1,0.2,0.1,0.5-0.1c0.6-0.3,1-0.3,1.3,0.1l0,0c0.3,0.4,0.2,1-0.4,1.4
			C612.8,53,612.3,53.1,611.8,53.1"/>
		<polygon id="XMLID_43_" class="st0" points="613.2,49.2 615.2,48.2 615.5,48.8 614.2,49.5 614.4,49.8 615.6,49.2 615.9,49.8 
			614.7,50.4 614.9,50.8 616.2,50.1 616.5,50.7 614.5,51.7 		"/>
		<path id="XMLID_42_" class="st0" d="M616.5,49.1L616.5,49.1c-0.3-0.8,0.2-1.6,1-1.8c0.5-0.2,0.8-0.1,1.2,0l-0.3,0.7
			c-0.2-0.1-0.5-0.1-0.7,0c-0.4,0.1-0.6,0.5-0.4,0.9l0,0c0.1,0.4,0.5,0.6,0.9,0.5c0.2-0.1,0.3-0.1,0.4-0.2l-0.1-0.3L618,49l-0.2-0.5
			l1.2-0.4l0.4,1.2c-0.2,0.3-0.5,0.6-1,0.8C617.6,50.3,616.8,49.9,616.5,49.1"/>
		<path id="XMLID_41_" class="st0" d="M619.9,48.3l-0.2-1.5l0.8-0.1l0.2,1.5c0.1,0.4,0.3,0.6,0.6,0.5c0.3,0,0.5-0.3,0.4-0.6
			l-0.2-1.5l0.8-0.1l0.2,1.5c0.1,0.9-0.3,1.3-1.1,1.4C620.6,49.5,620,49.1,619.9,48.3"/>
		<path id="XMLID_38_" class="st0" d="M623.3,46.3l1.3,0c0.4,0,0.7,0.1,0.9,0.3c0.2,0.2,0.2,0.4,0.2,0.6v0c0,0.4-0.2,0.7-0.6,0.8
			l0.6,1l-0.9,0l-0.5-0.8h0l-0.3,0l0,0.8l-0.8,0L623.3,46.3z M624.6,47.7c0.3,0,0.4-0.1,0.4-0.3v0c0-0.2-0.1-0.3-0.4-0.3l-0.5,0
			l0,0.7L624.6,47.7z"/>
		
			<rect id="XMLID_37_" x="625.6" y="47.6" transform="matrix(0.1421 -0.9899 0.9899 0.1421 490.4116 661.704)" class="st0" width="2.8" height="0.8"/>
		<path id="XMLID_34_" class="st0" d="M628.6,46.8l1,0.3c0.9,0.3,1.3,1,1.1,1.7l0,0c-0.2,0.8-0.9,1.2-1.9,0.9l-1-0.3L628.6,46.8z
			 M629.1,49.1c0.4,0.1,0.8,0,0.9-0.5l0,0c0.1-0.4-0.1-0.8-0.5-0.9l-0.3-0.1l-0.4,1.3L629.1,49.1z"/>
		<path id="XMLID_31_" class="st0" d="M632.8,48.2l0.7,0.3l-0.1,3l-0.7-0.4l0-0.5l-1-0.5l-0.4,0.4l-0.7-0.3L632.8,48.2z M632.7,50
			l0.1-0.8l-0.6,0.6L632.7,50z"/>
		<path id="XMLID_28_" class="st0" d="M635.3,49.6l0.9,0.6c0.8,0.6,0.9,1.4,0.4,2l0,0c-0.5,0.6-1.3,0.8-2.1,0.2l-0.8-0.6L635.3,49.6
			z M635,51.9c0.4,0.3,0.8,0.2,1-0.1l0,0c0.3-0.4,0.2-0.7-0.2-1l-0.3-0.2l-0.8,1.1L635,51.9z"/>
	</g>
</g>
</svg>
