<?xml version="1.0" encoding="utf-8"?>
<!-- Generator: Adobe Illustrator 24.0.0, SVG Export Plug-In . SVG Version: 6.00 Build 0)  -->
<svg version="1.1" id="Capa_1" xmlns="http://www.w3.org/2000/svg" xmlns:xlink="http://www.w3.org/1999/xlink" x="0px" y="0px"
	 viewBox="0 0 760 135" style="enable-background:new 0 0 760 135;" xml:space="preserve">
<style type="text/css">
	.st0{fill:#9F2241;}
	.st1{fill:#BC955C;}
	.st2{fill:#888B8D;}
	.st3{fill:#FFFFFF;}
	.st4{clip-path:url(#SVGID_2_);fill:#888B8D;}
</style>
<g>
	<path class="st0" d="M178.3,74.1c0.7,1.1,1.7,1.6,3,1.6c1.9,0,3-1.8,3-1.8l30.8-39.5c2.5-2.7,5.1-0.5,5.1-0.5
		c2.4,2.5,0.6,4.9,0.6,4.9l-6.9,8.8l0,0c-0.6,0.6-1,1.4-1,2.4c0,0.8,0.3,1.6,0.8,2.2v0l6.9,8.8l21.9-27.8l-8.7-11.1l-1.6-2.1
		c-1.4-2-4.6-2.5-4.6-2.5h-13.1c-3.5,0-5.4,2.4-5.4,2.4l-36.6,47L178.3,74.1z"/>
	<path class="st0" d="M176.7,50l-8.8-11.2c-1.8-2.9,0.8-4.9,0.8-4.9c3.3-1.9,5.2,1,5.2,1l7.3,9.3l8.6-11.1l-9.9-12.7
		c-2.4-3.4-6-2.9-6-2.9h-11.8c-3.8,0-5.4,2.4-5.4,2.4l-10.5,13.3L168.1,61L176.7,50z"/>
	<path class="st0" d="M210.5,59.6c0,0-1-1.6-3-1.5c-2,0-2.8,1.4-2.8,1.4l-31.1,40c-2.5,2.8-5.2,0.5-5.2,0.5
		c-2.4-2.5-0.4-4.9-0.4-4.9l7-9l0,0c0.6-0.6,1-1.4,1-2.4c0-0.8-0.3-1.6-0.8-2.2l0,0l-6.9-8.8l-21.9,28.1l12.2,15.5l19.2,0l38.6-49.4
		L210.5,59.6z"/>
	<path class="st0" d="M212.1,83.7l8.8,11.4c2,2.8-0.5,4.9-0.5,4.9c-3.4,2.3-5.5-1.1-5.5-1.1l-7.4-9.4l-8.6,11.1l12.4,15.8l19.1,0
		l12.2-15.7l-21.9-28L212.1,83.7z"/>
	<path class="st0" d="M242.5,58.2c-4.9,0-8.9,3.9-8.9,8.7c0,4.8,4,8.8,8.9,8.8c4.9,0,8.9-3.9,8.9-8.8
		C251.3,62.1,247.3,58.2,242.5,58.2 M242.5,71.7c-2.6,0-4.7-2.1-4.7-4.7c0-2.6,2.1-4.7,4.7-4.7c2.6,0,4.7,2.1,4.7,4.7
		C247.1,69.5,245,71.7,242.5,71.7"/>
	<path class="st0" d="M194.4,17.5c4.9,0,8.9-3.9,8.9-8.8c0-4.8-4-8.7-8.9-8.7c-4.9,0-8.9,3.9-8.9,8.7
		C185.5,13.6,189.5,17.5,194.4,17.5 M194.4,4c2.6,0,4.7,2.1,4.7,4.7c0,2.6-2.1,4.7-4.7,4.7c-2.6,0-4.7-2.1-4.7-4.7
		C189.7,6.2,191.8,4,194.4,4"/>
	<path class="st0" d="M155,66.9c0-4.8-4-8.7-8.9-8.7c-4.9,0-8.9,3.9-8.9,8.7c0,4.8,4,8.8,8.9,8.8C151,75.7,155,71.7,155,66.9
		 M141.5,66.9c0-2.6,2.1-4.7,4.7-4.7c2.6,0,4.7,2.1,4.7,4.7c0,2.6-2.1,4.7-4.7,4.7C143.6,71.6,141.5,69.5,141.5,66.9"/>
	<path class="st0" d="M194.4,116.4c-4.9,0-8.9,3.9-8.9,8.7c0,4.8,4,8.7,8.9,8.7c4.9,0,8.9-3.9,8.9-8.7
		C203.2,120.3,199.3,116.4,194.4,116.4 M194.4,129.8c-2.6,0-4.7-2.1-4.7-4.7c0-2.6,2.1-4.7,4.7-4.7c2.6,0,4.7,2.1,4.7,4.7
		C199,127.7,196.9,129.8,194.4,129.8"/>
	<path class="st1" d="M99.4,11.2v65.4c0,7.9-2.5,15.3-7.4,21.8c-4,5.3-9.6,10.1-16.7,14.3c-10.8,6.4-21.9,9.3-24.3,9.9
		c-2.5-0.6-13.4-3.5-24.2-9.9c-7.1-4.2-12.8-9-16.8-14.3C5,91.9,2.5,84.6,2.5,76.6V11.2H99.4 M101.8,8.7H0v67.9
		c0,37.3,50.9,48.5,50.9,48.5h0.1c0,0,50.9-11.2,50.9-48.5V8.7z"/>
	<path class="st1" d="M63.3,30.4v-6.2h-6.4V30h-2.5v-5.8h-6.6V30h-2.5v-5.8h-6.5v6.2l3.2,5.5c0.1,0.2,0.2,0.4,0.2,0.6l0,28.6h3.1
		l0-10.3c0-2.4,2.8-4.6,5.8-4.6c3,0,5.8,2.2,5.8,4.6l0,10.3h3.2l0-10.8c0,0,0-0.1,0-0.2v-5.4c0,0,0-0.1,0-0.1l0-3.9v0V43l0-6.5
		c0-0.2,0.1-0.4,0.2-0.6L63.3,30.4z"/>
	<path class="st1" d="M39.6,65.8l0-9.5L38.4,57c-0.4,0.3-0.9,0.2-1.4,0L35.7,56c0,0,0,0.1,0,0.1l0,3.6c0,0.4-0.2,0.7-0.5,1
		c0.1,0,0.3,0.1,0.4,0.2c1.7,1.3,1.8,3.3,1.4,4.8H39.6z"/>
	<path class="st1" d="M50.9,52.7c-1.9,0-3.3,1.4-3.3,2.1l0,10.3h6.5l0-10.3C54.2,54.1,52.8,52.7,50.9,52.7"/>
	<path class="st1" d="M12.7,65.8c-0.4-0.8-0.6-1.7-0.8-2.9c-0.3-2-0.3-3.8-0.2-3.9c0-0.5,0.4-1,0.9-1.1l2.7-0.8l-3.1-2.2
		c-0.3-0.2-0.5-0.6-0.5-1v-3.5c0-0.5,0.3-0.9,0.7-1.1l1.2-0.6v-1.2L12.5,47c-0.5-0.2-0.8-0.6-0.8-1.2l0-4.2c0-0.7,0.6-1.2,1.2-1.3
		l3.9,0c-0.1-1-0.1-2.4,0.2-3.6c0.3-1.6,1.2-3.3,1.7-4l-0.2-1.4c-0.1-0.4,0.1-0.7,0.3-1c0.2-0.3,0.6-0.4,0.9-0.4h2.1
		c0.2,0,0.5,0.1,0.7,0.2l5.1,3.2h2.3c0.3,0,0.7,0.1,0.9,0.4c0.2,0.2,0.4,0.6,0.3,0.9l-0.2,4c0,0.3-0.2,0.6-0.4,0.9l1.6,0
		c0.3,0,0.7,0.1,0.9,0.4l0.7,0.7l0.5-0.4l0.9-1.9c0.2-0.4,0.6-0.7,1.1-0.7h3.3v-0.7l-3.2-5.5c-0.1-0.2-0.2-0.4-0.2-0.6v-7.8
		c0-0.7,0.6-1.3,1.3-1.3h7.8h2.5h6.6h2.5h7.7c0.7,0,1.3,0.6,1.3,1.3v7.8c0,0.2-0.1,0.4-0.2,0.6l-3.2,5.5v0.7h3.3
		c0.5,0,0.9,0.3,1.1,0.7l0.9,1.9l0.5,0.4l0.7-0.7c0.2-0.2,0.6-0.4,0.9-0.4l1.6,0C71.1,39.3,71,39,71,38.6l-0.2-4
		c0-0.3,0.1-0.7,0.3-0.9c0.2-0.2,0.6-0.4,0.9-0.4h2.3l5.1-3.2c0.2-0.1,0.4-0.2,0.7-0.2h2.1c0.4,0,0.7,0.2,0.9,0.4
		c0.2,0.3,0.3,0.6,0.3,1l-0.2,1.4c0.4,0.8,1.3,2.5,1.6,4c0.2,1.2,0.2,2.6,0.2,3.6l3.9,0c0.7,0,1.2,0.6,1.2,1.3l0,4.2
		c0,0.5-0.3,1-0.8,1.2l-1.1,0.4v1.2l1.2,0.6c0.4,0.2,0.7,0.6,0.7,1.1v3.5c0,0.4-0.2,0.8-0.5,1L86.6,57l2.7,0.8
		c0.5,0.2,0.9,0.6,0.9,1.1c0,0.1,0.1,1.9-0.2,3.9c-0.2,1.1-0.4,2.1-0.8,2.9h4.6c0,0,0,0,0.1,0V17.4H8.2v48.4H12.7z"/>
	<path class="st1" d="M66.3,60.9c0.1-0.1,0.3-0.2,0.4-0.2c-0.3-0.2-0.5-0.6-0.5-1l0-3.6c0,0,0-0.1,0-0.1l-1.4,0.9
		c-0.4,0.3-0.9,0.3-1.4,0l-1.1-0.6l0,9.4h2.5C64.5,64.2,64.6,62.3,66.3,60.9"/>
	<path class="st1" d="M82.9,91.6c-0.7,0-1.3-0.6-1.3-1.3v-8.2c0-0.6-0.4-1.4-0.9-1.9c-0.5-0.5-1.3-1-2.6-1c-1.9,0-3.1,1.5-3.2,3v8.1
		c0,0.3-0.1,0.7-0.4,0.9c-0.2,0.2-0.6,0.4-0.9,0.4h-7.4c-0.7,0-1.3-0.6-1.3-1.3v-8.2c0-0.6-0.4-1.4-0.9-1.9c-0.5-0.5-1.3-1-2.6-1
		c-0.8,0-1.6,0.3-2.2,0.9l6.1,31.2c8.6-3.8,18.8-10,24.3-19.7H82.9z"/>
	<path class="st1" d="M63,112.1l-8.6-43.9h-7l-8.6,43.9c0,0.1,0,0.1,0,0.2c6,2.4,10.8,3.7,12.2,4.1c1.4-0.4,6.2-1.7,12.1-4.1
		C63.1,112.3,63,112.2,63,112.1"/>
	<path class="st1" d="M42.6,80.1c-0.6-0.5-1.3-0.8-2.1-0.8h-0.1c-1.2,0-2,0.5-2.5,1c-0.6,0.6-0.9,1.3-0.9,1.9v8.2
		c0,0.7-0.6,1.3-1.3,1.3h-7.4c-0.3,0-0.7-0.1-0.9-0.4C27.1,91,27,90.7,27,90.4v-8.1c-0.2-1.5-1.3-3-3.2-3h-0.1c-1.2,0-2,0.5-2.5,1
		c-0.6,0.6-0.9,1.3-0.9,1.9v8.2c0,0.7-0.6,1.3-1.3,1.3h-6.8c5.5,9.6,15.7,15.9,24.3,19.7L42.6,80.1z"/>
	<path class="st1" d="M93.7,68.3H57l1.8,9.2c0.8-0.4,1.7-0.7,2.7-0.7c1.6,0,3.2,0.6,4.4,1.7c1.1,1,1.7,2.4,1.7,3.7v6.9h4.9v-6.9
		c0,0,0-0.1,0-0.1c0.3-3,2.7-5.3,5.7-5.3c1.7,0,3.2,0.6,4.4,1.7c1.1,1,1.7,2.4,1.7,3.7v6.9H91c1.7-3.8,2.7-8,2.7-12.7L93.7,68.3
		C93.7,68.3,93.7,68.3,93.7,68.3"/>
	<path class="st1" d="M17.7,89.1v-6.9c0-1.3,0.6-2.7,1.7-3.7c1.2-1.1,2.7-1.7,4.4-1.7c3,0,5.4,2.3,5.7,5.3c0,0,0,0.1,0,0.1v6.9h4.9
		v-6.9c0-1.3,0.6-2.7,1.7-3.7c1.2-1.1,2.7-1.7,4.4-1.7c0.9,0,1.8,0.2,2.6,0.7l1.8-9.2H8.2v8.1c0,4.8,1,9,2.7,12.7H17.7z"/>
	<path class="st1" d="M20.7,63.2h2c0.2,0.3,0.2,0.5,0.3,0.8c0,0.2,0,0.3,0,0.5c0,0.4-0.1,0.9-0.2,1.2h-7.1c-1-0.7-1.5-3.5-1.6-5.8
		l3.1-1c0.5-0.2,0.9-0.6,0.9-1.2v-1.2c0-0.4-0.2-0.8-0.5-1l-3.5-2.4v-2.1l1.2-0.6c0.4-0.2,0.7-0.6,0.7-1.1v-2.8c0-0.5-0.3-1-0.8-1.2
		L14.2,45l0-2.1l3.3,0l1.6,2.6l0,3.6L18,52.4c-0.1,0.4-0.1,0.8,0.2,1.1c0.2,0.3,0.6,0.5,1,0.5h0.9c0.6,0,1.1-0.4,1.2-1.1
		c0.1-0.6,0.4-2.2,0.7-2.9c0.2-0.6,1.1-1.8,1.7-2.4c0.4-0.5,0.4-1.2,0-1.6l-4.3-4.9c-0.1-0.7-0.2-2.5,0-3.8c0.3-1.4,1.2-3.1,1.6-3.6
		c0.2-0.2,0.2-0.5,0.2-0.8l-0.1-0.4h0.3l5.1,3.2c0.2,0.1,0.4,0.2,0.7,0.2h1.4l-0.1,1.9l-1.6,0.6c-0.5,0.2-0.8,0.7-0.8,1.2l0,1.3
		c0,0.7,0.6,1.2,1.2,1.2l4.3,0l1.1,1.2c0.4,0.5,1.2,0.5,1.7,0.1c0,0,2-1.6,2-1.7l0.7-1.5h2.5V43l0,1.6c0,0-4.6,1.6-4.9,1.8
		c-0.3,0.2-0.5,1.6-0.4,1.9c0.1,0.3,0,0.5,0.5,0.8c0,0,1.3,1,1.7,1.2l1.3-1.3l1.8,0.1l0,4.2l-1.7,1l-5.3-3.6
		c-0.5-0.4-1.3-0.3-1.7,0.3l-0.8,1.1c-0.4,0.5-0.3,1.2,0.1,1.7l3,2.8l0,2.3l-3,1.3c-0.5,0.2-0.7,0.6-0.7,1.1v0.5
		c0,0.7,0.6,1.3,1.3,1.3h3.6c0.6,0.8,0.4,1.9,0.1,2.6H26c-0.3-0.3-0.4-0.8-0.5-1.4c0-0.2,0-0.3,0-0.5c0-0.8,0.1-1.6,0.2-2.1l1.9-2.5
		c0.2-0.2,0.2-0.5,0.3-0.7l0.1-1.2c0-0.4-0.2-0.8-0.5-1.1c-0.3-0.2-0.8-0.3-1.2-0.1l-3.1,1.3c-0.4,0.2-0.7,0.5-0.8,1l-0.2,1.3
		l-1.8,0.6c-0.5,0.2-0.9,0.6-0.9,1.2v0.5C19.4,62.6,20,63.2,20.7,63.2"/>
	<path class="st1" d="M81.2,63.2h-2c-0.2,0.3-0.2,0.5-0.3,0.8c0,0.2,0,0.3,0,0.5c0,0.4,0.1,0.9,0.2,1.2h7.1c1-0.7,1.5-3.5,1.6-5.8
		l-3.1-1c-0.5-0.2-0.9-0.6-0.9-1.2v-1.2c0-0.4,0.2-0.8,0.5-1l3.5-2.4v-2.1l-1.2-0.6c-0.4-0.2-0.7-0.6-0.7-1.1v-2.8
		c0-0.5,0.3-1,0.8-1.2l1.1-0.4l0-2.1l-3.3,0l-1.6,2.6l0,3.6l1.1,3.4c0.1,0.4,0.1,0.8-0.2,1.1c-0.2,0.3-0.6,0.5-1,0.5h-0.9
		c-0.6,0-1.1-0.4-1.2-1.1c-0.1-0.6-0.4-2.2-0.7-2.9c-0.2-0.6-1.1-1.8-1.7-2.4c-0.4-0.5-0.4-1.2,0-1.6l4.3-4.9c0.1-0.7,0.2-2.5,0-3.8
		c-0.3-1.4-1.2-3.1-1.6-3.6c-0.2-0.2-0.2-0.5-0.2-0.8l0.1-0.4h-0.3l-5.1,3.2c-0.2,0.1-0.4,0.2-0.7,0.2h-1.4l0.1,1.9l1.6,0.6
		c0.5,0.2,0.8,0.7,0.8,1.2l0,1.3c0,0.7-0.6,1.2-1.2,1.2l-4.3,0l-1.1,1.2c-0.4,0.5-1.2,0.5-1.7,0.1c0,0-2-1.6-2-1.7l-0.7-1.5h-2.5V43
		v1.6c0,0,4.6,1.6,4.9,1.8c0.3,0.2,0.5,1.6,0.4,1.9c-0.1,0.3,0,0.5-0.5,0.8c0,0-1.3,1-1.7,1.2l-1.3-1.3l-1.8,0.1l0,4.2l1.7,1
		l5.3-3.6c0.5-0.4,1.3-0.3,1.7,0.3l0.8,1.1c0.4,0.5,0.3,1.2-0.1,1.7l-3,2.8l0,2.3l3,1.3c0.5,0.2,0.7,0.6,0.7,1.1v0.5
		c0,0.7-0.6,1.3-1.3,1.3h-3.6c-0.6,0.8-0.4,1.9-0.1,2.6h8.4c0.3-0.3,0.4-0.8,0.5-1.4c0-0.2,0-0.3,0-0.5c0-0.8-0.1-1.6-0.2-2.1
		l-1.9-2.5c-0.2-0.2-0.3-0.5-0.3-0.7l-0.1-1.2c0-0.4,0.2-0.8,0.5-1.1c0.4-0.2,0.8-0.3,1.2-0.1l3.1,1.3c0.4,0.2,0.7,0.5,0.8,1
		l0.2,1.3l1.8,0.6c0.5,0.2,0.9,0.6,0.9,1.2v0.5C82.4,62.6,81.9,63.2,81.2,63.2"/>
	<path class="st0" d="M278.1,52.1L278.1,52.1c0-4.8,3.5-9,8.7-9c2.9,0,4.7,0.8,6.5,2.3l-1.3,1.5c-1.3-1.2-2.8-2-5.3-2
		c-3.8,0-6.6,3.2-6.6,7.1v0c0,4.1,2.7,7.2,6.9,7.2c2,0,3.8-0.8,5-1.7v-4.3h-5.3v-1.8h7.2v6.9c-1.6,1.4-4,2.7-7,2.7
		C281.5,61,278.1,57,278.1,52.1"/>
	<path class="st0" d="M300.3,52.1L300.3,52.1c0-4.8,3.6-9,8.9-9c5.3,0,8.8,4.1,8.8,8.9v0c0,4.8-3.6,9-8.9,9
		C303.9,61,300.3,56.9,300.3,52.1 M316,52.1L316,52.1c0-4-2.9-7.2-6.8-7.2s-6.8,3.2-6.8,7.1v0c0,3.9,2.9,7.2,6.8,7.2
		C313.2,59.2,316,56,316,52.1"/>
	<path class="st0" d="M325,43.4h7.4c2,0,3.5,0.6,4.5,1.5c0.7,0.7,1.1,1.7,1.1,2.8v0.1c0,2.3-1.4,3.4-2.8,4c2.1,0.6,3.7,1.8,3.7,4.2
		V56c0,3-2.5,4.7-6.3,4.7H325V43.4z M336.1,47.9c0-1.7-1.4-2.8-3.8-2.8H327v6h5.1C334.5,51.1,336.1,50,336.1,47.9L336.1,47.9z
		 M332.5,52.8H327v6.1h5.8c2.6,0,4.3-1.2,4.3-3.1v0C337.1,53.9,335.5,52.8,332.5,52.8"/>
	<rect x="346.1" y="43.4" class="st0" width="2" height="17.3"/>
	<polygon class="st0" points="355.9,43.4 368.5,43.4 368.5,45.1 357.9,45.1 357.9,51.1 367.4,51.1 367.4,52.8 357.9,52.8 
		357.9,58.9 368.6,58.9 368.6,60.7 355.9,60.7 	"/>
	<path class="st0" d="M375.1,43.4h7.5c2.1,0,3.8,0.6,4.9,1.7c0.8,0.8,1.3,2.1,1.3,3.4v0.1c0,2.9-2,4.6-4.7,5.1l5.3,7.1H387l-5-6.7
		h-5v6.7h-2V43.4z M382.4,52.2c2.6,0,4.5-1.3,4.5-3.6v-0.1c0-2.1-1.6-3.4-4.4-3.4h-5.4v7H382.4z"/>
	<polygon class="st0" points="395.9,43.4 397.7,43.4 408.7,57.3 408.7,43.4 410.6,43.4 410.6,60.7 409,60.7 397.8,46.5 397.8,60.7 
		395.9,60.7 	"/>
	<path class="st0" d="M417.6,52.1L417.6,52.1c0-4.8,3.6-9,8.9-9c5.3,0,8.8,4.1,8.8,8.9v0c0,4.8-3.6,9-8.9,9S417.6,56.9,417.6,52.1
		 M433.2,52.1L433.2,52.1c0-4-2.9-7.2-6.8-7.2c-4,0-6.8,3.2-6.8,7.1v0c0,3.9,2.9,7.2,6.8,7.2C430.4,59.2,433.2,56,433.2,52.1"/>
	<path class="st0" d="M451.3,43.4h6c5.5,0,9.2,3.7,9.2,8.6v0c0,4.9-3.8,8.7-9.2,8.7h-6V43.4z M453.3,45.2v13.7h4.1
		c4.4,0,7.2-3,7.2-6.8v0c0-3.8-2.8-6.9-7.2-6.9H453.3z"/>
	<polygon class="st0" points="472.8,43.4 485.3,43.4 485.3,45.1 474.7,45.1 474.7,51.1 484.2,51.1 484.2,52.8 474.7,52.8 
		474.7,58.9 485.4,58.9 485.4,60.7 472.8,60.7 	"/>
	<polygon class="st0" points="501,43.4 503,43.4 503,58.9 512.8,58.9 512.8,60.7 501,60.7 	"/>
	<path class="st0" d="M524.8,43.2h1.8l7.9,17.5h-2.1l-2-4.6h-9.4l-2.1,4.6h-2L524.8,43.2z M529.6,54.3l-3.9-8.8l-4,8.8H529.6z"/>
	<path class="st0" d="M277.8,81.8L277.8,81.8c0-5,3.7-9,9-9c3.3,0,5.2,1.1,6.8,2.7l-2.4,2.8c-1.3-1.2-2.7-2-4.4-2
		c-2.9,0-5,2.4-5,5.4v0.1c0,3,2.1,5.5,5,5.5c2,0,3.2-0.8,4.6-2l2.4,2.5c-1.8,1.9-3.8,3.1-7.1,3.1C281.5,90.7,277.8,86.8,277.8,81.8"
		/>
	<rect x="296.9" y="73.1" class="st0" width="3.8" height="17.4"/>
	<path class="st0" d="M305.1,83v-9.9h3.8v9.8c0,2.8,1.4,4.3,3.7,4.3s3.7-1.4,3.7-4.2v-9.9h3.8v9.8c0,5.3-2.9,7.8-7.6,7.8
		C308,90.7,305.1,88.1,305.1,83"/>
	<path class="st0" d="M324.6,73.1h6.8c5.5,0,9.2,3.7,9.2,8.6v0c0,4.9-3.8,8.7-9.2,8.7h-6.8V73.1z M331.4,87c3.1,0,5.2-2.1,5.2-5.2
		v-0.1c0-3.1-2.1-5.2-5.2-5.2h-2.9V87H331.4z"/>
	<path class="st0" d="M349.1,73h3.5l7.4,17.5h-4l-1.6-3.9h-7.3l-1.6,3.9h-3.9L349.1,73z M353.1,83.2l-2.3-5.6l-2.3,5.6H353.1z"/>
	<path class="st0" d="M362.8,73.1h6.8c5.5,0,9.2,3.7,9.2,8.6v0c0,4.9-3.8,8.7-9.2,8.7h-6.8V73.1z M369.5,87c3.1,0,5.2-2.1,5.2-5.2
		v-0.1c0-3.1-2.1-5.2-5.2-5.2h-2.9V87H369.5z"/>
	<path class="st0" d="M389.8,73.1h6.8c5.5,0,9.2,3.7,9.2,8.6v0c0,4.9-3.8,8.7-9.2,8.7h-6.8V73.1z M396.6,87c3.1,0,5.2-2.1,5.2-5.2
		v-0.1c0-3.1-2.1-5.2-5.2-5.2h-2.9V87H396.6z"/>
	<polygon class="st0" points="409.5,73.1 422.5,73.1 422.5,76.5 413.2,76.5 413.2,80 421.4,80 421.4,83.4 413.2,83.4 413.2,87.1 
		422.7,87.1 422.7,90.5 409.5,90.5 	"/>
	<polygon class="st0" points="433.7,73.1 437.9,73.1 442.4,80.4 447,73.1 451.1,73.1 451.1,90.5 447.3,90.5 447.3,79.1 442.4,86.5 
		442.3,86.5 437.5,79.2 437.5,90.5 433.7,90.5 	"/>
	<path class="st0" d="M455.6,73.1h13.1v3.4h-9.3V80h8.2v3.4h-8.2v3.6h9.4v3.4h-13.2V73.1z M462.9,67.4l3.2,1.4l-3.2,3h-2.9
		L462.9,67.4z"/>
	<polygon class="st0" points="477.4,81.6 471.6,73.1 476,73.1 479.7,78.7 483.3,73.1 487.7,73.1 481.9,81.6 487.9,90.5 483.5,90.5 
		479.6,84.5 475.7,90.5 471.3,90.5 	"/>
	<rect x="490.8" y="73.1" class="st0" width="3.8" height="17.4"/>
	<path class="st0" d="M498.4,81.8L498.4,81.8c0-5,3.7-9,9-9c3.3,0,5.2,1.1,6.8,2.7l-2.4,2.8c-1.3-1.2-2.7-2-4.4-2
		c-2.9,0-5,2.4-5,5.4v0.1c0,3,2.1,5.5,5,5.5c2,0,3.2-0.8,4.6-2l2.4,2.5c-1.8,1.9-3.8,3.1-7.1,3.1C502.2,90.7,498.4,86.8,498.4,81.8"
		/>
	<path class="st0" d="M516.2,81.8L516.2,81.8c0-5,3.9-9,9.2-9c5.4,0,9.2,4,9.2,8.9v0.1c0,4.9-3.9,9-9.2,9
		C520,90.7,516.2,86.8,516.2,81.8 M530.6,81.8L530.6,81.8c0-3-2.2-5.5-5.3-5.5c-3.1,0-5.2,2.4-5.2,5.4v0.1c0,3,2.2,5.5,5.3,5.5
		C528.5,87.2,530.6,84.8,530.6,81.8"/>
	<g>
		<path class="st2" d="M693.7,78c-0.5,1.2-1.3,2.1-2.3,2.9c-1,0.8-2.1,1.4-3.5,1.8c-1.3,0.4-2.8,0.6-4.5,0.6c-2.3,0-4.5-0.4-6.8-1.2
			c-2.2-0.8-4.2-2-6-3.6l3.9-4.7c1.4,1.1,2.8,2,4.2,2.7c1.4,0.7,3,1,4.8,1c1.4,0,2.4-0.3,3.2-0.8c0.8-0.5,1.1-1.2,1.1-2.1v-0.1
			c0-0.4-0.1-0.8-0.2-1.1c-0.2-0.3-0.5-0.6-0.9-0.9c-0.4-0.3-1.1-0.6-1.9-0.9c-0.8-0.3-1.8-0.6-3.1-0.9c-1.5-0.4-2.9-0.8-4.1-1.2
			c-1.2-0.5-2.3-1-3.1-1.7c-0.9-0.7-1.5-1.5-2-2.5c-0.5-1-0.7-2.3-0.7-3.7v-0.1c0-1.4,0.3-2.6,0.8-3.7c0.5-1.1,1.2-2.1,2.2-2.9
			c0.9-0.8,2-1.4,3.3-1.8c1.3-0.4,2.7-0.6,4.3-0.6c2.2,0,4.2,0.3,6.1,1c1.9,0.7,3.5,1.6,5.1,2.8l-3.4,5c-1.3-0.9-2.7-1.6-4-2.2
			c-1.3-0.5-2.6-0.8-3.9-0.8c-1.3,0-2.3,0.3-2.9,0.8c-0.6,0.5-1,1.1-1,1.9V61c0,0.5,0.1,0.9,0.3,1.3c0.2,0.4,0.5,0.7,1,1
			c0.5,0.3,1.2,0.6,2,0.8c0.8,0.3,1.9,0.6,3.2,0.9c1.5,0.4,2.9,0.9,4.1,1.4c1.2,0.5,2.2,1.1,3,1.8c0.8,0.7,1.4,1.5,1.9,2.5
			c0.4,0.9,0.6,2.1,0.6,3.4v0.1C694.5,75.6,694.3,76.9,693.7,78"/>
		<path class="st2" d="M723.1,78c-0.5,1.2-1.3,2.1-2.3,2.9c-1,0.8-2.1,1.4-3.5,1.8c-1.3,0.4-2.8,0.6-4.5,0.6c-2.3,0-4.5-0.4-6.8-1.2
			c-2.2-0.8-4.2-2-6-3.6l3.9-4.7c1.4,1.1,2.8,2,4.2,2.7c1.4,0.7,3,1,4.8,1c1.4,0,2.4-0.3,3.2-0.8c0.8-0.5,1.1-1.2,1.1-2.1v-0.1
			c0-0.4-0.1-0.8-0.2-1.1c-0.2-0.3-0.5-0.6-0.9-0.9c-0.4-0.3-1.1-0.6-1.9-0.9c-0.8-0.3-1.8-0.6-3.1-0.9c-1.5-0.4-2.9-0.8-4.1-1.2
			c-1.2-0.5-2.3-1-3.1-1.7c-0.9-0.7-1.5-1.5-2-2.5c-0.5-1-0.7-2.3-0.7-3.7v-0.1c0-1.4,0.3-2.6,0.8-3.7c0.5-1.1,1.2-2.1,2.2-2.9
			c0.9-0.8,2-1.4,3.3-1.8c1.3-0.4,2.7-0.6,4.3-0.6c2.2,0,4.2,0.3,6.1,1c1.8,0.7,3.5,1.6,5.1,2.8l-3.4,5c-1.3-0.9-2.7-1.6-4-2.2
			c-1.3-0.5-2.6-0.8-3.9-0.8c-1.3,0-2.3,0.3-2.9,0.8c-0.6,0.5-1,1.1-1,1.9V61c0,0.5,0.1,0.9,0.3,1.3c0.2,0.4,0.5,0.7,1,1
			c0.5,0.3,1.2,0.6,2,0.8c0.8,0.3,1.9,0.6,3.2,0.9c1.5,0.4,2.9,0.9,4.1,1.4c1.2,0.5,2.2,1.1,3,1.8c0.8,0.7,1.4,1.5,1.9,2.5
			c0.4,0.9,0.6,2.1,0.6,3.4v0.1C723.9,75.6,723.6,76.9,723.1,78"/>
		<path class="st2" d="M755.3,80.3c-0.8,0.7-1.7,1.2-2.7,1.7c-1,0.5-2.1,0.8-3.2,1.1c-1.2,0.2-2.5,0.4-4,0.4c-2.2,0-4.3-0.4-6.1-1.2
			c-1.9-0.8-3.5-1.9-4.9-3.3c-1.4-1.4-2.5-3-3.2-4.9c-0.8-1.9-1.2-3.9-1.2-6.1v-0.1c0-2.2,0.4-4.2,1.2-6c0.8-1.9,1.8-3.5,3.2-4.9
			c1.4-1.4,3-2.5,4.9-3.4c1.9-0.8,4-1.2,6.4-1.2c1.4,0,2.7,0.1,3.8,0.3c1.2,0.2,2.2,0.5,3.2,0.9c0.9,0.4,1.8,0.9,2.6,1.5
			c0.8,0.6,1.5,1.2,2.2,1.9l-4.2,4.9c-1.2-1.1-2.4-1.9-3.6-2.5c-1.2-0.6-2.6-0.9-4.1-0.9c-1.3,0-2.4,0.2-3.5,0.7
			c-1.1,0.5-2,1.2-2.8,2c-0.8,0.9-1.4,1.9-1.8,3c-0.4,1.1-0.6,2.3-0.6,3.6v0.1c0,1.3,0.2,2.5,0.6,3.7c0.4,1.1,1,2.1,1.8,3
			c0.8,0.9,1.7,1.5,2.8,2c1.1,0.5,2.3,0.8,3.5,0.8c1.7,0,3.2-0.3,4.4-0.9c1.2-0.6,2.4-1.5,3.5-2.6l4.2,4.3
			C756.9,78.9,756.1,79.7,755.3,80.3"/>
		<path class="st2" d="M659,70.5c0.3,0.7,0.3,1.6-0.1,2.2c-0.4,0.7-1,1.2-1.8,1.3c0.1,0.4,0.1,0.8,0,1.2c-0.2,0.9-0.9,1.5-1.8,1.7
			c0.1,0.5,0.1,1.1-0.1,1.6c-0.3,0.7-0.8,1.2-1.5,1.5c0.2,0.6,0.2,1.2-0.1,1.8c-0.3,0.6-0.7,1-1.3,1.2c0.2,0.6,0.1,1.2-0.1,1.8
			c-0.3,0.6-0.7,1-1.2,1.3c0.4,0.8,0.2,1.8-0.3,2.5c-0.3,0.3-0.6,0.6-0.9,0.7c0.5,1,0.2,2.2-0.5,3c-0.2,0.2-0.5,0.4-0.8,0.6
			c0.4,0.5,0.5,1.2,0.4,1.9c-0.1,0.7-0.4,1.2-1,1.6c-0.3,0.2-0.6,0.4-1,0.4l0.4,0.5c0,0,0,0,0,0.1c0.4,0.6,0.5,1.4,0.3,2.1
			c-0.2,0.7-0.6,1.3-1.2,1.7c-0.5,0.3-1.2,0.5-1.8,0.4c-0.6-0.1-1.2-0.4-1.6-0.9c0.2,1.3-0.6,2.6-1.7,3c-1,0.4-2.2,0.2-3-0.6
			c-0.2,0.2-0.4,0.4-0.7,0.4c-0.6,0.2-1.3,0.1-1.8-0.2c-0.2,0.2-0.4,0.3-0.6,0.4c-0.5,0.2-1.1,0.2-1.5-0.1c-0.2,0.3-0.5,0.5-0.9,0.6
			c-0.3,0.1-0.7,0.1-1,0c-0.5,0.7-1.3,0.9-2.1,0.7c-0.5,0.9-1.5,1.3-2.4,1c-0.4,1.2-1.4,2-2.6,2.1c-0.2,0-0.4,0-0.6,0
			c-1.2-0.1-2.2-1-2.6-2.1c-0.9,0.3-2-0.1-2.5-1c-0.8,0.2-1.6-0.1-2.1-0.7c-0.3,0.1-0.7,0.1-1,0c-0.3-0.1-0.6-0.3-0.9-0.6
			c-0.5,0.2-1,0.3-1.5,0.1c-0.2-0.1-0.4-0.2-0.6-0.4c-0.5,0.4-1.2,0.5-1.8,0.2c-0.3-0.1-0.5-0.2-0.7-0.4c-0.8,0.8-1.9,1-3,0.6
			c-1.2-0.5-1.9-1.7-1.7-3c-0.4,0.5-1,0.8-1.6,0.9c-0.6,0.1-1.3,0-1.8-0.4c-0.6-0.4-1-1-1.2-1.7c-0.2-0.7,0-1.5,0.3-2.1
			c0,0,0,0,0-0.1l0.4-0.5c-0.3-0.1-0.7-0.2-1-0.4c-0.5-0.4-0.9-1-1-1.6c-0.1-0.7,0.1-1.3,0.4-1.9c-0.3-0.1-0.6-0.3-0.8-0.6
			c-0.8-0.8-1-2-0.5-3c-0.4-0.1-0.7-0.4-0.9-0.7c-0.6-0.7-0.7-1.7-0.3-2.5c-0.5-0.3-1-0.7-1.2-1.3c-0.3-0.6-0.3-1.2-0.1-1.8
			c-0.6-0.2-1-0.6-1.3-1.2c-0.3-0.6-0.3-1.2-0.1-1.8c-0.7-0.2-1.2-0.8-1.5-1.5c-0.2-0.5-0.2-1.1-0.1-1.6c-0.9-0.2-1.6-0.8-1.8-1.7
			c-0.1-0.4-0.1-0.8,0-1.2c-0.7-0.1-1.4-0.6-1.8-1.3c-0.4-0.7-0.4-1.5-0.1-2.2c-1.1-0.4-1.8-1.4-1.8-2.6c0-1.2,0.8-2.2,1.8-2.6
			c-0.3-0.7-0.3-1.6,0.1-2.2c0.4-0.7,1-1.2,1.8-1.3c-0.1-0.4-0.1-0.8,0-1.2c0.2-0.9,0.9-1.5,1.8-1.7c-0.1-0.5-0.1-1.1,0.1-1.6
			c0.3-0.7,0.8-1.2,1.5-1.5c-0.2-0.6-0.2-1.2,0.1-1.8c0.3-0.6,0.7-1,1.3-1.2c-0.2-0.6-0.1-1.2,0.1-1.8c0.3-0.6,0.7-1,1.2-1.3
			c-0.4-0.8-0.2-1.8,0.3-2.5c0.3-0.3,0.6-0.6,0.9-0.7c-0.5-1-0.2-2.2,0.5-3c0.2-0.2,0.5-0.4,0.8-0.6c-0.4-0.5-0.5-1.2-0.4-1.9
			c0.1-0.7,0.4-1.2,1-1.6c0.3-0.2,0.6-0.4,1-0.4l-0.4-0.5c0,0,0,0,0-0.1c-0.4-0.6-0.5-1.4-0.3-2.1c0.2-0.7,0.6-1.3,1.2-1.7
			c0.5-0.3,1.2-0.5,1.8-0.4c0.6,0.1,1.2,0.4,1.6,0.9c-0.2-1.3,0.6-2.6,1.7-3c1-0.4,2.2-0.2,3,0.6c0.2-0.2,0.4-0.4,0.7-0.4
			c0.6-0.2,1.3-0.1,1.8,0.2c0.2-0.2,0.4-0.3,0.6-0.4c0.5-0.2,1.1-0.2,1.5,0.1c0.2-0.3,0.5-0.5,0.9-0.6c0.3-0.1,0.7-0.1,1,0
			c0.5-0.7,1.3-0.9,2.1-0.7c0.5-0.9,1.5-1.3,2.5-1c0.4-1.2,1.4-2,2.6-2.1c0.2,0,0.4,0,0.6,0c1.2,0.1,2.2,1,2.6,2.1
			c0.9-0.3,2,0.1,2.4,1c0.8-0.2,1.6,0.1,2.1,0.7c0.3-0.1,0.7-0.1,1,0c0.3,0.1,0.6,0.3,0.9,0.6c0.5-0.2,1-0.3,1.5-0.1
			c0.2,0.1,0.4,0.2,0.6,0.4c0.5-0.4,1.2-0.5,1.8-0.2c0.3,0.1,0.5,0.3,0.7,0.4c0.8-0.8,1.9-1,3-0.6c1.2,0.5,1.9,1.7,1.7,3
			c0.4-0.5,1-0.8,1.6-0.9c0.6-0.1,1.3,0,1.8,0.4c0.6,0.4,1,1,1.2,1.7c0.2,0.7,0,1.5-0.3,2.1c0,0,0,0,0,0.1l-0.4,0.5
			c0.3,0.1,0.7,0.2,1,0.4c0.5,0.4,0.9,1,1,1.6c0.1,0.7-0.1,1.3-0.4,1.9c0.3,0.1,0.6,0.3,0.8,0.6c0.8,0.8,1,2,0.5,3
			c0.4,0.1,0.7,0.4,0.9,0.7c0.6,0.7,0.7,1.7,0.3,2.5c0.5,0.3,1,0.7,1.2,1.3c0.3,0.6,0.3,1.2,0.1,1.8c0.6,0.2,1,0.6,1.3,1.2
			c0.3,0.6,0.3,1.2,0.1,1.8c0.7,0.2,1.2,0.8,1.5,1.5c0.2,0.5,0.2,1.1,0.1,1.6c0.9,0.2,1.6,0.8,1.8,1.7c0.1,0.4,0.1,0.8,0,1.2
			c0.7,0.1,1.4,0.6,1.8,1.3c0.4,0.7,0.4,1.5,0.1,2.2c1.1,0.4,1.8,1.4,1.8,2.6C660.8,69,660.1,70.1,659,70.5"/>
		<path class="st3" d="M640.7,85.1c0.4-0.5,0.9-1,1.3-1.5c2.1,1.8,4.2,3.7,6.2,5.6c0.3,0.2,0.5,0.6,0.5,1c0,0.4-0.1,0.8-0.4,1
			c-0.3,0.3-0.6,0.4-1,0.4c-0.4,0-0.7-0.2-1-0.5L640.7,85.1z"/>
		<path class="st3" d="M642.5,83l1-1.4l6,4.4c0.2,0.2,0.4,0.5,0.5,0.8c0,0.3,0,0.6-0.2,0.9c-0.2,0.2-0.5,0.4-0.8,0.4
			c-0.3,0-0.6-0.1-0.8-0.3L642.5,83z"/>
		<path class="st3" d="M643.9,81.1l1-1.8l5.7,3.2c0.3,0.2,0.5,0.5,0.6,0.8c0.1,0.3,0.1,0.7-0.1,1c-0.2,0.3-0.4,0.5-0.8,0.6
			c-0.3,0.1-0.7,0.1-1-0.1L643.9,81.1z"/>
		<path class="st3" d="M645.3,78.7l0.7-1.6l6.1,2.6c0.3,0.1,0.5,0.3,0.6,0.6c0.1,0.3,0.1,0.6,0,0.8c-0.1,0.3-0.3,0.5-0.6,0.6
			c-0.3,0.1-0.6,0.1-0.8-0.1L645.3,78.7z"/>
		<path class="st3" d="M646.3,76.3l0.6-1.9l6.6,2c0.3,0.1,0.5,0.4,0.7,0.7c0.1,0.3,0.1,0.6,0,1c-0.1,0.3-0.3,0.6-0.6,0.7
			c-0.3,0.1-0.6,0.1-0.9,0L646.3,76.3z"/>
		<path class="st3" d="M647.1,73.7l0.3-1.8l7.6,1.4c0.3,0.1,0.6,0.2,0.8,0.5c0.2,0.3,0.2,0.6,0.1,0.9c-0.1,0.3-0.3,0.6-0.6,0.7
			c-0.3,0.1-0.6,0.2-0.9,0L647.1,73.7z"/>
		<path class="st3" d="M647.8,69.4l9.4,0.8c0.3,0.1,0.6,0.3,0.7,0.6c0.2,0.3,0.2,0.6,0.1,1c-0.1,0.3-0.3,0.6-0.6,0.8
			c-0.3,0.2-0.6,0.2-0.9,0.2l-9-1.4L647.8,69.4z"/>
		<path class="st3" d="M611.6,88.1l-1.4-0.9c-1.5,2-6.5,8.6-7.9,10.7c-0.2,0.3-0.3,0.7-0.2,1.1c0.1,0.4,0.3,0.7,0.6,0.9
			c0.3,0.2,0.7,0.3,1.1,0.2c0.4-0.1,0.7-0.3,0.9-0.7L611.6,88.1z"/>
		<path class="st3" d="M609.5,86.7l-1.2-1.1l-7,7.8c-0.2,0.3-0.3,0.6-0.2,1c0,0.3,0.2,0.7,0.5,0.9c0.3,0.2,0.6,0.3,0.9,0.2
			c0.3-0.1,0.6-0.2,0.8-0.5L609.5,86.7z"/>
		<path class="st3" d="M647.3,93.4l-7-7.8l-0.7,0.6l-0.6,0.5l6.3,8.3c0.2,0.3,0.5,0.5,0.8,0.5c0.3,0.1,0.7,0,0.9-0.2
			c0.3-0.2,0.4-0.5,0.5-0.9C647.6,94,647.6,93.7,647.3,93.4"/>
		<path class="st3" d="M638.3,87.2l-1.4,0.9l6.9,11.4c0.1,0.1,0.1,0.2,0.2,0.2c0,0,0.1,0.1,0.1,0.1c0.2,0.2,0.4,0.3,0.6,0.3
			c0.4,0.1,0.8,0,1.1-0.2c0.1-0.1,0.2-0.2,0.3-0.3c0.1-0.1,0.2-0.2,0.2-0.4c0-0.1,0.1-0.2,0.1-0.3c0.1-0.4,0-0.8-0.2-1.1
			c-0.1-0.1-0.1-0.2-0.2-0.3c0,0-0.1-0.1-0.1-0.1C644.6,95.5,639,88.1,638.3,87.2"/>
		<polygon class="st3" points="647.3,93.4 640.3,85.6 640.3,85.6 		"/>
		<path class="st3" d="M607.8,85.1l-5.7,6c-0.2,0.3-0.6,0.5-1,0.5c-0.4,0-0.7-0.1-1-0.4c-0.3-0.3-0.4-0.7-0.4-1c0-0.4,0.2-0.8,0.5-1
			c2-1.9,4.1-3.8,6.2-5.6C606.9,84.1,607.4,84.6,607.8,85.1"/>
		<path class="st3" d="M606,83l-5.6,4.7c-0.2,0.2-0.5,0.3-0.8,0.3c-0.3,0-0.6-0.2-0.8-0.4c-0.2-0.2-0.3-0.6-0.2-0.9
			c0-0.3,0.2-0.6,0.5-0.8l6-4.4L606,83z"/>
		<path class="st3" d="M604.7,81.1l-5.5,3.7c-0.3,0.2-0.7,0.2-1,0.1c-0.3-0.1-0.6-0.3-0.8-0.6c-0.2-0.3-0.2-0.7-0.1-1
			c0.1-0.3,0.3-0.6,0.6-0.8l5.7-3.2L604.7,81.1z"/>
		<path class="st3" d="M603.3,78.7l-5.9,3c-0.3,0.1-0.5,0.2-0.8,0.1c-0.3-0.1-0.5-0.3-0.6-0.6c-0.1-0.3-0.1-0.6,0-0.8
			c0.1-0.3,0.3-0.5,0.6-0.6l6.1-2.6L603.3,78.7z"/>
		<path class="st3" d="M602.3,76.3l-6.3,2.4c-0.3,0.1-0.6,0.1-0.9,0c-0.3-0.1-0.5-0.4-0.6-0.7c-0.1-0.3-0.1-0.7,0-1
			c0.1-0.3,0.4-0.5,0.7-0.7l6.6-2L602.3,76.3z"/>
		<path class="st3" d="M601.5,73.7l-7.4,1.9c-0.3,0.1-0.6,0.1-0.9,0c-0.3-0.1-0.5-0.4-0.6-0.7c-0.1-0.3,0-0.7,0.1-0.9
			c0.2-0.3,0.4-0.5,0.8-0.5l7.6-1.4L601.5,73.7z"/>
		<path class="st3" d="M600.8,69.4l0.3,1.9l-9,1.4c-0.3,0.1-0.6,0-0.9-0.2c-0.3-0.2-0.5-0.5-0.6-0.8c-0.1-0.3,0-0.7,0.1-1
			c0.2-0.3,0.4-0.5,0.7-0.6L600.8,69.4z"/>
		<path class="st3" d="M628.7,103.5c0,0.2,0,0.5-0.2,0.7c-0.1,0.2-0.3,0.3-0.6,0.4c-0.2,0-0.5,0-0.7-0.1c-0.2-0.1-0.3-0.3-0.4-0.6
			L626.1,92c0.4,0,0.8-0.1,1.2-0.1L628.7,103.5z"/>
		<path class="st3" d="M632.9,102c0.1,0.2,0.1,0.4,0,0.5c-0.1,0.2-0.2,0.3-0.4,0.3c-0.2,0-0.4,0-0.5-0.1c-0.2-0.1-0.3-0.3-0.3-0.4
			c-0.2-1-2.4-10.8-2.4-10.8c0.3-0.1,0.5-0.1,0.8-0.2L632.9,102z"/>
		<path class="st3" d="M635.3,101.3c0.1,0.2,0.1,0.4,0,0.6c-0.1,0.2-0.2,0.4-0.4,0.4c-0.2,0.1-0.4,0.1-0.6,0
			c-0.2-0.1-0.3-0.3-0.4-0.5l-3-10.7c0.3-0.1,0.6-0.2,1-0.3L635.3,101.3z"/>
		<path class="st3" d="M637.6,101.2c0.1,0.2,0.1,0.4,0.1,0.7c-0.1,0.2-0.2,0.4-0.5,0.5c-0.2,0.1-0.4,0.1-0.6-0.1
			c-0.2-0.1-0.3-0.3-0.4-0.5l-4-11c0.3-0.1,0.6-0.2,0.9-0.4L637.6,101.2z"/>
		<path class="st3" d="M626.2,104.6c0,0.5-0.2,1-0.5,1.4c-0.3,0.4-0.8,0.6-1.3,0.7c-0.1,0-0.2,0-0.3,0c-0.5,0-0.9-0.3-1.2-0.6
			c-0.3-0.4-0.5-0.9-0.5-1.3c0.1-2.3,0.6-12.6,0.6-12.6c0.4,0,0.8,0,1.2,0c0.4,0,0.8,0,1.2,0L626.2,104.6z"/>
		<path class="st3" d="M621.6,103.9c0,0.2-0.2,0.5-0.4,0.6c-0.2,0.1-0.4,0.2-0.7,0.1c-0.2,0-0.4-0.2-0.6-0.4
			c-0.1-0.2-0.2-0.4-0.2-0.7l1.4-11.6c0.4,0.1,0.8,0.1,1.2,0.1L621.6,103.9z"/>
		<path class="st3" d="M619.1,103c-0.1,0.2-0.2,0.4-0.4,0.5c-0.2,0.1-0.4,0.1-0.6,0.1c-0.2,0-0.4-0.2-0.5-0.3
			c-0.1-0.2-0.2-0.4-0.1-0.6l2.1-11c0.4,0.1,0.7,0.1,1.1,0.2L619.1,103z"/>
		<path class="st3" d="M616.8,102.4c0,0.2-0.1,0.3-0.3,0.4c-0.2,0.1-0.3,0.1-0.5,0.1c-0.2,0-0.3-0.2-0.4-0.3c-0.1-0.2-0.1-0.4,0-0.5
			l2.7-10.7c0.3,0.1,0.5,0.1,0.8,0.2C619.2,91.5,617,101.4,616.8,102.4"/>
		<path class="st3" d="M609,102.4c-0.2,0.1-0.4,0.1-0.6,0.1c0,0,0,0,0,0c0,0-0.1,0-0.1,0c0,0-0.1,0-0.1,0c0,0,0,0,0,0
			c-0.2,0-0.3,0-0.4-0.1c-0.3-0.1-0.5-0.3-0.7-0.5c-0.1-0.1-0.2-0.3-0.2-0.4c-0.1-0.2-0.1-0.3-0.1-0.5c0,0,0,0,0,0c0,0,0-0.1,0-0.1
			c0-0.2,0.1-0.5,0.2-0.7l6.1-11.1c0.6,0.3,1.2,0.7,1.9,1l-5,11.4C609.7,101.9,609.4,102.2,609,102.4"/>
		<path class="st3" d="M641.8,101.5c-0.2,0.4-0.5,0.8-0.9,0.9c-0.1,0.1-0.2,0.1-0.4,0.1c0,0,0,0,0,0c0,0-0.1,0-0.1,0l-0.1,0
			c0,0-0.1,0-0.1,0c0,0,0,0-0.1,0c0,0-0.1,0-0.1,0c0,0,0,0,0,0c0,0-0.1,0-0.1,0c0,0,0,0,0,0c-0.1,0-0.2,0-0.3-0.1
			c-0.4-0.2-0.7-0.5-0.9-0.9l-5-11.4c0.6-0.3,1.3-0.6,1.9-1l6,11l0.1,0.2C641.9,100.6,641.9,101.1,641.8,101.5"/>
		<path class="st3" d="M612.3,101.7c0,0.2-0.2,0.4-0.4,0.5c-0.2,0.1-0.4,0.1-0.6,0.1c-0.2-0.1-0.4-0.2-0.4-0.5
			c-0.1-0.2-0.1-0.5,0.1-0.7l4.4-10.9c0.3,0.1,0.6,0.3,0.9,0.4L612.3,101.7z"/>
		<path class="st3" d="M614.7,101.9c-0.1,0.2-0.2,0.4-0.4,0.5c-0.2,0.1-0.4,0.1-0.6,0c-0.2-0.1-0.4-0.2-0.4-0.4
			c-0.1-0.2-0.1-0.4,0-0.6l3.5-10.5c0.3,0.1,0.6,0.2,1,0.3L614.7,101.9z"/>
		<path class="st3" d="M631,102.6c0,0.2,0,0.4-0.1,0.6c-0.1,0.2-0.3,0.3-0.5,0.3c-0.2,0-0.4,0-0.6-0.1c-0.2-0.1-0.3-0.3-0.4-0.5
			l-1.6-11.1c0.4-0.1,0.7-0.1,1.1-0.2L631,102.6z"/>
		<path class="st3" d="M659.7,67.8c0,0.4-0.1,0.7-0.4,1c-0.2,0.3-0.6,0.5-1,0.5l-10.6-0.5l0-1l0-1l10.6-0.5c0.4,0,0.7,0.2,1,0.5
			C659.5,67.1,659.7,67.5,659.7,67.8"/>
		<path class="st3" d="M640.7,50.5c0.4,0.5,0.9,1,1.3,1.5c2.1-1.8,4.2-3.7,6.2-5.6c0.3-0.2,0.5-0.6,0.5-1c0-0.4-0.1-0.8-0.4-1
			c-0.3-0.3-0.6-0.4-1-0.4c-0.4,0-0.7,0.2-1,0.5L640.7,50.5z"/>
		<path class="st3" d="M642.5,52.6l1,1.4l6-4.4c0.2-0.2,0.4-0.5,0.5-0.8c0-0.3,0-0.6-0.2-0.9c-0.2-0.2-0.5-0.4-0.8-0.4
			c-0.3,0-0.6,0.1-0.8,0.3L642.5,52.6z"/>
		<path class="st3" d="M643.9,54.6l1,1.8l5.7-3.2c0.3-0.2,0.5-0.5,0.6-0.8c0.1-0.3,0.1-0.7-0.1-1c-0.2-0.3-0.4-0.5-0.8-0.6
			c-0.3-0.1-0.7-0.1-1,0.1L643.9,54.6z"/>
		<path class="st3" d="M645.3,57l0.7,1.6l6.1-2.6c0.3-0.1,0.5-0.3,0.6-0.6c0.1-0.3,0.1-0.6,0-0.8c-0.1-0.3-0.3-0.5-0.6-0.6
			c-0.3-0.1-0.6-0.1-0.8,0.1L645.3,57z"/>
		<path class="st3" d="M646.3,59.4l0.6,1.9l6.6-2c0.3-0.1,0.5-0.4,0.7-0.7c0.1-0.3,0.1-0.6,0-1c-0.1-0.3-0.3-0.6-0.6-0.7
			c-0.3-0.1-0.6-0.1-0.9,0L646.3,59.4z"/>
		<path class="st3" d="M647.1,62l0.3,1.8l7.6-1.4c0.3-0.1,0.6-0.2,0.8-0.5c0.2-0.3,0.2-0.6,0.1-0.9c-0.1-0.3-0.3-0.6-0.6-0.7
			c-0.3-0.1-0.6-0.2-0.9,0L647.1,62z"/>
		<path class="st3" d="M647.8,66.2l9.4-0.8c0.3-0.1,0.6-0.3,0.7-0.6c0.2-0.3,0.2-0.6,0.1-1c-0.1-0.3-0.3-0.6-0.6-0.8
			c-0.3-0.2-0.6-0.2-0.9-0.2l-9,1.4L647.8,66.2z"/>
		<path class="st3" d="M611.6,47.6l-1.4,0.9c-1.5-2-6.5-8.6-7.9-10.7c-0.2-0.3-0.3-0.7-0.2-1.1c0.1-0.4,0.3-0.7,0.6-0.9
			c0.3-0.2,0.7-0.3,1.1-0.2c0.4,0.1,0.7,0.3,0.9,0.7L611.6,47.6z"/>
		<path class="st3" d="M609.5,49l-1.2,1.1l-7-7.8c-0.2-0.3-0.3-0.6-0.2-1c0-0.3,0.2-0.7,0.5-0.9c0.3-0.2,0.6-0.3,0.9-0.2
			c0.3,0.1,0.6,0.2,0.8,0.5L609.5,49z"/>
		<path class="st3" d="M647.3,42.3l-7,7.8l-0.7-0.6l-0.6-0.5l6.3-8.3c0.2-0.3,0.5-0.5,0.8-0.5c0.3-0.1,0.7,0,0.9,0.2
			c0.3,0.2,0.4,0.5,0.5,0.9C647.6,41.6,647.6,42,647.3,42.3"/>
		<path class="st3" d="M638.3,48.4l-1.4-0.9l6.9-11.4c0.1-0.1,0.1-0.2,0.2-0.2c0,0,0.1-0.1,0.1-0.1c0.2-0.2,0.4-0.3,0.6-0.3
			c0.4-0.1,0.8,0,1.1,0.2c0.1,0.1,0.2,0.2,0.3,0.3c0.1,0.1,0.2,0.2,0.2,0.4c0,0.1,0.1,0.2,0.1,0.3c0.1,0.4,0,0.8-0.2,1.1
			c-0.1,0.1-0.1,0.2-0.2,0.3c0,0-0.1,0.1-0.1,0.1C644.6,40.1,639,47.6,638.3,48.4"/>
		<polygon class="st3" points="647.3,42.3 640.3,50.1 640.3,50.1 		"/>
		<path class="st3" d="M607.8,50.5l-5.7-6c-0.2-0.3-0.6-0.5-1-0.5c-0.4,0-0.7,0.1-1,0.4c-0.3,0.3-0.4,0.7-0.4,1c0,0.4,0.2,0.8,0.5,1
			c2,1.9,4.1,3.8,6.2,5.6C606.9,51.5,607.4,51,607.8,50.5"/>
		<path class="st3" d="M606,52.6l-5.6-4.7c-0.2-0.2-0.5-0.3-0.8-0.3c-0.3,0-0.6,0.2-0.8,0.4c-0.2,0.2-0.3,0.6-0.2,0.9
			c0,0.3,0.2,0.6,0.5,0.8l6,4.4L606,52.6z"/>
		<path class="st3" d="M604.7,54.6l-5.5-3.7c-0.3-0.2-0.7-0.2-1-0.1c-0.3,0.1-0.6,0.3-0.8,0.6c-0.2,0.3-0.2,0.7-0.1,1
			c0.1,0.3,0.3,0.6,0.6,0.8l5.7,3.2L604.7,54.6z"/>
		<path class="st3" d="M603.3,57l-5.9-3c-0.3-0.1-0.5-0.2-0.8-0.1c-0.3,0.1-0.5,0.3-0.6,0.6c-0.1,0.3-0.1,0.6,0,0.8
			c0.1,0.3,0.3,0.5,0.6,0.6l6.1,2.6L603.3,57z"/>
		<path class="st3" d="M602.3,59.4l-6.3-2.4c-0.3-0.1-0.6-0.1-0.9,0c-0.3,0.1-0.5,0.4-0.6,0.7c-0.1,0.3-0.1,0.7,0,1
			c0.1,0.3,0.4,0.5,0.7,0.7l6.6,2L602.3,59.4z"/>
		<path class="st3" d="M601.5,62l-7.4-1.9c-0.3-0.1-0.6-0.1-0.9,0c-0.3,0.1-0.5,0.4-0.6,0.7c-0.1,0.3,0,0.7,0.1,0.9
			c0.2,0.3,0.4,0.5,0.8,0.5l7.6,1.4L601.5,62z"/>
		<path class="st3" d="M600.8,66.2l0.3-1.9l-9-1.4c-0.3-0.1-0.6,0-0.9,0.2c-0.3,0.2-0.5,0.5-0.6,0.8c-0.1,0.3,0,0.7,0.1,1
			c0.2,0.3,0.4,0.5,0.7,0.6L600.8,66.2z"/>
		<path class="st3" d="M600.8,67.8l0,1l-10.6,0.5c-0.4,0-0.7-0.2-1-0.5c-0.2-0.3-0.4-0.6-0.4-1c0-0.4,0.1-0.7,0.4-1
			c0.2-0.3,0.6-0.5,1-0.5l10.6,0.5L600.8,67.8z"/>
		<path class="st3" d="M628.7,32.2c0-0.2,0-0.5-0.2-0.7c-0.1-0.2-0.3-0.3-0.6-0.4c-0.2,0-0.5,0-0.7,0.1c-0.2,0.1-0.3,0.3-0.4,0.6
			l-0.9,11.8c0.4,0,0.8,0.1,1.2,0.1L628.7,32.2z"/>
		<path class="st3" d="M632.9,33.7c0.1-0.2,0.1-0.4,0-0.5c-0.1-0.2-0.2-0.3-0.4-0.3c-0.2,0-0.4,0-0.5,0.1c-0.2,0.1-0.3,0.3-0.3,0.4
			c-0.2,1-2.4,10.8-2.4,10.8c0.3,0.1,0.5,0.1,0.8,0.2L632.9,33.7z"/>
		<path class="st3" d="M635.3,34.3c0.1-0.2,0.1-0.4,0-0.6c-0.1-0.2-0.2-0.4-0.4-0.4c-0.2-0.1-0.4-0.1-0.6,0
			c-0.2,0.1-0.3,0.3-0.4,0.5l-3,10.7c0.3,0.1,0.6,0.2,1,0.3L635.3,34.3z"/>
		<path class="st3" d="M637.6,34.5c0.1-0.2,0.1-0.4,0.1-0.7c-0.1-0.2-0.2-0.4-0.5-0.5c-0.2-0.1-0.4-0.1-0.6,0.1
			c-0.2,0.1-0.3,0.3-0.4,0.5l-4,11c0.3,0.1,0.6,0.2,0.9,0.4L637.6,34.5z"/>
		<path class="st3" d="M626.2,31.1c0-0.5-0.2-1-0.5-1.4c-0.3-0.4-0.8-0.6-1.3-0.7c-0.1,0-0.2,0-0.3,0c-0.5,0-0.9,0.3-1.2,0.6
			c-0.3,0.4-0.5,0.9-0.5,1.3c0.1,2.3,0.6,12.6,0.6,12.6c0.4,0,0.8,0,1.2,0c0.4,0,0.8,0,1.2,0L626.2,31.1z"/>
		<path class="st3" d="M621.6,31.8c0-0.2-0.2-0.5-0.4-0.6c-0.2-0.1-0.4-0.2-0.7-0.1c-0.2,0-0.4,0.2-0.6,0.4
			c-0.1,0.2-0.2,0.4-0.2,0.7l1.4,11.6c0.4-0.1,0.8-0.1,1.2-0.1L621.6,31.8z"/>
		<path class="st3" d="M619.1,32.7c-0.1-0.2-0.2-0.4-0.4-0.5s-0.4-0.1-0.6-0.1c-0.2,0-0.4,0.2-0.5,0.3c-0.1,0.2-0.2,0.4-0.1,0.6
			l2.1,11c0.4-0.1,0.7-0.1,1.1-0.2L619.1,32.7z"/>
		<path class="st3" d="M616.8,33.3c0-0.2-0.1-0.3-0.3-0.4c-0.2-0.1-0.3-0.1-0.5-0.1c-0.2,0-0.3,0.2-0.4,0.3c-0.1,0.2-0.1,0.4,0,0.5
			l2.7,10.7c0.3-0.1,0.5-0.1,0.8-0.2C619.2,44.1,617,34.3,616.8,33.3"/>
		<path class="st3" d="M609,33.3c-0.2-0.1-0.4-0.1-0.6-0.1c0,0,0,0,0,0c0,0-0.1,0-0.1,0c0,0-0.1,0-0.1,0c0,0,0,0,0,0
			c-0.2,0-0.3,0-0.4,0.1c-0.3,0.1-0.5,0.3-0.7,0.5c-0.1,0.1-0.2,0.3-0.2,0.4c-0.1,0.2-0.1,0.3-0.1,0.5c0,0,0,0,0,0c0,0,0,0.1,0,0.1
			c0,0.2,0.1,0.5,0.2,0.7l6.1,11.1c0.6-0.3,1.2-0.7,1.9-1l-5-11.4C609.7,33.8,609.4,33.4,609,33.3"/>
		<path class="st3" d="M641.8,34.2c-0.2-0.4-0.5-0.8-0.9-0.9c-0.1-0.1-0.2-0.1-0.4-0.1c0,0,0,0,0,0c0,0-0.1,0-0.1,0l-0.1,0
			c0,0-0.1,0-0.1,0c0,0,0,0-0.1,0c0,0-0.1,0-0.1,0c0,0,0,0,0,0c0,0-0.1,0-0.1,0c0,0,0,0,0,0c-0.1,0-0.2,0-0.3,0.1
			c-0.4,0.2-0.7,0.5-0.9,0.9l-5,11.4c0.6,0.3,1.3,0.6,1.9,1l6-11l0.1-0.2C641.9,35.1,641.9,34.6,641.8,34.2"/>
		<path class="st3" d="M612.3,34c0-0.2-0.2-0.4-0.4-0.5c-0.2-0.1-0.4-0.1-0.6-0.1c-0.2,0.1-0.4,0.2-0.4,0.5
			c-0.1,0.2-0.1,0.5,0.1,0.7l4.4,10.9c0.3-0.1,0.6-0.3,0.9-0.4L612.3,34z"/>
		<path class="st3" d="M614.7,33.8c-0.1-0.2-0.2-0.4-0.4-0.5c-0.2-0.1-0.4-0.1-0.6,0c-0.2,0.1-0.4,0.2-0.4,0.4
			c-0.1,0.2-0.1,0.4,0,0.6l3.5,10.5c0.3-0.1,0.6-0.2,1-0.3L614.7,33.8z"/>
		<path class="st3" d="M631,33c0-0.2,0-0.4-0.1-0.6c-0.1-0.2-0.3-0.3-0.5-0.3c-0.2,0-0.4,0-0.6,0.1c-0.2,0.1-0.3,0.3-0.4,0.5
			l-1.6,11.1c0.4,0.1,0.7,0.1,1.1,0.2L631,33z"/>
		<path class="st3" d="M640.1,51.4c-6.4-6.7-16.1-8.6-24.4-5c-8.4,3.6-13.8,12.1-13.8,21.5c0,6.2,2.4,12.1,6.6,16.5
			c4.2,4.4,9.9,6.8,15.9,6.8c9.1,0,17.2-5.7,20.7-14.4C648.5,68,646.5,58,640.1,51.4"/>
		<path class="st2" d="M624.3,91.3c-6,0-11.7-2.4-16-6.9c-4.3-4.4-6.6-10.3-6.6-16.6c0-9.5,5.5-18,14-21.7
			c8.5-3.6,18.2-1.6,24.6,5.1c6.5,6.7,8.4,16.8,4.9,25.6C641.7,85.6,633.5,91.3,624.3,91.3 M624.3,44.7c-2.9,0-5.8,0.6-8.5,1.8
			c-8.3,3.6-13.7,12-13.7,21.3c0,6.2,2.3,12,6.5,16.3c4.2,4.4,9.8,6.8,15.7,6.8c9,0,17.1-5.6,20.5-14.2c3.5-8.7,1.6-18.5-4.8-25.2
			C635.7,47.1,630.1,44.7,624.3,44.7"/>
		<g>
			<defs>
				<path id="SVGID_1_" d="M617.9,51.8c-6.2,2.7-10.3,9-10.3,16c0,4.6,1.8,9,4.9,12.3c3.1,3.3,7.4,5.1,11.8,5.1
					c6.8,0,12.8-4.2,15.4-10.7c2.6-6.5,1.2-13.9-3.6-18.9c-3.2-3.3-7.5-5.1-11.8-5.1C622.1,50.5,620,50.9,617.9,51.8"/>
			</defs>
			<clipPath id="SVGID_2_">
				<use xlink:href="#SVGID_1_"  style="overflow:visible;"/>
			</clipPath>
			<path class="st4" d="M628.3,58.8v-2.1h-2.1v1.9h-0.8v-1.9h-2.2v1.9h-0.8v-1.9h-2.2v2.1l1.1,1.8c0,0.1,0.1,0.1,0.1,0.2l0,9.5h1
				l0-3.4c0-0.8,0.9-1.5,1.9-1.5c1,0,1.9,0.7,1.9,1.5l0,3.4h1.1l0-3.6c0,0,0,0,0-0.1v-1.8c0,0,0,0,0,0l0-1.3v0v-0.6l0-2.2
				c0-0.1,0-0.1,0.1-0.2L628.3,58.8z"/>
			<path class="st4" d="M620.5,70.5l0-3.1l-0.4,0.2c-0.1,0.1-0.3,0.1-0.4,0l-0.5-0.3c0,0,0,0,0,0l0,1.2c0,0.1-0.1,0.2-0.2,0.3
				c0,0,0.1,0,0.1,0.1c0.6,0.4,0.6,1.1,0.5,1.6H620.5z"/>
			<path class="st4" d="M624.2,66.2c-0.6,0-1.1,0.5-1.1,0.7l0,3.4h2.2l0-3.4C625.3,66.6,624.9,66.2,624.2,66.2"/>
			<path class="st4" d="M611.6,70.5c-0.1-0.3-0.2-0.6-0.3-1c-0.1-0.7-0.1-1.3-0.1-1.3c0-0.2,0.1-0.3,0.3-0.4l0.9-0.3l-1-0.7
				c-0.1-0.1-0.2-0.2-0.2-0.3v-1.2c0-0.2,0.1-0.3,0.2-0.4l0.4-0.2v-0.4l-0.4-0.1c-0.2-0.1-0.3-0.2-0.3-0.4l0-1.4
				c0-0.2,0.2-0.4,0.4-0.4l1.3,0c0-0.3,0-0.8,0.1-1.2c0.1-0.5,0.4-1.1,0.5-1.3l-0.1-0.5c0-0.1,0-0.2,0.1-0.3
				c0.1-0.1,0.2-0.1,0.3-0.1h0.7c0.1,0,0.2,0,0.2,0.1l1.7,1.1h0.8c0.1,0,0.2,0,0.3,0.1c0.1,0.1,0.1,0.2,0.1,0.3l-0.1,1.3
				c0,0.1-0.1,0.2-0.1,0.3l0.5,0c0.1,0,0.2,0,0.3,0.1l0.2,0.2l0.2-0.1l0.3-0.6c0.1-0.1,0.2-0.2,0.4-0.2h1.1v-0.2l-1.1-1.8
				c0-0.1-0.1-0.1-0.1-0.2v-2.6c0-0.2,0.2-0.4,0.4-0.4h2.6h0.8h2.2h0.8h2.5c0.2,0,0.4,0.2,0.4,0.4v2.6c0,0.1,0,0.1-0.1,0.2l-1.1,1.8
				v0.2h1.1c0.2,0,0.3,0.1,0.4,0.2l0.3,0.6l0.2,0.1l0.2-0.2c0.1-0.1,0.2-0.1,0.3-0.1l0.5,0c-0.1-0.1-0.1-0.2-0.1-0.3l-0.1-1.3
				c0-0.1,0-0.2,0.1-0.3c0.1-0.1,0.2-0.1,0.3-0.1h0.8l1.7-1.1c0.1,0,0.1-0.1,0.2-0.1h0.7c0.1,0,0.2,0.1,0.3,0.1
				c0.1,0.1,0.1,0.2,0.1,0.3l-0.1,0.5c0.1,0.3,0.4,0.8,0.5,1.3c0.1,0.4,0.1,0.8,0.1,1.2l1.3,0c0.2,0,0.4,0.2,0.4,0.4l0,1.4
				c0,0.2-0.1,0.3-0.3,0.4l-0.4,0.1v0.4L637,65c0.1,0.1,0.2,0.2,0.2,0.4v1.2c0,0.1-0.1,0.3-0.2,0.3l-1,0.7l0.9,0.3
				c0.2,0.1,0.3,0.2,0.3,0.4c0,0,0,0.6-0.1,1.3c-0.1,0.4-0.1,0.7-0.3,1h1.5c0,0,2.6,0,2.6,0V46.2l-34.1,0v24.3L611.6,70.5z"/>
			<path class="st4" d="M629.3,68.9c0,0,0.1-0.1,0.1-0.1c-0.1-0.1-0.2-0.2-0.2-0.3l0-1.2c0,0,0,0,0,0l-0.5,0.3
				c-0.1,0.1-0.3,0.1-0.4,0l-0.4-0.2l0,3.1h0.8C628.7,70,628.8,69.3,629.3,68.9"/>
			<path class="st4" d="M634.9,79.1c-0.2,0-0.4-0.2-0.4-0.4v-2.7c0-0.2-0.1-0.5-0.3-0.6c-0.2-0.2-0.4-0.3-0.9-0.3
				c-0.6,0-1,0.5-1.1,1v2.7c0,0.1,0,0.2-0.1,0.3c-0.1,0.1-0.2,0.1-0.3,0.1h-2.5c-0.2,0-0.4-0.2-0.4-0.4v-2.7c0-0.2-0.1-0.5-0.3-0.6
				c-0.2-0.2-0.4-0.3-0.9-0.3c-0.3,0-0.5,0.1-0.7,0.3l2,10.4c2.9-1.3,9.6-3.3,11.4-6.5H634.9z"/>
			<path class="st4" d="M628.3,85.9l-2.9-14.6h-2.3l-2.9,14.6c0,0,0,0,0,0.1c2,0.8,3.6,1.2,4,1.4C624.7,87.2,626.3,86.7,628.3,85.9
				C628.3,85.9,628.3,85.9,628.3,85.9"/>
			<path class="st4" d="M621.5,75.2c-0.2-0.2-0.4-0.3-0.7-0.3h0c-0.4,0-0.7,0.2-0.8,0.3c-0.2,0.2-0.3,0.4-0.3,0.6v2.7
				c0,0.2-0.2,0.4-0.4,0.4h-2.5c-0.1,0-0.2,0-0.3-0.1c-0.1-0.1-0.1-0.2-0.1-0.3V76c-0.1-0.5-0.4-1-1.1-1h0c-0.4,0-0.7,0.2-0.8,0.3
				c-0.2,0.2-0.3,0.4-0.3,0.6v2.7c0,0.2-0.2,0.4-0.4,0.4h-5.1c1.8,3.2,8.1,5.3,10.9,6.5L621.5,75.2z"/>
			<path class="st4" d="M638.4,71.3h-12.2l0.6,3.1c0.3-0.1,0.6-0.2,0.9-0.2c0.5,0,1.1,0.2,1.4,0.6c0.4,0.3,0.6,0.8,0.6,1.2v2.3h1.6
				v-2.3c0,0,0,0,0,0c0.1-1,0.9-1.7,1.9-1.8c0.6,0,1.1,0.2,1.5,0.6c0.4,0.3,0.6,0.8,0.6,1.2v2.3h5.1c0.6-1.2,0.9-6.9,0.9-6.9
				C641.2,71.3,638.4,71.3,638.4,71.3"/>
			<path class="st4" d="M613.2,78.2v-2.3c0-0.4,0.2-0.9,0.6-1.2c0.4-0.4,0.9-0.6,1.5-0.6c1,0,1.8,0.8,1.9,1.8c0,0,0,0,0,0v2.3h1.6
				v-2.3c0-0.4,0.2-0.9,0.6-1.2c0.4-0.4,0.9-0.6,1.5-0.6c0.3,0,0.6,0.1,0.9,0.2l0.6-3h-14.5c0,0,0.2,5.7,0.8,6.9H613.2z"/>
			<path class="st4" d="M614.2,69.6h0.7c0.1,0.1,0.1,0.2,0.1,0.3c0,0.1,0,0.1,0,0.2c0,0.1,0,0.3-0.1,0.4h-2.4
				c-0.3-0.2-0.5-1.2-0.5-1.9l1-0.3c0.2-0.1,0.3-0.2,0.3-0.4v-0.4c0-0.1-0.1-0.3-0.2-0.3l-1.1-0.8v-0.7l0.4-0.2
				c0.1-0.1,0.2-0.2,0.2-0.4v-0.9c0-0.2-0.1-0.3-0.3-0.4l-0.4-0.1l0-0.7l1.1,0l0.5,0.8l0,1.2l-0.4,1.1c0,0.1,0,0.3,0.1,0.4
				c0.1,0.1,0.2,0.2,0.3,0.2h0.3c0.2,0,0.4-0.1,0.4-0.3c0-0.2,0.1-0.7,0.2-1c0.1-0.2,0.4-0.6,0.6-0.8c0.1-0.2,0.1-0.4,0-0.5
				l-1.4-1.6c0-0.2-0.1-0.8,0-1.2c0.1-0.4,0.4-1,0.5-1.2c0.1-0.1,0.1-0.2,0.1-0.3l0-0.1h0.1l1.7,1.1c0.1,0,0.1,0.1,0.2,0.1h0.5
				l0,0.6l-0.5,0.2c-0.2,0.1-0.3,0.2-0.3,0.4l0,0.4c0,0.2,0.2,0.4,0.4,0.4l1.4,0l0.4,0.4c0.1,0.2,0.4,0.2,0.6,0c0,0,0.6-0.5,0.7-0.6
				l0.2-0.5h0.8v1v0.5c0,0-1.5,0.5-1.6,0.6c-0.1,0-0.2,0.5-0.1,0.6c0,0.1,0,0.2,0.2,0.3c0,0,0.4,0.3,0.6,0.4l0.4-0.4l0.6,0l0,1.4
				l-0.6,0.3l-1.7-1.2c-0.2-0.1-0.4-0.1-0.6,0.1l-0.3,0.3c-0.1,0.2-0.1,0.4,0,0.6l1,0.9l0,0.8l-1,0.4c-0.2,0.1-0.2,0.2-0.2,0.4v0.2
				c0,0.2,0.2,0.4,0.4,0.4h1.2c0.2,0.3,0.1,0.6,0,0.9H616c-0.1-0.1-0.1-0.3-0.2-0.5c0-0.1,0-0.1,0-0.2c0-0.3,0-0.5,0.1-0.7l0.6-0.8
				c0.1-0.1,0.1-0.1,0.1-0.2l0-0.4c0-0.1-0.1-0.3-0.2-0.4c-0.1-0.1-0.3-0.1-0.4,0l-1,0.4c-0.1,0.1-0.2,0.2-0.3,0.3l-0.1,0.4
				l-0.6,0.2c-0.2,0.1-0.3,0.2-0.3,0.4v0.2C613.8,69.4,614,69.6,614.2,69.6"/>
			<path class="st4" d="M634.3,69.6h-0.7c-0.1,0.1-0.1,0.2-0.1,0.3c0,0.1,0,0.1,0,0.2c0,0.1,0,0.3,0.1,0.4h2.4
				c0.3-0.2,0.5-1.2,0.5-1.9l-1-0.3c-0.2-0.1-0.3-0.2-0.3-0.4v-0.4c0-0.1,0.1-0.3,0.2-0.3l1.1-0.8v-0.7l-0.4-0.2
				c-0.1-0.1-0.2-0.2-0.2-0.4v-0.9c0-0.2,0.1-0.3,0.3-0.4l0.4-0.1v-0.7l-1.1,0l-0.5,0.8l0,1.2l0.4,1.1c0,0.1,0,0.3-0.1,0.4
				c-0.1,0.1-0.2,0.2-0.3,0.2h-0.3c-0.2,0-0.4-0.1-0.4-0.3c0-0.2-0.1-0.7-0.2-1c-0.1-0.2-0.4-0.6-0.6-0.8c-0.1-0.2-0.1-0.4,0-0.5
				l1.4-1.6c0-0.2,0.1-0.8,0-1.2c-0.1-0.4-0.4-1-0.5-1.2c-0.1-0.1-0.1-0.2-0.1-0.3l0-0.1h-0.1l-1.7,1.1c-0.1,0-0.1,0.1-0.2,0.1h-0.5
				l0,0.6l0.5,0.2c0.2,0.1,0.3,0.2,0.3,0.4l0,0.4c0,0.2-0.2,0.4-0.4,0.4l-1.4,0l-0.4,0.4c-0.1,0.2-0.4,0.2-0.6,0
				c0,0-0.6-0.5-0.7-0.6l-0.2-0.5H628v1v0.5c0,0,1.5,0.5,1.6,0.6c0.1,0,0.2,0.5,0.1,0.6c0,0.1,0,0.2-0.2,0.3c0,0-0.4,0.3-0.6,0.4
				l-0.4-0.4l-0.6,0l0,1.4l0.6,0.3l1.7-1.2c0.2-0.1,0.4-0.1,0.6,0.1l0.3,0.3c0.1,0.2,0.1,0.4,0,0.6l-1,0.9l0,0.8l1,0.4
				c0.1,0.1,0.2,0.2,0.2,0.4v0.2c0,0.2-0.2,0.4-0.4,0.4h-1.2c-0.2,0.3-0.1,0.6,0,0.9h2.8c0.1-0.1,0.1-0.3,0.2-0.5c0-0.1,0-0.1,0-0.2
				c0-0.3,0-0.5-0.1-0.7l-0.6-0.8c-0.1-0.1-0.1-0.1-0.1-0.2l0-0.4c0-0.1,0.1-0.3,0.2-0.4c0.1-0.1,0.3-0.1,0.4,0l1,0.4
				c0.1,0.1,0.2,0.2,0.3,0.3l0.1,0.4l0.6,0.2c0.2,0.1,0.3,0.2,0.3,0.4v0.2C634.7,69.4,634.5,69.6,634.3,69.6"/>
		</g>
		<path class="st2" d="M611.7,82.6L611.7,82.6c0.6-0.6,1.4-0.6,2,0c0.4,0.4,0.5,0.8,0.4,1.2l-0.7-0.1c0-0.3,0-0.5-0.2-0.7
			c-0.3-0.3-0.7-0.2-1,0.1l0,0c-0.3,0.3-0.3,0.7,0,1c0.2,0.2,0.4,0.2,0.7,0.2l0.1,0.7c-0.4,0.1-0.9,0-1.3-0.4
			C611.2,84.1,611.2,83.2,611.7,82.6"/>
		
			<rect x="613.2" y="84.7" transform="matrix(0.5783 -0.8158 0.8158 0.5783 189.7436 537.2129)" class="st2" width="2.8" height="0.8"/>
		<path class="st2" d="M615.5,85.9l0.7-1.4l0.7,0.3l-0.7,1.4c-0.2,0.4-0.1,0.6,0.2,0.8c0.3,0.1,0.5,0.1,0.7-0.3l0.7-1.4l0.7,0.3
			l-0.7,1.4c-0.4,0.8-1,0.9-1.7,0.6C615.4,87.3,615.1,86.7,615.5,85.9"/>
		<path class="st2" d="M619,85.9l1,0.3c1,0.3,1.4,0.9,1.2,1.7l0,0c-0.2,0.8-0.9,1.2-1.9,0.9l-1-0.3L619,85.9z M619.5,88.1
			c0.4,0.1,0.8,0,0.9-0.5l0,0c0.1-0.4-0.1-0.8-0.6-0.9l-0.3-0.1l-0.4,1.4L619.5,88.1z"/>
		<path class="st2" d="M622.8,86.6l0.7,0.1l1,2.8l-0.8-0.1l-0.2-0.5l-1.1-0.1l-0.2,0.5l-0.8-0.1L622.8,86.6z M623.4,88.3l-0.3-0.8
			l-0.4,0.8L623.4,88.3z"/>
		<path class="st2" d="M625.1,86.7l1.1-0.1c1-0.1,1.6,0.4,1.7,1.2l0,0c0.1,0.8-0.4,1.4-1.4,1.6l-1,0.1L625.1,86.7z M626.4,88.7
			c0.5-0.1,0.7-0.3,0.7-0.8l0,0c-0.1-0.4-0.4-0.7-0.8-0.6l-0.3,0l0.2,1.4L626.4,88.7z"/>
		<path class="st2" d="M628.9,86l0.7-0.2l2,2.3l-0.8,0.3l-0.3-0.4l-1,0.3l0,0.5l-0.8,0.3L628.9,86z M630.1,87.4l-0.5-0.6l-0.1,0.8
			L630.1,87.4z"/>
		<polygon class="st2" points="631,85.3 631.7,84.9 633.4,85.6 632.6,84.3 633.3,83.9 634.7,86.3 634.1,86.7 632.3,86 633.1,87.3 
			632.4,87.6 		"/>
		<path class="st2" d="M634.4,82.9l0.5-0.5l2.8,1.2l-0.6,0.6l-0.5-0.2l-0.8,0.7l0.2,0.5l-0.6,0.6L634.4,82.9z M636.1,83.7l-0.8-0.4
			l0.3,0.8L636.1,83.7z"/>
		<path class="st2" d="M612.1,53.1l0-0.7c0.3,0,0.7-0.1,0.9-0.3c0.2-0.1,0.2-0.2,0.1-0.3l0,0c-0.1-0.1-0.2-0.1-0.5,0.1
			c-0.5,0.2-1,0.4-1.4-0.1l0,0c-0.3-0.4-0.2-0.9,0.3-1.3c0.4-0.3,0.7-0.4,1.1-0.4l0,0.7c-0.3,0-0.6,0.1-0.8,0.2
			c-0.1,0.1-0.2,0.2-0.1,0.3l0,0c0.1,0.1,0.2,0.1,0.5-0.1c0.6-0.3,1-0.3,1.3,0.1l0,0c0.3,0.4,0.2,1-0.4,1.4
			C613,53,612.6,53.1,612.1,53.1"/>
		<polygon class="st2" points="613.5,49.2 615.5,48.2 615.8,48.8 614.5,49.5 614.7,49.8 615.9,49.2 616.1,49.8 615,50.4 615.2,50.8 
			616.5,50.1 616.8,50.7 614.8,51.7 		"/>
		<path class="st2" d="M616.8,49.1L616.8,49.1c-0.3-0.8,0.2-1.6,1-1.8c0.5-0.2,0.8-0.1,1.2,0l-0.3,0.7c-0.2-0.1-0.5-0.1-0.7,0
			c-0.4,0.1-0.6,0.5-0.4,0.9l0,0c0.1,0.4,0.5,0.6,0.9,0.5c0.2-0.1,0.3-0.1,0.4-0.2l-0.1-0.3l-0.5,0.2l-0.2-0.5l1.2-0.4l0.4,1.2
			c-0.2,0.3-0.5,0.6-1,0.8C617.8,50.3,617.1,49.9,616.8,49.1"/>
		<path class="st2" d="M620.2,48.3l-0.2-1.5l0.8-0.1l0.2,1.5c0.1,0.4,0.3,0.6,0.6,0.5c0.3,0,0.5-0.3,0.4-0.6l-0.2-1.5l0.8-0.1
			l0.2,1.5c0.1,0.9-0.3,1.3-1.1,1.4C620.9,49.5,620.3,49.1,620.2,48.3"/>
		<path class="st2" d="M623.6,46.3l1.3,0c0.4,0,0.7,0.1,0.9,0.3c0.2,0.2,0.2,0.4,0.2,0.6l0,0c0,0.4-0.2,0.7-0.6,0.8l0.6,1l-0.9,0
			l-0.5-0.8h0l-0.3,0l0,0.8l-0.8,0L623.6,46.3z M624.9,47.7c0.3,0,0.4-0.1,0.4-0.3v0c0-0.2-0.2-0.3-0.4-0.3l-0.5,0l0,0.7L624.9,47.7
			z"/>
		
			<rect x="625.8" y="47.6" transform="matrix(0.1428 -0.9897 0.9897 0.1428 490.1811 661.8781)" class="st2" width="2.8" height="0.8"/>
		<path class="st2" d="M628.9,46.8l1,0.3c0.9,0.3,1.3,1,1.1,1.7l0,0c-0.2,0.8-0.9,1.2-1.9,0.9l-1-0.3L628.9,46.8z M629.3,49.1
			c0.4,0.1,0.8,0,0.9-0.5l0,0c0.1-0.4-0.1-0.8-0.5-0.9l-0.3-0.1L629,49L629.3,49.1z"/>
		<path class="st2" d="M633.1,48.2l0.7,0.3l-0.1,3l-0.7-0.4l0-0.5l-1-0.5l-0.4,0.4l-0.7-0.3L633.1,48.2z M633,50l0.1-0.8l-0.6,0.6
			L633,50z"/>
		<path class="st2" d="M635.6,49.6l0.9,0.6c0.8,0.6,0.9,1.4,0.4,2l0,0c-0.5,0.6-1.3,0.8-2.1,0.2l-0.8-0.6L635.6,49.6z M635.3,51.9
			c0.4,0.3,0.8,0.2,1-0.1l0,0c0.3-0.4,0.2-0.7-0.2-1l-0.3-0.2l-0.8,1.1L635.3,51.9z"/>
	</g>
	<path class="st0" d="M210.7,36.6"/>
</g>
</svg>
